%
M48
M72
T01C0.0130
T02C0.0360
T03C0.0400
T04C0.0512
T05C0.1250
%
T01
X5600Y6729
X6350Y4999
X7200Y5329
X8600Y5279
X9800Y6729
X11020Y6789
X11600Y6689
X12680Y6349
X13900Y6479
X13150Y7849
X12650Y8329
X12670Y9539
X13100Y10199
X13550Y10679
X14270Y10709
X13650Y9589
X14400Y7979
X15190Y8589
X15700Y7379
X15150Y6629
X17000Y7979
X16750Y9729
X15400Y10879
X16050Y12999
X16200Y13949
X16250Y14999
X16250Y15949
X15450Y17279
X14650Y17729
X13950Y18479
X13950Y19329
X14750Y19379
X14950Y18729
X16150Y18999
X16200Y19949
X16200Y20999
X16200Y21999
X16300Y22999
X17700Y22949
X17700Y23949
X17700Y24949
X17700Y25899
X15400Y27059
X14900Y27059
X14400Y27059
X13900Y27059
X13400Y27059
X12900Y27059
X12400Y27059
X11900Y27059
X11400Y27059
X10900Y27059
X10600Y26459
X10900Y24441
X12050Y23849
X12550Y22829
X12120Y22569
X11490Y21289
X10650Y20849
X10310Y21149
X10900Y22356
X8907Y22356
X8100Y21349
X8100Y20849
X8630Y20739
X7700Y20049
X7150Y20499
X7300Y19449
X7600Y18049
X8200Y16949
X8650Y15629
X9400Y15649
X9850Y15229
X11210Y16089
X11870Y15489
X11430Y14219
X12160Y13279
X13080Y12479
X12570Y11829
X11700Y10679
X11250Y9379
X10350Y9899
X9600Y9429
X9100Y10079
X8650Y8379
X7300Y8379
X6750Y8849
X4150Y9879
X6550Y12249
X7250Y12249
X7900Y12249
X6750Y13399
X6967Y14371
X7200Y15649
X6700Y16299
X6550Y17199
X6150Y17849
X5750Y16999
X5550Y15999
X5600Y14949
X5550Y13949
X5550Y12999
X9750Y16829
X10690Y17089
X11000Y17799
X11950Y17799
X12060Y16959
X13050Y16249
X13500Y16799
X13750Y17549
X14650Y16649
X14350Y15949
X14050Y15249
X13080Y14339
X14320Y13049
X17700Y18949
X17700Y19949
X17700Y20949
X17700Y21949
X14800Y22879
X13600Y21629
X13130Y21379
X13950Y20729
X14750Y20379
X14750Y24429
X13050Y24479
X8829Y24441
X7750Y23649
X6250Y22539
X5600Y21949
X6000Y23759
X6230Y25669
X6300Y27109
X6800Y27109
X7300Y27109
X7800Y27109
X8450Y27109
X10850Y19799
T02
X14250Y5149
X15250Y5149
T03
X16900Y10499
X16900Y11499
X16900Y12499
X16900Y13499
X16900Y14499
X16900Y15499
X16900Y16499
X16900Y17499
X16900Y18499
X16900Y19499
X16900Y20499
X16900Y21499
X16900Y22499
X16900Y23499
X16900Y24499
X16900Y25499
X4900Y25499
X4900Y24499
X4900Y23499
X4900Y22499
X4900Y21499
X4900Y20499
X4900Y19499
X4900Y18499
X4900Y17499
X4900Y16499
X4900Y15499
X4900Y14499
X4900Y13499
X4900Y12499
X4900Y11499
X4900Y10499
T04
X7700Y9330
X9590Y8149
X7700Y6968
T05
X4800Y5499
X17000Y5499
X17000Y27649
X4800Y27649
M30
