G75*
G70*
%OFA0B0*%
%FSLAX24Y24*%
%IPPOS*%
%LPD*%
%AMOC8*
5,1,8,0,0,1.08239X$1,22.5*
%
%ADD10R,0.2250X0.2400*%
%ADD11C,0.1330*%
%ADD12R,0.0474X0.0631*%
%ADD13C,0.0099*%
%ADD14R,0.2442X0.2442*%
%ADD15R,0.0493X0.0505*%
%ADD16R,0.0946X0.0316*%
%ADD17R,0.0505X0.0493*%
%ADD18R,0.0474X0.0513*%
%ADD19R,0.0513X0.0474*%
%ADD20R,0.0552X0.0552*%
%ADD21R,0.0316X0.0237*%
%ADD22C,0.0860*%
%ADD23C,0.0940*%
%ADD24R,0.0592X0.0710*%
%ADD25R,0.1080X0.0580*%
%ADD26C,0.0600*%
%ADD27C,0.0680*%
%ADD28R,0.0631X0.0474*%
%ADD29C,0.0580*%
%ADD30C,0.0560*%
%ADD31C,0.0640*%
%ADD32R,0.0277X0.0631*%
%ADD33R,0.0867X0.1576*%
%ADD34R,0.0200X0.0400*%
%ADD35R,0.0400X0.0200*%
%ADD36R,0.1180X0.1180*%
%ADD37R,0.0710X0.0592*%
%ADD38R,0.0789X0.0474*%
%ADD39R,0.0533X0.0631*%
%ADD40C,0.0370*%
D10*
X009825Y023399D03*
D11*
X004800Y005499D03*
X017000Y005499D03*
X017000Y027649D03*
X004800Y027649D03*
D12*
X010526Y014882D03*
X011274Y014882D03*
X010900Y014016D03*
X009824Y012582D03*
X009076Y012582D03*
X009450Y011716D03*
X008024Y013166D03*
X007650Y014032D03*
X007276Y013166D03*
D13*
X008374Y021567D02*
X008374Y021825D01*
X008474Y021825D01*
X008474Y021567D01*
X008374Y021567D01*
X008374Y021665D02*
X008474Y021665D01*
X008474Y021763D02*
X008374Y021763D01*
X008068Y021872D02*
X008068Y021972D01*
X008326Y021972D01*
X008326Y021872D01*
X008068Y021872D01*
X008068Y021970D02*
X008326Y021970D01*
X008068Y022069D02*
X008068Y022169D01*
X008326Y022169D01*
X008326Y022069D01*
X008068Y022069D01*
X008068Y022167D02*
X008326Y022167D01*
X008068Y022266D02*
X008068Y022366D01*
X008326Y022366D01*
X008326Y022266D01*
X008068Y022266D01*
X008068Y022364D02*
X008326Y022364D01*
X008068Y022463D02*
X008068Y022563D01*
X008326Y022563D01*
X008326Y022463D01*
X008068Y022463D01*
X008068Y022561D02*
X008326Y022561D01*
X008068Y022660D02*
X008068Y022760D01*
X008326Y022760D01*
X008326Y022660D01*
X008068Y022660D01*
X008068Y022758D02*
X008326Y022758D01*
X008068Y022857D02*
X008068Y022957D01*
X008326Y022957D01*
X008326Y022857D01*
X008068Y022857D01*
X008068Y022955D02*
X008326Y022955D01*
X008068Y023053D02*
X008068Y023153D01*
X008326Y023153D01*
X008326Y023053D01*
X008068Y023053D01*
X008068Y023151D02*
X008326Y023151D01*
X008068Y023250D02*
X008068Y023350D01*
X008326Y023350D01*
X008326Y023250D01*
X008068Y023250D01*
X008068Y023348D02*
X008326Y023348D01*
X008068Y023447D02*
X008068Y023547D01*
X008326Y023547D01*
X008326Y023447D01*
X008068Y023447D01*
X008068Y023545D02*
X008326Y023545D01*
X008068Y023644D02*
X008068Y023744D01*
X008326Y023744D01*
X008326Y023644D01*
X008068Y023644D01*
X008068Y023742D02*
X008326Y023742D01*
X008068Y023841D02*
X008068Y023941D01*
X008326Y023941D01*
X008326Y023841D01*
X008068Y023841D01*
X008068Y023939D02*
X008326Y023939D01*
X008068Y024038D02*
X008068Y024138D01*
X008326Y024138D01*
X008326Y024038D01*
X008068Y024038D01*
X008068Y024136D02*
X008326Y024136D01*
X008068Y024235D02*
X008068Y024335D01*
X008326Y024335D01*
X008326Y024235D01*
X008068Y024235D01*
X008068Y024333D02*
X008326Y024333D01*
X008068Y024431D02*
X008068Y024531D01*
X008326Y024531D01*
X008326Y024431D01*
X008068Y024431D01*
X008068Y024529D02*
X008326Y024529D01*
X008068Y024628D02*
X008068Y024728D01*
X008326Y024728D01*
X008326Y024628D01*
X008068Y024628D01*
X008068Y024726D02*
X008326Y024726D01*
X008068Y024825D02*
X008068Y024925D01*
X008326Y024925D01*
X008326Y024825D01*
X008068Y024825D01*
X008068Y024923D02*
X008326Y024923D01*
X008374Y024972D02*
X008374Y025230D01*
X008474Y025230D01*
X008474Y024972D01*
X008374Y024972D01*
X008374Y025070D02*
X008474Y025070D01*
X008474Y025168D02*
X008374Y025168D01*
X008570Y025230D02*
X008570Y024972D01*
X008570Y025230D02*
X008670Y025230D01*
X008670Y024972D01*
X008570Y024972D01*
X008570Y025070D02*
X008670Y025070D01*
X008670Y025168D02*
X008570Y025168D01*
X008767Y025230D02*
X008767Y024972D01*
X008767Y025230D02*
X008867Y025230D01*
X008867Y024972D01*
X008767Y024972D01*
X008767Y025070D02*
X008867Y025070D01*
X008867Y025168D02*
X008767Y025168D01*
X008964Y025230D02*
X008964Y024972D01*
X008964Y025230D02*
X009064Y025230D01*
X009064Y024972D01*
X008964Y024972D01*
X008964Y025070D02*
X009064Y025070D01*
X009064Y025168D02*
X008964Y025168D01*
X009161Y025230D02*
X009161Y024972D01*
X009161Y025230D02*
X009261Y025230D01*
X009261Y024972D01*
X009161Y024972D01*
X009161Y025070D02*
X009261Y025070D01*
X009261Y025168D02*
X009161Y025168D01*
X009358Y025230D02*
X009358Y024972D01*
X009358Y025230D02*
X009458Y025230D01*
X009458Y024972D01*
X009358Y024972D01*
X009358Y025070D02*
X009458Y025070D01*
X009458Y025168D02*
X009358Y025168D01*
X009555Y025230D02*
X009555Y024972D01*
X009555Y025230D02*
X009655Y025230D01*
X009655Y024972D01*
X009555Y024972D01*
X009555Y025070D02*
X009655Y025070D01*
X009655Y025168D02*
X009555Y025168D01*
X009752Y025230D02*
X009752Y024972D01*
X009752Y025230D02*
X009852Y025230D01*
X009852Y024972D01*
X009752Y024972D01*
X009752Y025070D02*
X009852Y025070D01*
X009852Y025168D02*
X009752Y025168D01*
X009948Y025230D02*
X009948Y024972D01*
X009948Y025230D02*
X010048Y025230D01*
X010048Y024972D01*
X009948Y024972D01*
X009948Y025070D02*
X010048Y025070D01*
X010048Y025168D02*
X009948Y025168D01*
X010145Y025230D02*
X010145Y024972D01*
X010145Y025230D02*
X010245Y025230D01*
X010245Y024972D01*
X010145Y024972D01*
X010145Y025070D02*
X010245Y025070D01*
X010245Y025168D02*
X010145Y025168D01*
X010342Y025230D02*
X010342Y024972D01*
X010342Y025230D02*
X010442Y025230D01*
X010442Y024972D01*
X010342Y024972D01*
X010342Y025070D02*
X010442Y025070D01*
X010442Y025168D02*
X010342Y025168D01*
X010539Y025230D02*
X010539Y024972D01*
X010539Y025230D02*
X010639Y025230D01*
X010639Y024972D01*
X010539Y024972D01*
X010539Y025070D02*
X010639Y025070D01*
X010639Y025168D02*
X010539Y025168D01*
X010736Y025230D02*
X010736Y024972D01*
X010736Y025230D02*
X010836Y025230D01*
X010836Y024972D01*
X010736Y024972D01*
X010736Y025070D02*
X010836Y025070D01*
X010836Y025168D02*
X010736Y025168D01*
X010933Y025230D02*
X010933Y024972D01*
X010933Y025230D02*
X011033Y025230D01*
X011033Y024972D01*
X010933Y024972D01*
X010933Y025070D02*
X011033Y025070D01*
X011033Y025168D02*
X010933Y025168D01*
X011130Y025230D02*
X011130Y024972D01*
X011130Y025230D02*
X011230Y025230D01*
X011230Y024972D01*
X011130Y024972D01*
X011130Y025070D02*
X011230Y025070D01*
X011230Y025168D02*
X011130Y025168D01*
X011326Y025230D02*
X011326Y024972D01*
X011326Y025230D02*
X011426Y025230D01*
X011426Y024972D01*
X011326Y024972D01*
X011326Y025070D02*
X011426Y025070D01*
X011426Y025168D02*
X011326Y025168D01*
X011474Y024925D02*
X011474Y024825D01*
X011474Y024925D02*
X011732Y024925D01*
X011732Y024825D01*
X011474Y024825D01*
X011474Y024923D02*
X011732Y024923D01*
X011474Y024728D02*
X011474Y024628D01*
X011474Y024728D02*
X011732Y024728D01*
X011732Y024628D01*
X011474Y024628D01*
X011474Y024726D02*
X011732Y024726D01*
X011474Y024531D02*
X011474Y024431D01*
X011474Y024531D02*
X011732Y024531D01*
X011732Y024431D01*
X011474Y024431D01*
X011474Y024529D02*
X011732Y024529D01*
X011474Y024335D02*
X011474Y024235D01*
X011474Y024335D02*
X011732Y024335D01*
X011732Y024235D01*
X011474Y024235D01*
X011474Y024333D02*
X011732Y024333D01*
X011474Y024138D02*
X011474Y024038D01*
X011474Y024138D02*
X011732Y024138D01*
X011732Y024038D01*
X011474Y024038D01*
X011474Y024136D02*
X011732Y024136D01*
X011474Y023941D02*
X011474Y023841D01*
X011474Y023941D02*
X011732Y023941D01*
X011732Y023841D01*
X011474Y023841D01*
X011474Y023939D02*
X011732Y023939D01*
X011474Y023744D02*
X011474Y023644D01*
X011474Y023744D02*
X011732Y023744D01*
X011732Y023644D01*
X011474Y023644D01*
X011474Y023742D02*
X011732Y023742D01*
X011474Y023547D02*
X011474Y023447D01*
X011474Y023547D02*
X011732Y023547D01*
X011732Y023447D01*
X011474Y023447D01*
X011474Y023545D02*
X011732Y023545D01*
X011474Y023350D02*
X011474Y023250D01*
X011474Y023350D02*
X011732Y023350D01*
X011732Y023250D01*
X011474Y023250D01*
X011474Y023348D02*
X011732Y023348D01*
X011474Y023153D02*
X011474Y023053D01*
X011474Y023153D02*
X011732Y023153D01*
X011732Y023053D01*
X011474Y023053D01*
X011474Y023151D02*
X011732Y023151D01*
X011474Y022957D02*
X011474Y022857D01*
X011474Y022957D02*
X011732Y022957D01*
X011732Y022857D01*
X011474Y022857D01*
X011474Y022955D02*
X011732Y022955D01*
X011474Y022760D02*
X011474Y022660D01*
X011474Y022760D02*
X011732Y022760D01*
X011732Y022660D01*
X011474Y022660D01*
X011474Y022758D02*
X011732Y022758D01*
X011474Y022563D02*
X011474Y022463D01*
X011474Y022563D02*
X011732Y022563D01*
X011732Y022463D01*
X011474Y022463D01*
X011474Y022561D02*
X011732Y022561D01*
X011474Y022366D02*
X011474Y022266D01*
X011474Y022366D02*
X011732Y022366D01*
X011732Y022266D01*
X011474Y022266D01*
X011474Y022364D02*
X011732Y022364D01*
X011474Y022169D02*
X011474Y022069D01*
X011474Y022169D02*
X011732Y022169D01*
X011732Y022069D01*
X011474Y022069D01*
X011474Y022167D02*
X011732Y022167D01*
X011474Y021972D02*
X011474Y021872D01*
X011474Y021972D02*
X011732Y021972D01*
X011732Y021872D01*
X011474Y021872D01*
X011474Y021970D02*
X011732Y021970D01*
X011326Y021825D02*
X011326Y021567D01*
X011326Y021825D02*
X011426Y021825D01*
X011426Y021567D01*
X011326Y021567D01*
X011326Y021665D02*
X011426Y021665D01*
X011426Y021763D02*
X011326Y021763D01*
X011130Y021825D02*
X011130Y021567D01*
X011130Y021825D02*
X011230Y021825D01*
X011230Y021567D01*
X011130Y021567D01*
X011130Y021665D02*
X011230Y021665D01*
X011230Y021763D02*
X011130Y021763D01*
X010933Y021825D02*
X010933Y021567D01*
X010933Y021825D02*
X011033Y021825D01*
X011033Y021567D01*
X010933Y021567D01*
X010933Y021665D02*
X011033Y021665D01*
X011033Y021763D02*
X010933Y021763D01*
X010736Y021825D02*
X010736Y021567D01*
X010736Y021825D02*
X010836Y021825D01*
X010836Y021567D01*
X010736Y021567D01*
X010736Y021665D02*
X010836Y021665D01*
X010836Y021763D02*
X010736Y021763D01*
X010539Y021825D02*
X010539Y021567D01*
X010539Y021825D02*
X010639Y021825D01*
X010639Y021567D01*
X010539Y021567D01*
X010539Y021665D02*
X010639Y021665D01*
X010639Y021763D02*
X010539Y021763D01*
X010342Y021825D02*
X010342Y021567D01*
X010342Y021825D02*
X010442Y021825D01*
X010442Y021567D01*
X010342Y021567D01*
X010342Y021665D02*
X010442Y021665D01*
X010442Y021763D02*
X010342Y021763D01*
X010145Y021825D02*
X010145Y021567D01*
X010145Y021825D02*
X010245Y021825D01*
X010245Y021567D01*
X010145Y021567D01*
X010145Y021665D02*
X010245Y021665D01*
X010245Y021763D02*
X010145Y021763D01*
X009948Y021825D02*
X009948Y021567D01*
X009948Y021825D02*
X010048Y021825D01*
X010048Y021567D01*
X009948Y021567D01*
X009948Y021665D02*
X010048Y021665D01*
X010048Y021763D02*
X009948Y021763D01*
X009752Y021825D02*
X009752Y021567D01*
X009752Y021825D02*
X009852Y021825D01*
X009852Y021567D01*
X009752Y021567D01*
X009752Y021665D02*
X009852Y021665D01*
X009852Y021763D02*
X009752Y021763D01*
X009555Y021825D02*
X009555Y021567D01*
X009555Y021825D02*
X009655Y021825D01*
X009655Y021567D01*
X009555Y021567D01*
X009555Y021665D02*
X009655Y021665D01*
X009655Y021763D02*
X009555Y021763D01*
X009358Y021825D02*
X009358Y021567D01*
X009358Y021825D02*
X009458Y021825D01*
X009458Y021567D01*
X009358Y021567D01*
X009358Y021665D02*
X009458Y021665D01*
X009458Y021763D02*
X009358Y021763D01*
X009161Y021825D02*
X009161Y021567D01*
X009161Y021825D02*
X009261Y021825D01*
X009261Y021567D01*
X009161Y021567D01*
X009161Y021665D02*
X009261Y021665D01*
X009261Y021763D02*
X009161Y021763D01*
X008964Y021825D02*
X008964Y021567D01*
X008964Y021825D02*
X009064Y021825D01*
X009064Y021567D01*
X008964Y021567D01*
X008964Y021665D02*
X009064Y021665D01*
X009064Y021763D02*
X008964Y021763D01*
X008767Y021825D02*
X008767Y021567D01*
X008767Y021825D02*
X008867Y021825D01*
X008867Y021567D01*
X008767Y021567D01*
X008767Y021665D02*
X008867Y021665D01*
X008867Y021763D02*
X008767Y021763D01*
X008570Y021825D02*
X008570Y021567D01*
X008570Y021825D02*
X008670Y021825D01*
X008670Y021567D01*
X008570Y021567D01*
X008570Y021665D02*
X008670Y021665D01*
X008670Y021763D02*
X008570Y021763D01*
D14*
X009900Y023399D03*
D15*
G36*
X006762Y023376D02*
X007110Y023724D01*
X007466Y023368D01*
X007118Y023020D01*
X006762Y023376D01*
G37*
G36*
X005934Y023379D02*
X006282Y023727D01*
X006638Y023371D01*
X006290Y023023D01*
X005934Y023379D01*
G37*
G36*
X006274Y022889D02*
X006622Y023237D01*
X006978Y022881D01*
X006630Y022533D01*
X006274Y022889D01*
G37*
G36*
X006422Y023866D02*
X006770Y024214D01*
X007126Y023858D01*
X006778Y023510D01*
X006422Y023866D01*
G37*
X010556Y015599D03*
X011244Y015599D03*
X014306Y019899D03*
X014994Y019899D03*
X014294Y022149D03*
X013606Y022149D03*
X013556Y024449D03*
X014244Y024449D03*
X014264Y010189D03*
X013576Y010189D03*
X012514Y007829D03*
X012514Y007249D03*
X011826Y007249D03*
X011826Y007829D03*
D16*
X011574Y018249D03*
X011574Y018749D03*
X011574Y019249D03*
X011574Y019749D03*
X009093Y019749D03*
X009093Y019249D03*
X009093Y018749D03*
X009093Y018249D03*
D17*
X008100Y018054D03*
X008100Y018743D03*
X009850Y014693D03*
X009850Y014004D03*
X013150Y009613D03*
X013150Y008924D03*
X012190Y008644D03*
X012190Y009333D03*
X011230Y008813D03*
X011230Y008124D03*
X012650Y021654D03*
X012650Y022343D03*
X012550Y023754D03*
X012550Y024443D03*
X009100Y026354D03*
X009100Y027043D03*
X006740Y025643D03*
X006740Y024954D03*
X006180Y025193D03*
X006180Y024504D03*
D18*
X008565Y013849D03*
X009235Y013849D03*
X013115Y011189D03*
X013785Y011189D03*
X014115Y009599D03*
X014785Y009599D03*
X015365Y009599D03*
X016035Y009599D03*
D19*
X013200Y007183D03*
X013200Y006514D03*
X008000Y011064D03*
X007350Y011064D03*
X007350Y011733D03*
X008000Y011733D03*
X006700Y011733D03*
X006700Y011064D03*
D20*
X005013Y008799D03*
X005013Y007999D03*
X005013Y007199D03*
X004187Y007199D03*
X004187Y007999D03*
X004187Y008799D03*
D21*
X009728Y025937D03*
X009728Y026192D03*
X009728Y026448D03*
X010180Y026448D03*
X010180Y026192D03*
X010180Y025937D03*
D22*
X008130Y009330D02*
X007270Y009330D01*
X007270Y006968D02*
X008130Y006968D01*
X009590Y007719D02*
X009590Y008579D01*
D23*
X009590Y007719D01*
X008130Y006968D02*
X007270Y006968D01*
X007270Y009330D02*
X008130Y009330D01*
D24*
X008656Y010899D03*
X009444Y010899D03*
X011596Y012559D03*
X012384Y012559D03*
D25*
X014285Y008785D03*
X014285Y007013D03*
X017415Y007013D03*
X017415Y008785D03*
D26*
X017200Y010499D02*
X016600Y010499D01*
X016600Y011499D02*
X017200Y011499D01*
X017200Y012499D02*
X016600Y012499D01*
X016600Y013499D02*
X017200Y013499D01*
X017200Y014499D02*
X016600Y014499D01*
X016600Y015499D02*
X017200Y015499D01*
X017200Y016499D02*
X016600Y016499D01*
X016600Y017499D02*
X017200Y017499D01*
X017200Y018499D02*
X016600Y018499D01*
X016600Y019499D02*
X017200Y019499D01*
X017200Y020499D02*
X016600Y020499D01*
X016600Y021499D02*
X017200Y021499D01*
X017200Y022499D02*
X016600Y022499D01*
X016600Y023499D02*
X017200Y023499D01*
X017200Y024499D02*
X016600Y024499D01*
X016600Y025499D02*
X017200Y025499D01*
X005200Y025499D02*
X004600Y025499D01*
X004600Y024499D02*
X005200Y024499D01*
X005200Y023499D02*
X004600Y023499D01*
X004600Y022499D02*
X005200Y022499D01*
X005200Y021499D02*
X004600Y021499D01*
X004600Y020499D02*
X005200Y020499D01*
X005200Y019499D02*
X004600Y019499D01*
X004600Y018499D02*
X005200Y018499D01*
X005200Y017499D02*
X004600Y017499D01*
X004600Y016499D02*
X005200Y016499D01*
X005200Y015499D02*
X004600Y015499D01*
X004600Y014499D02*
X005200Y014499D01*
X005200Y013499D02*
X004600Y013499D01*
X004600Y012499D02*
X005200Y012499D01*
X005200Y011499D02*
X004600Y011499D01*
X004600Y010499D02*
X005200Y010499D01*
D27*
X004600Y010499D01*
X004600Y011499D02*
X005200Y011499D01*
X005200Y012499D02*
X004600Y012499D01*
X004600Y013499D02*
X005200Y013499D01*
X005200Y014499D02*
X004600Y014499D01*
X004600Y015499D02*
X005200Y015499D01*
X005200Y016499D02*
X004600Y016499D01*
X004600Y017499D02*
X005200Y017499D01*
X005200Y018499D02*
X004600Y018499D01*
X004600Y019499D02*
X005200Y019499D01*
X005200Y020499D02*
X004600Y020499D01*
X004600Y021499D02*
X005200Y021499D01*
X005200Y022499D02*
X004600Y022499D01*
X004600Y023499D02*
X005200Y023499D01*
X005200Y024499D02*
X004600Y024499D01*
X004600Y025499D02*
X005200Y025499D01*
X016600Y025499D02*
X017200Y025499D01*
X017200Y024499D02*
X016600Y024499D01*
X016600Y023499D02*
X017200Y023499D01*
X017200Y022499D02*
X016600Y022499D01*
X016600Y021499D02*
X017200Y021499D01*
X017200Y020499D02*
X016600Y020499D01*
X016600Y019499D02*
X017200Y019499D01*
X017200Y018499D02*
X016600Y018499D01*
X016600Y017499D02*
X017200Y017499D01*
X017200Y016499D02*
X016600Y016499D01*
X016600Y015499D02*
X017200Y015499D01*
X017200Y014499D02*
X016600Y014499D01*
X016600Y013499D02*
X017200Y013499D01*
X017200Y012499D02*
X016600Y012499D01*
X016600Y011499D02*
X017200Y011499D01*
X017200Y010499D02*
X016600Y010499D01*
D28*
X008787Y014391D03*
X008787Y015139D03*
X007921Y014765D03*
D29*
X012334Y015053D03*
X013126Y015065D03*
X013150Y011809D03*
D30*
X014250Y005429D02*
X014250Y004869D01*
X015250Y004869D02*
X015250Y005429D01*
D31*
X015250Y004869D01*
X014250Y004869D02*
X014250Y005429D01*
D32*
X012230Y006140D03*
X011915Y006140D03*
X011600Y006140D03*
X011285Y006140D03*
X010970Y006140D03*
D33*
X010025Y005313D03*
X013175Y005313D03*
D34*
X012190Y009889D03*
X012000Y009889D03*
X011800Y009889D03*
X011600Y009889D03*
X011400Y009889D03*
X011210Y009889D03*
X011210Y011448D03*
X011400Y011448D03*
X011600Y011448D03*
X011800Y011448D03*
X012000Y011448D03*
X012190Y011448D03*
D35*
X012479Y011159D03*
X012479Y010969D03*
X012479Y010769D03*
X012479Y010569D03*
X012479Y010369D03*
X012479Y010179D03*
X010921Y010179D03*
X010921Y010369D03*
X010921Y010569D03*
X010921Y010769D03*
X010921Y010969D03*
X010921Y011159D03*
D36*
X011700Y010669D03*
D37*
X010560Y009242D03*
X010560Y008455D03*
D38*
X007440Y024667D03*
X007440Y025651D03*
D39*
X013635Y023732D03*
X014265Y023732D03*
X014265Y022866D03*
X013635Y022866D03*
D40*
X014800Y022879D03*
X013600Y021629D03*
X013130Y021379D03*
X013950Y020729D03*
X014750Y020379D03*
X014750Y019379D03*
X014950Y018729D03*
X014650Y017729D03*
X015450Y017279D03*
X014650Y016649D03*
X014350Y015949D03*
X014050Y015249D03*
X013080Y014339D03*
X012160Y013279D03*
X011430Y014219D03*
X011870Y015489D03*
X011210Y016089D03*
X010690Y017089D03*
X011000Y017799D03*
X011950Y017799D03*
X012060Y016959D03*
X013050Y016249D03*
X013500Y016799D03*
X013750Y017549D03*
X013950Y018479D03*
X013950Y019329D03*
X016150Y018999D03*
X016200Y019949D03*
X016200Y020999D03*
X016200Y021999D03*
X016300Y022999D03*
X017700Y022949D03*
X017700Y023949D03*
X017700Y024949D03*
X017700Y025899D03*
X015400Y027059D03*
X014900Y027059D03*
X014400Y027059D03*
X013900Y027059D03*
X013400Y027059D03*
X012900Y027059D03*
X012400Y027059D03*
X011900Y027059D03*
X011400Y027059D03*
X010900Y027059D03*
X010600Y026459D03*
X010900Y024441D03*
X012050Y023849D03*
X012550Y022829D03*
X012120Y022569D03*
X011490Y021289D03*
X010650Y020849D03*
X010310Y021149D03*
X010900Y022356D03*
X008907Y022356D03*
X008100Y021349D03*
X008100Y020849D03*
X008630Y020739D03*
X007700Y020049D03*
X007150Y020499D03*
X007300Y019449D03*
X007600Y018049D03*
X008200Y016949D03*
X008650Y015629D03*
X009400Y015649D03*
X009850Y015229D03*
X009750Y016829D03*
X010850Y019799D03*
X007750Y023649D03*
X008829Y024441D03*
X008450Y027109D03*
X007800Y027109D03*
X007300Y027109D03*
X006800Y027109D03*
X006300Y027109D03*
X006230Y025669D03*
X006000Y023759D03*
X006250Y022539D03*
X005600Y021949D03*
X006150Y017849D03*
X006550Y017199D03*
X006700Y016299D03*
X007200Y015649D03*
X006967Y014371D03*
X006750Y013399D03*
X006550Y012249D03*
X007250Y012249D03*
X007900Y012249D03*
X009100Y010079D03*
X009600Y009429D03*
X010350Y009899D03*
X011250Y009379D03*
X011700Y010679D03*
X012570Y011829D03*
X013080Y012479D03*
X014320Y013049D03*
X016050Y012999D03*
X016200Y013949D03*
X016250Y014999D03*
X016250Y015949D03*
X017700Y018949D03*
X017700Y019949D03*
X017700Y020949D03*
X017700Y021949D03*
X014750Y024429D03*
X013050Y024479D03*
X005750Y016999D03*
X005550Y015999D03*
X005600Y014949D03*
X005550Y013949D03*
X005550Y012999D03*
X004150Y009879D03*
X006750Y008849D03*
X007300Y008379D03*
X008650Y008379D03*
X009800Y006729D03*
X011020Y006789D03*
X011600Y006689D03*
X012680Y006349D03*
X013900Y006479D03*
X013150Y007849D03*
X012650Y008329D03*
X012670Y009539D03*
X013100Y010199D03*
X013550Y010679D03*
X014270Y010709D03*
X013650Y009589D03*
X014400Y007979D03*
X015190Y008589D03*
X015700Y007379D03*
X015150Y006629D03*
X017000Y007979D03*
X016750Y009729D03*
X015400Y010879D03*
X008600Y005279D03*
X007200Y005329D03*
X006350Y004999D03*
X005600Y006729D03*
M02*
