G75*
G70*
%OFA0B0*%
%FSLAX24Y24*%
%IPPOS*%
%LPD*%
%AMOC8*
5,1,8,0,0,1.08239X$1,22.5*
%
%ADD10R,0.0394X0.0551*%
%ADD11C,0.0059*%
%ADD12R,0.0394X0.0394*%
%ADD13R,0.0413X0.0425*%
%ADD14R,0.0866X0.0236*%
%ADD15R,0.0425X0.0413*%
%ADD16R,0.0394X0.0433*%
%ADD17R,0.0433X0.0394*%
%ADD18R,0.0472X0.0472*%
%ADD19R,0.0236X0.0157*%
%ADD20R,0.0512X0.0630*%
%ADD21R,0.1000X0.0500*%
%ADD22R,0.0551X0.0394*%
%ADD23R,0.0197X0.0551*%
%ADD24R,0.0787X0.1496*%
%ADD25R,0.0120X0.0320*%
%ADD26R,0.0320X0.0120*%
%ADD27R,0.1100X0.1100*%
%ADD28R,0.0630X0.0512*%
%ADD29R,0.0709X0.0394*%
%ADD30R,0.0453X0.0551*%
D10*
X009450Y011716D03*
X009076Y012582D03*
X009824Y012582D03*
X010900Y014016D03*
X010526Y014882D03*
X011274Y014882D03*
X008024Y013166D03*
X007650Y014032D03*
X007276Y013166D03*
D11*
X008394Y021587D02*
X008394Y021805D01*
X008454Y021805D01*
X008454Y021587D01*
X008394Y021587D01*
X008394Y021645D02*
X008454Y021645D01*
X008454Y021703D02*
X008394Y021703D01*
X008394Y021761D02*
X008454Y021761D01*
X008590Y021805D02*
X008590Y021587D01*
X008590Y021805D02*
X008650Y021805D01*
X008650Y021587D01*
X008590Y021587D01*
X008590Y021645D02*
X008650Y021645D01*
X008650Y021703D02*
X008590Y021703D01*
X008590Y021761D02*
X008650Y021761D01*
X008787Y021805D02*
X008787Y021587D01*
X008787Y021805D02*
X008847Y021805D01*
X008847Y021587D01*
X008787Y021587D01*
X008787Y021645D02*
X008847Y021645D01*
X008847Y021703D02*
X008787Y021703D01*
X008787Y021761D02*
X008847Y021761D01*
X008984Y021805D02*
X008984Y021587D01*
X008984Y021805D02*
X009044Y021805D01*
X009044Y021587D01*
X008984Y021587D01*
X008984Y021645D02*
X009044Y021645D01*
X009044Y021703D02*
X008984Y021703D01*
X008984Y021761D02*
X009044Y021761D01*
X009181Y021805D02*
X009181Y021587D01*
X009181Y021805D02*
X009241Y021805D01*
X009241Y021587D01*
X009181Y021587D01*
X009181Y021645D02*
X009241Y021645D01*
X009241Y021703D02*
X009181Y021703D01*
X009181Y021761D02*
X009241Y021761D01*
X009378Y021805D02*
X009378Y021587D01*
X009378Y021805D02*
X009438Y021805D01*
X009438Y021587D01*
X009378Y021587D01*
X009378Y021645D02*
X009438Y021645D01*
X009438Y021703D02*
X009378Y021703D01*
X009378Y021761D02*
X009438Y021761D01*
X009575Y021805D02*
X009575Y021587D01*
X009575Y021805D02*
X009635Y021805D01*
X009635Y021587D01*
X009575Y021587D01*
X009575Y021645D02*
X009635Y021645D01*
X009635Y021703D02*
X009575Y021703D01*
X009575Y021761D02*
X009635Y021761D01*
X009772Y021805D02*
X009772Y021587D01*
X009772Y021805D02*
X009832Y021805D01*
X009832Y021587D01*
X009772Y021587D01*
X009772Y021645D02*
X009832Y021645D01*
X009832Y021703D02*
X009772Y021703D01*
X009772Y021761D02*
X009832Y021761D01*
X009968Y021805D02*
X009968Y021587D01*
X009968Y021805D02*
X010028Y021805D01*
X010028Y021587D01*
X009968Y021587D01*
X009968Y021645D02*
X010028Y021645D01*
X010028Y021703D02*
X009968Y021703D01*
X009968Y021761D02*
X010028Y021761D01*
X010165Y021805D02*
X010165Y021587D01*
X010165Y021805D02*
X010225Y021805D01*
X010225Y021587D01*
X010165Y021587D01*
X010165Y021645D02*
X010225Y021645D01*
X010225Y021703D02*
X010165Y021703D01*
X010165Y021761D02*
X010225Y021761D01*
X010362Y021805D02*
X010362Y021587D01*
X010362Y021805D02*
X010422Y021805D01*
X010422Y021587D01*
X010362Y021587D01*
X010362Y021645D02*
X010422Y021645D01*
X010422Y021703D02*
X010362Y021703D01*
X010362Y021761D02*
X010422Y021761D01*
X010559Y021805D02*
X010559Y021587D01*
X010559Y021805D02*
X010619Y021805D01*
X010619Y021587D01*
X010559Y021587D01*
X010559Y021645D02*
X010619Y021645D01*
X010619Y021703D02*
X010559Y021703D01*
X010559Y021761D02*
X010619Y021761D01*
X010756Y021805D02*
X010756Y021587D01*
X010756Y021805D02*
X010816Y021805D01*
X010816Y021587D01*
X010756Y021587D01*
X010756Y021645D02*
X010816Y021645D01*
X010816Y021703D02*
X010756Y021703D01*
X010756Y021761D02*
X010816Y021761D01*
X010953Y021805D02*
X010953Y021587D01*
X010953Y021805D02*
X011013Y021805D01*
X011013Y021587D01*
X010953Y021587D01*
X010953Y021645D02*
X011013Y021645D01*
X011013Y021703D02*
X010953Y021703D01*
X010953Y021761D02*
X011013Y021761D01*
X011150Y021805D02*
X011150Y021587D01*
X011150Y021805D02*
X011210Y021805D01*
X011210Y021587D01*
X011150Y021587D01*
X011150Y021645D02*
X011210Y021645D01*
X011210Y021703D02*
X011150Y021703D01*
X011150Y021761D02*
X011210Y021761D01*
X011346Y021805D02*
X011346Y021587D01*
X011346Y021805D02*
X011406Y021805D01*
X011406Y021587D01*
X011346Y021587D01*
X011346Y021645D02*
X011406Y021645D01*
X011406Y021703D02*
X011346Y021703D01*
X011346Y021761D02*
X011406Y021761D01*
X011494Y021892D02*
X011494Y021952D01*
X011712Y021952D01*
X011712Y021892D01*
X011494Y021892D01*
X011494Y021950D02*
X011712Y021950D01*
X011494Y022089D02*
X011494Y022149D01*
X011712Y022149D01*
X011712Y022089D01*
X011494Y022089D01*
X011494Y022147D02*
X011712Y022147D01*
X011494Y022286D02*
X011494Y022346D01*
X011712Y022346D01*
X011712Y022286D01*
X011494Y022286D01*
X011494Y022344D02*
X011712Y022344D01*
X011494Y022483D02*
X011494Y022543D01*
X011712Y022543D01*
X011712Y022483D01*
X011494Y022483D01*
X011494Y022541D02*
X011712Y022541D01*
X011494Y022680D02*
X011494Y022740D01*
X011712Y022740D01*
X011712Y022680D01*
X011494Y022680D01*
X011494Y022738D02*
X011712Y022738D01*
X011494Y022877D02*
X011494Y022937D01*
X011712Y022937D01*
X011712Y022877D01*
X011494Y022877D01*
X011494Y022935D02*
X011712Y022935D01*
X011494Y023073D02*
X011494Y023133D01*
X011712Y023133D01*
X011712Y023073D01*
X011494Y023073D01*
X011494Y023131D02*
X011712Y023131D01*
X011494Y023270D02*
X011494Y023330D01*
X011712Y023330D01*
X011712Y023270D01*
X011494Y023270D01*
X011494Y023328D02*
X011712Y023328D01*
X011494Y023467D02*
X011494Y023527D01*
X011712Y023527D01*
X011712Y023467D01*
X011494Y023467D01*
X011494Y023525D02*
X011712Y023525D01*
X011494Y023664D02*
X011494Y023724D01*
X011712Y023724D01*
X011712Y023664D01*
X011494Y023664D01*
X011494Y023722D02*
X011712Y023722D01*
X011494Y023861D02*
X011494Y023921D01*
X011712Y023921D01*
X011712Y023861D01*
X011494Y023861D01*
X011494Y023919D02*
X011712Y023919D01*
X011494Y024058D02*
X011494Y024118D01*
X011712Y024118D01*
X011712Y024058D01*
X011494Y024058D01*
X011494Y024116D02*
X011712Y024116D01*
X011494Y024255D02*
X011494Y024315D01*
X011712Y024315D01*
X011712Y024255D01*
X011494Y024255D01*
X011494Y024313D02*
X011712Y024313D01*
X011494Y024451D02*
X011494Y024511D01*
X011712Y024511D01*
X011712Y024451D01*
X011494Y024451D01*
X011494Y024509D02*
X011712Y024509D01*
X011494Y024648D02*
X011494Y024708D01*
X011712Y024708D01*
X011712Y024648D01*
X011494Y024648D01*
X011494Y024706D02*
X011712Y024706D01*
X011494Y024845D02*
X011494Y024905D01*
X011712Y024905D01*
X011712Y024845D01*
X011494Y024845D01*
X011494Y024903D02*
X011712Y024903D01*
X011346Y024992D02*
X011346Y025210D01*
X011406Y025210D01*
X011406Y024992D01*
X011346Y024992D01*
X011346Y025050D02*
X011406Y025050D01*
X011406Y025108D02*
X011346Y025108D01*
X011346Y025166D02*
X011406Y025166D01*
X011150Y025210D02*
X011150Y024992D01*
X011150Y025210D02*
X011210Y025210D01*
X011210Y024992D01*
X011150Y024992D01*
X011150Y025050D02*
X011210Y025050D01*
X011210Y025108D02*
X011150Y025108D01*
X011150Y025166D02*
X011210Y025166D01*
X010953Y025210D02*
X010953Y024992D01*
X010953Y025210D02*
X011013Y025210D01*
X011013Y024992D01*
X010953Y024992D01*
X010953Y025050D02*
X011013Y025050D01*
X011013Y025108D02*
X010953Y025108D01*
X010953Y025166D02*
X011013Y025166D01*
X010756Y025210D02*
X010756Y024992D01*
X010756Y025210D02*
X010816Y025210D01*
X010816Y024992D01*
X010756Y024992D01*
X010756Y025050D02*
X010816Y025050D01*
X010816Y025108D02*
X010756Y025108D01*
X010756Y025166D02*
X010816Y025166D01*
X010559Y025210D02*
X010559Y024992D01*
X010559Y025210D02*
X010619Y025210D01*
X010619Y024992D01*
X010559Y024992D01*
X010559Y025050D02*
X010619Y025050D01*
X010619Y025108D02*
X010559Y025108D01*
X010559Y025166D02*
X010619Y025166D01*
X010362Y025210D02*
X010362Y024992D01*
X010362Y025210D02*
X010422Y025210D01*
X010422Y024992D01*
X010362Y024992D01*
X010362Y025050D02*
X010422Y025050D01*
X010422Y025108D02*
X010362Y025108D01*
X010362Y025166D02*
X010422Y025166D01*
X010165Y025210D02*
X010165Y024992D01*
X010165Y025210D02*
X010225Y025210D01*
X010225Y024992D01*
X010165Y024992D01*
X010165Y025050D02*
X010225Y025050D01*
X010225Y025108D02*
X010165Y025108D01*
X010165Y025166D02*
X010225Y025166D01*
X009968Y025210D02*
X009968Y024992D01*
X009968Y025210D02*
X010028Y025210D01*
X010028Y024992D01*
X009968Y024992D01*
X009968Y025050D02*
X010028Y025050D01*
X010028Y025108D02*
X009968Y025108D01*
X009968Y025166D02*
X010028Y025166D01*
X009772Y025210D02*
X009772Y024992D01*
X009772Y025210D02*
X009832Y025210D01*
X009832Y024992D01*
X009772Y024992D01*
X009772Y025050D02*
X009832Y025050D01*
X009832Y025108D02*
X009772Y025108D01*
X009772Y025166D02*
X009832Y025166D01*
X009575Y025210D02*
X009575Y024992D01*
X009575Y025210D02*
X009635Y025210D01*
X009635Y024992D01*
X009575Y024992D01*
X009575Y025050D02*
X009635Y025050D01*
X009635Y025108D02*
X009575Y025108D01*
X009575Y025166D02*
X009635Y025166D01*
X009378Y025210D02*
X009378Y024992D01*
X009378Y025210D02*
X009438Y025210D01*
X009438Y024992D01*
X009378Y024992D01*
X009378Y025050D02*
X009438Y025050D01*
X009438Y025108D02*
X009378Y025108D01*
X009378Y025166D02*
X009438Y025166D01*
X009181Y025210D02*
X009181Y024992D01*
X009181Y025210D02*
X009241Y025210D01*
X009241Y024992D01*
X009181Y024992D01*
X009181Y025050D02*
X009241Y025050D01*
X009241Y025108D02*
X009181Y025108D01*
X009181Y025166D02*
X009241Y025166D01*
X008984Y025210D02*
X008984Y024992D01*
X008984Y025210D02*
X009044Y025210D01*
X009044Y024992D01*
X008984Y024992D01*
X008984Y025050D02*
X009044Y025050D01*
X009044Y025108D02*
X008984Y025108D01*
X008984Y025166D02*
X009044Y025166D01*
X008787Y025210D02*
X008787Y024992D01*
X008787Y025210D02*
X008847Y025210D01*
X008847Y024992D01*
X008787Y024992D01*
X008787Y025050D02*
X008847Y025050D01*
X008847Y025108D02*
X008787Y025108D01*
X008787Y025166D02*
X008847Y025166D01*
X008590Y025210D02*
X008590Y024992D01*
X008590Y025210D02*
X008650Y025210D01*
X008650Y024992D01*
X008590Y024992D01*
X008590Y025050D02*
X008650Y025050D01*
X008650Y025108D02*
X008590Y025108D01*
X008590Y025166D02*
X008650Y025166D01*
X008394Y025210D02*
X008394Y024992D01*
X008394Y025210D02*
X008454Y025210D01*
X008454Y024992D01*
X008394Y024992D01*
X008394Y025050D02*
X008454Y025050D01*
X008454Y025108D02*
X008394Y025108D01*
X008394Y025166D02*
X008454Y025166D01*
X008088Y024905D02*
X008088Y024845D01*
X008088Y024905D02*
X008306Y024905D01*
X008306Y024845D01*
X008088Y024845D01*
X008088Y024903D02*
X008306Y024903D01*
X008088Y024708D02*
X008088Y024648D01*
X008088Y024708D02*
X008306Y024708D01*
X008306Y024648D01*
X008088Y024648D01*
X008088Y024706D02*
X008306Y024706D01*
X008088Y024511D02*
X008088Y024451D01*
X008088Y024511D02*
X008306Y024511D01*
X008306Y024451D01*
X008088Y024451D01*
X008088Y024509D02*
X008306Y024509D01*
X008088Y024315D02*
X008088Y024255D01*
X008088Y024315D02*
X008306Y024315D01*
X008306Y024255D01*
X008088Y024255D01*
X008088Y024313D02*
X008306Y024313D01*
X008088Y024118D02*
X008088Y024058D01*
X008088Y024118D02*
X008306Y024118D01*
X008306Y024058D01*
X008088Y024058D01*
X008088Y024116D02*
X008306Y024116D01*
X008088Y023921D02*
X008088Y023861D01*
X008088Y023921D02*
X008306Y023921D01*
X008306Y023861D01*
X008088Y023861D01*
X008088Y023919D02*
X008306Y023919D01*
X008088Y023724D02*
X008088Y023664D01*
X008088Y023724D02*
X008306Y023724D01*
X008306Y023664D01*
X008088Y023664D01*
X008088Y023722D02*
X008306Y023722D01*
X008088Y023527D02*
X008088Y023467D01*
X008088Y023527D02*
X008306Y023527D01*
X008306Y023467D01*
X008088Y023467D01*
X008088Y023525D02*
X008306Y023525D01*
X008088Y023330D02*
X008088Y023270D01*
X008088Y023330D02*
X008306Y023330D01*
X008306Y023270D01*
X008088Y023270D01*
X008088Y023328D02*
X008306Y023328D01*
X008088Y023133D02*
X008088Y023073D01*
X008088Y023133D02*
X008306Y023133D01*
X008306Y023073D01*
X008088Y023073D01*
X008088Y023131D02*
X008306Y023131D01*
X008088Y022937D02*
X008088Y022877D01*
X008088Y022937D02*
X008306Y022937D01*
X008306Y022877D01*
X008088Y022877D01*
X008088Y022935D02*
X008306Y022935D01*
X008088Y022740D02*
X008088Y022680D01*
X008088Y022740D02*
X008306Y022740D01*
X008306Y022680D01*
X008088Y022680D01*
X008088Y022738D02*
X008306Y022738D01*
X008088Y022543D02*
X008088Y022483D01*
X008088Y022543D02*
X008306Y022543D01*
X008306Y022483D01*
X008088Y022483D01*
X008088Y022541D02*
X008306Y022541D01*
X008088Y022346D02*
X008088Y022286D01*
X008088Y022346D02*
X008306Y022346D01*
X008306Y022286D01*
X008088Y022286D01*
X008088Y022344D02*
X008306Y022344D01*
X008088Y022149D02*
X008088Y022089D01*
X008088Y022149D02*
X008306Y022149D01*
X008306Y022089D01*
X008088Y022089D01*
X008088Y022147D02*
X008306Y022147D01*
X008088Y021952D02*
X008088Y021892D01*
X008088Y021952D02*
X008306Y021952D01*
X008306Y021892D01*
X008088Y021892D01*
X008088Y021950D02*
X008306Y021950D01*
D12*
X009113Y022611D03*
X009113Y023399D03*
X009900Y023399D03*
X009900Y022611D03*
X010687Y022611D03*
X010687Y023399D03*
X010687Y024186D03*
X009900Y024186D03*
X009113Y024186D03*
D13*
G36*
X006819Y023376D02*
X007110Y023667D01*
X007409Y023368D01*
X007118Y023077D01*
X006819Y023376D01*
G37*
G36*
X006479Y023866D02*
X006770Y024157D01*
X007069Y023858D01*
X006778Y023567D01*
X006479Y023866D01*
G37*
G36*
X005991Y023379D02*
X006282Y023670D01*
X006581Y023371D01*
X006290Y023080D01*
X005991Y023379D01*
G37*
G36*
X006331Y022889D02*
X006622Y023180D01*
X006921Y022881D01*
X006630Y022590D01*
X006331Y022889D01*
G37*
X010556Y015599D03*
X011244Y015599D03*
X014306Y019899D03*
X014994Y019899D03*
X014294Y022149D03*
X013606Y022149D03*
X013556Y024449D03*
X014244Y024449D03*
X014264Y010189D03*
X013576Y010189D03*
X012514Y007829D03*
X012514Y007249D03*
X011826Y007249D03*
X011826Y007829D03*
D14*
X011574Y018249D03*
X011574Y018749D03*
X011574Y019249D03*
X011574Y019749D03*
X009093Y019749D03*
X009093Y019249D03*
X009093Y018749D03*
X009093Y018249D03*
D15*
X008100Y018054D03*
X008100Y018743D03*
X009850Y014693D03*
X009850Y014004D03*
X013150Y009613D03*
X013150Y008924D03*
X012190Y008644D03*
X012190Y009333D03*
X011230Y008813D03*
X011230Y008124D03*
X012650Y021654D03*
X012650Y022343D03*
X012550Y023754D03*
X012550Y024443D03*
X009100Y026354D03*
X009100Y027043D03*
X006740Y025643D03*
X006740Y024954D03*
X006180Y025193D03*
X006180Y024504D03*
D16*
X008565Y013849D03*
X009235Y013849D03*
X013115Y011189D03*
X013785Y011189D03*
X014115Y009599D03*
X014785Y009599D03*
X015365Y009599D03*
X016035Y009599D03*
D17*
X013200Y007183D03*
X013200Y006514D03*
X008000Y011064D03*
X007350Y011064D03*
X007350Y011733D03*
X008000Y011733D03*
X006700Y011733D03*
X006700Y011064D03*
D18*
X004187Y007199D03*
X004187Y007999D03*
X004187Y008799D03*
X005013Y008799D03*
X005013Y007999D03*
X005013Y007199D03*
D19*
X009728Y025937D03*
X009728Y026192D03*
X009728Y026448D03*
X010180Y026448D03*
X010180Y026192D03*
X010180Y025937D03*
D20*
X011596Y012559D03*
X012384Y012559D03*
X009444Y010899D03*
X008656Y010899D03*
D21*
X014285Y008785D03*
X014285Y007013D03*
X017415Y007013D03*
X017415Y008785D03*
D22*
X008787Y014391D03*
X008787Y015139D03*
X007921Y014765D03*
D23*
X010970Y006140D03*
X011285Y006140D03*
X011600Y006140D03*
X011915Y006140D03*
X012230Y006140D03*
D24*
X013175Y005313D03*
X010025Y005313D03*
D25*
X011210Y009889D03*
X011400Y009889D03*
X011600Y009889D03*
X011800Y009889D03*
X012000Y009889D03*
X012190Y009889D03*
X012190Y011448D03*
X012000Y011448D03*
X011800Y011448D03*
X011600Y011448D03*
X011400Y011448D03*
X011210Y011448D03*
D26*
X010921Y011159D03*
X010921Y010969D03*
X010921Y010769D03*
X010921Y010569D03*
X010921Y010369D03*
X010921Y010179D03*
X012479Y010179D03*
X012479Y010369D03*
X012479Y010569D03*
X012479Y010769D03*
X012479Y010969D03*
X012479Y011159D03*
D27*
X011700Y010669D03*
D28*
X010560Y009242D03*
X010560Y008455D03*
D29*
X007440Y024667D03*
X007440Y025651D03*
D30*
X013635Y023732D03*
X014265Y023732D03*
X014265Y022866D03*
X013635Y022866D03*
M02*
