G75*
G70*
%OFA0B0*%
%FSLAX24Y24*%
%IPPOS*%
%LPD*%
%AMOC8*
5,1,8,0,0,1.08239X$1,22.5*
%
%ADD10C,0.1330*%
%ADD11C,0.0860*%
%ADD12C,0.0940*%
%ADD13C,0.0600*%
%ADD14C,0.0680*%
%ADD15C,0.0560*%
%ADD16C,0.0640*%
%ADD17C,0.0370*%
D10*
X004800Y005499D03*
X017000Y005499D03*
X017000Y027649D03*
X004800Y027649D03*
D11*
X007270Y009330D02*
X008130Y009330D01*
X009590Y008579D02*
X009590Y007719D01*
X008130Y006968D02*
X007270Y006968D01*
D12*
X008130Y006968D01*
X009590Y007719D02*
X009590Y008579D01*
X008130Y009330D02*
X007270Y009330D01*
D13*
X005200Y010499D02*
X004600Y010499D01*
X004600Y011499D02*
X005200Y011499D01*
X005200Y012499D02*
X004600Y012499D01*
X004600Y013499D02*
X005200Y013499D01*
X005200Y014499D02*
X004600Y014499D01*
X004600Y015499D02*
X005200Y015499D01*
X005200Y016499D02*
X004600Y016499D01*
X004600Y017499D02*
X005200Y017499D01*
X005200Y018499D02*
X004600Y018499D01*
X004600Y019499D02*
X005200Y019499D01*
X005200Y020499D02*
X004600Y020499D01*
X004600Y021499D02*
X005200Y021499D01*
X005200Y022499D02*
X004600Y022499D01*
X004600Y023499D02*
X005200Y023499D01*
X005200Y024499D02*
X004600Y024499D01*
X004600Y025499D02*
X005200Y025499D01*
X016600Y025499D02*
X017200Y025499D01*
X017200Y024499D02*
X016600Y024499D01*
X016600Y023499D02*
X017200Y023499D01*
X017200Y022499D02*
X016600Y022499D01*
X016600Y021499D02*
X017200Y021499D01*
X017200Y020499D02*
X016600Y020499D01*
X016600Y019499D02*
X017200Y019499D01*
X017200Y018499D02*
X016600Y018499D01*
X016600Y017499D02*
X017200Y017499D01*
X017200Y016499D02*
X016600Y016499D01*
X016600Y015499D02*
X017200Y015499D01*
X017200Y014499D02*
X016600Y014499D01*
X016600Y013499D02*
X017200Y013499D01*
X017200Y012499D02*
X016600Y012499D01*
X016600Y011499D02*
X017200Y011499D01*
X017200Y010499D02*
X016600Y010499D01*
D14*
X017200Y010499D01*
X017200Y011499D02*
X016600Y011499D01*
X016600Y012499D02*
X017200Y012499D01*
X017200Y013499D02*
X016600Y013499D01*
X016600Y014499D02*
X017200Y014499D01*
X017200Y015499D02*
X016600Y015499D01*
X016600Y016499D02*
X017200Y016499D01*
X017200Y017499D02*
X016600Y017499D01*
X016600Y018499D02*
X017200Y018499D01*
X017200Y019499D02*
X016600Y019499D01*
X016600Y020499D02*
X017200Y020499D01*
X017200Y021499D02*
X016600Y021499D01*
X016600Y022499D02*
X017200Y022499D01*
X017200Y023499D02*
X016600Y023499D01*
X016600Y024499D02*
X017200Y024499D01*
X017200Y025499D02*
X016600Y025499D01*
X005200Y025499D02*
X004600Y025499D01*
X004600Y024499D02*
X005200Y024499D01*
X005200Y023499D02*
X004600Y023499D01*
X004600Y022499D02*
X005200Y022499D01*
X005200Y021499D02*
X004600Y021499D01*
X004600Y020499D02*
X005200Y020499D01*
X005200Y019499D02*
X004600Y019499D01*
X004600Y018499D02*
X005200Y018499D01*
X005200Y017499D02*
X004600Y017499D01*
X004600Y016499D02*
X005200Y016499D01*
X005200Y015499D02*
X004600Y015499D01*
X004600Y014499D02*
X005200Y014499D01*
X005200Y013499D02*
X004600Y013499D01*
X004600Y012499D02*
X005200Y012499D01*
X005200Y011499D02*
X004600Y011499D01*
X004600Y010499D02*
X005200Y010499D01*
D15*
X014250Y005429D02*
X014250Y004869D01*
X015250Y004869D02*
X015250Y005429D01*
D16*
X015250Y004869D01*
X014250Y004869D02*
X014250Y005429D01*
D17*
X013900Y006479D03*
X013150Y007849D03*
X012650Y008329D03*
X012670Y009539D03*
X013100Y010199D03*
X013550Y010679D03*
X014270Y010709D03*
X013650Y009589D03*
X014400Y007979D03*
X015190Y008589D03*
X015700Y007379D03*
X015150Y006629D03*
X017000Y007979D03*
X016750Y009729D03*
X015400Y010879D03*
X016050Y012999D03*
X016200Y013949D03*
X016250Y014999D03*
X016250Y015949D03*
X015450Y017279D03*
X014650Y017729D03*
X013950Y018479D03*
X013950Y019329D03*
X014750Y019379D03*
X014950Y018729D03*
X016150Y018999D03*
X016200Y019949D03*
X016200Y020999D03*
X016200Y021999D03*
X016300Y022999D03*
X017700Y022949D03*
X017700Y023949D03*
X017700Y024949D03*
X017700Y025899D03*
X015400Y027059D03*
X014900Y027059D03*
X014400Y027059D03*
X013900Y027059D03*
X013400Y027059D03*
X012900Y027059D03*
X012400Y027059D03*
X011900Y027059D03*
X011400Y027059D03*
X010900Y027059D03*
X010600Y026459D03*
X010900Y024441D03*
X012050Y023849D03*
X012550Y022829D03*
X012120Y022569D03*
X011490Y021289D03*
X010650Y020849D03*
X010310Y021149D03*
X010900Y022356D03*
X008907Y022356D03*
X008100Y021349D03*
X008100Y020849D03*
X008630Y020739D03*
X007700Y020049D03*
X007150Y020499D03*
X007300Y019449D03*
X007600Y018049D03*
X008200Y016949D03*
X008650Y015629D03*
X009400Y015649D03*
X009850Y015229D03*
X011210Y016089D03*
X011870Y015489D03*
X011430Y014219D03*
X012160Y013279D03*
X013080Y012479D03*
X012570Y011829D03*
X011700Y010679D03*
X011250Y009379D03*
X010350Y009899D03*
X009600Y009429D03*
X009100Y010079D03*
X008650Y008379D03*
X007300Y008379D03*
X006750Y008849D03*
X005600Y006729D03*
X006350Y004999D03*
X007200Y005329D03*
X008600Y005279D03*
X009800Y006729D03*
X011020Y006789D03*
X011600Y006689D03*
X012680Y006349D03*
X007900Y012249D03*
X007250Y012249D03*
X006550Y012249D03*
X006750Y013399D03*
X006967Y014371D03*
X007200Y015649D03*
X006700Y016299D03*
X006550Y017199D03*
X006150Y017849D03*
X005750Y016999D03*
X005550Y015999D03*
X005600Y014949D03*
X005550Y013949D03*
X005550Y012999D03*
X004150Y009879D03*
X009750Y016829D03*
X010690Y017089D03*
X011000Y017799D03*
X011950Y017799D03*
X012060Y016959D03*
X013050Y016249D03*
X013500Y016799D03*
X013750Y017549D03*
X014650Y016649D03*
X014350Y015949D03*
X014050Y015249D03*
X013080Y014339D03*
X014320Y013049D03*
X017700Y018949D03*
X017700Y019949D03*
X017700Y020949D03*
X017700Y021949D03*
X014800Y022879D03*
X013600Y021629D03*
X013130Y021379D03*
X013950Y020729D03*
X014750Y020379D03*
X014750Y024429D03*
X013050Y024479D03*
X008829Y024441D03*
X007750Y023649D03*
X006250Y022539D03*
X005600Y021949D03*
X006000Y023759D03*
X006230Y025669D03*
X006300Y027109D03*
X006800Y027109D03*
X007300Y027109D03*
X007800Y027109D03*
X008450Y027109D03*
X010850Y019799D03*
M02*
