G75*
G70*
%OFA0B0*%
%FSLAX24Y24*%
%IPPOS*%
%LPD*%
%AMOC8*
5,1,8,0,0,1.08239X$1,22.5*
%
%ADD10R,0.0394X0.0551*%
%ADD11C,0.0059*%
%ADD12R,0.2362X0.2362*%
%ADD13R,0.0413X0.0425*%
%ADD14R,0.0866X0.0236*%
%ADD15R,0.0425X0.0413*%
%ADD16R,0.0394X0.0433*%
%ADD17R,0.0433X0.0394*%
%ADD18R,0.0472X0.0472*%
%ADD19R,0.0236X0.0157*%
%ADD20R,0.0858X0.0508*%
%ADD21R,0.1890X0.0508*%
%ADD22R,0.1260X0.0508*%
%ADD23R,0.1260X0.0476*%
%ADD24R,0.0858X0.1051*%
%ADD25R,0.0472X0.0709*%
%ADD26R,0.3142X0.0394*%
%ADD27R,0.0394X0.0291*%
%ADD28R,0.6457X0.0476*%
%ADD29R,0.3614X0.0476*%
%ADD30R,0.0181X0.0799*%
%ADD31R,0.0181X0.0469*%
%ADD32R,0.0094X0.0094*%
%ADD33C,0.0000*%
%ADD34C,0.0001*%
%ADD35C,0.0860*%
%ADD36R,0.0512X0.0630*%
%ADD37R,0.1000X0.0500*%
%ADD38C,0.0600*%
%ADD39R,0.0551X0.0394*%
%ADD40C,0.0500*%
%ADD41C,0.0560*%
%ADD42R,0.0197X0.0551*%
%ADD43R,0.0787X0.1496*%
%ADD44R,0.0120X0.0320*%
%ADD45R,0.0320X0.0120*%
%ADD46R,0.1100X0.1100*%
%ADD47R,0.0630X0.0512*%
%ADD48R,0.0709X0.0394*%
%ADD49R,0.0453X0.0551*%
%ADD50C,0.0100*%
%ADD51C,0.0160*%
%ADD52C,0.0290*%
%ADD53C,0.0200*%
%ADD54C,0.0400*%
%ADD55C,0.0240*%
%ADD56C,0.0500*%
%ADD57C,0.0080*%
%ADD58C,0.0180*%
D10*
X009450Y011716D03*
X009076Y012582D03*
X009824Y012582D03*
X010900Y014016D03*
X010526Y014882D03*
X011274Y014882D03*
X008024Y013166D03*
X007650Y014032D03*
X007276Y013166D03*
D11*
X008394Y021587D02*
X008394Y021805D01*
X008454Y021805D01*
X008454Y021587D01*
X008394Y021587D01*
X008394Y021645D02*
X008454Y021645D01*
X008454Y021703D02*
X008394Y021703D01*
X008394Y021761D02*
X008454Y021761D01*
X008590Y021805D02*
X008590Y021587D01*
X008590Y021805D02*
X008650Y021805D01*
X008650Y021587D01*
X008590Y021587D01*
X008590Y021645D02*
X008650Y021645D01*
X008650Y021703D02*
X008590Y021703D01*
X008590Y021761D02*
X008650Y021761D01*
X008787Y021805D02*
X008787Y021587D01*
X008787Y021805D02*
X008847Y021805D01*
X008847Y021587D01*
X008787Y021587D01*
X008787Y021645D02*
X008847Y021645D01*
X008847Y021703D02*
X008787Y021703D01*
X008787Y021761D02*
X008847Y021761D01*
X008984Y021805D02*
X008984Y021587D01*
X008984Y021805D02*
X009044Y021805D01*
X009044Y021587D01*
X008984Y021587D01*
X008984Y021645D02*
X009044Y021645D01*
X009044Y021703D02*
X008984Y021703D01*
X008984Y021761D02*
X009044Y021761D01*
X009181Y021805D02*
X009181Y021587D01*
X009181Y021805D02*
X009241Y021805D01*
X009241Y021587D01*
X009181Y021587D01*
X009181Y021645D02*
X009241Y021645D01*
X009241Y021703D02*
X009181Y021703D01*
X009181Y021761D02*
X009241Y021761D01*
X009378Y021805D02*
X009378Y021587D01*
X009378Y021805D02*
X009438Y021805D01*
X009438Y021587D01*
X009378Y021587D01*
X009378Y021645D02*
X009438Y021645D01*
X009438Y021703D02*
X009378Y021703D01*
X009378Y021761D02*
X009438Y021761D01*
X009575Y021805D02*
X009575Y021587D01*
X009575Y021805D02*
X009635Y021805D01*
X009635Y021587D01*
X009575Y021587D01*
X009575Y021645D02*
X009635Y021645D01*
X009635Y021703D02*
X009575Y021703D01*
X009575Y021761D02*
X009635Y021761D01*
X009772Y021805D02*
X009772Y021587D01*
X009772Y021805D02*
X009832Y021805D01*
X009832Y021587D01*
X009772Y021587D01*
X009772Y021645D02*
X009832Y021645D01*
X009832Y021703D02*
X009772Y021703D01*
X009772Y021761D02*
X009832Y021761D01*
X009968Y021805D02*
X009968Y021587D01*
X009968Y021805D02*
X010028Y021805D01*
X010028Y021587D01*
X009968Y021587D01*
X009968Y021645D02*
X010028Y021645D01*
X010028Y021703D02*
X009968Y021703D01*
X009968Y021761D02*
X010028Y021761D01*
X010165Y021805D02*
X010165Y021587D01*
X010165Y021805D02*
X010225Y021805D01*
X010225Y021587D01*
X010165Y021587D01*
X010165Y021645D02*
X010225Y021645D01*
X010225Y021703D02*
X010165Y021703D01*
X010165Y021761D02*
X010225Y021761D01*
X010362Y021805D02*
X010362Y021587D01*
X010362Y021805D02*
X010422Y021805D01*
X010422Y021587D01*
X010362Y021587D01*
X010362Y021645D02*
X010422Y021645D01*
X010422Y021703D02*
X010362Y021703D01*
X010362Y021761D02*
X010422Y021761D01*
X010559Y021805D02*
X010559Y021587D01*
X010559Y021805D02*
X010619Y021805D01*
X010619Y021587D01*
X010559Y021587D01*
X010559Y021645D02*
X010619Y021645D01*
X010619Y021703D02*
X010559Y021703D01*
X010559Y021761D02*
X010619Y021761D01*
X010756Y021805D02*
X010756Y021587D01*
X010756Y021805D02*
X010816Y021805D01*
X010816Y021587D01*
X010756Y021587D01*
X010756Y021645D02*
X010816Y021645D01*
X010816Y021703D02*
X010756Y021703D01*
X010756Y021761D02*
X010816Y021761D01*
X010953Y021805D02*
X010953Y021587D01*
X010953Y021805D02*
X011013Y021805D01*
X011013Y021587D01*
X010953Y021587D01*
X010953Y021645D02*
X011013Y021645D01*
X011013Y021703D02*
X010953Y021703D01*
X010953Y021761D02*
X011013Y021761D01*
X011150Y021805D02*
X011150Y021587D01*
X011150Y021805D02*
X011210Y021805D01*
X011210Y021587D01*
X011150Y021587D01*
X011150Y021645D02*
X011210Y021645D01*
X011210Y021703D02*
X011150Y021703D01*
X011150Y021761D02*
X011210Y021761D01*
X011346Y021805D02*
X011346Y021587D01*
X011346Y021805D02*
X011406Y021805D01*
X011406Y021587D01*
X011346Y021587D01*
X011346Y021645D02*
X011406Y021645D01*
X011406Y021703D02*
X011346Y021703D01*
X011346Y021761D02*
X011406Y021761D01*
X011494Y021892D02*
X011494Y021952D01*
X011712Y021952D01*
X011712Y021892D01*
X011494Y021892D01*
X011494Y021950D02*
X011712Y021950D01*
X011494Y022089D02*
X011494Y022149D01*
X011712Y022149D01*
X011712Y022089D01*
X011494Y022089D01*
X011494Y022147D02*
X011712Y022147D01*
X011494Y022286D02*
X011494Y022346D01*
X011712Y022346D01*
X011712Y022286D01*
X011494Y022286D01*
X011494Y022344D02*
X011712Y022344D01*
X011494Y022483D02*
X011494Y022543D01*
X011712Y022543D01*
X011712Y022483D01*
X011494Y022483D01*
X011494Y022541D02*
X011712Y022541D01*
X011494Y022680D02*
X011494Y022740D01*
X011712Y022740D01*
X011712Y022680D01*
X011494Y022680D01*
X011494Y022738D02*
X011712Y022738D01*
X011494Y022877D02*
X011494Y022937D01*
X011712Y022937D01*
X011712Y022877D01*
X011494Y022877D01*
X011494Y022935D02*
X011712Y022935D01*
X011494Y023073D02*
X011494Y023133D01*
X011712Y023133D01*
X011712Y023073D01*
X011494Y023073D01*
X011494Y023131D02*
X011712Y023131D01*
X011494Y023270D02*
X011494Y023330D01*
X011712Y023330D01*
X011712Y023270D01*
X011494Y023270D01*
X011494Y023328D02*
X011712Y023328D01*
X011494Y023467D02*
X011494Y023527D01*
X011712Y023527D01*
X011712Y023467D01*
X011494Y023467D01*
X011494Y023525D02*
X011712Y023525D01*
X011494Y023664D02*
X011494Y023724D01*
X011712Y023724D01*
X011712Y023664D01*
X011494Y023664D01*
X011494Y023722D02*
X011712Y023722D01*
X011494Y023861D02*
X011494Y023921D01*
X011712Y023921D01*
X011712Y023861D01*
X011494Y023861D01*
X011494Y023919D02*
X011712Y023919D01*
X011494Y024058D02*
X011494Y024118D01*
X011712Y024118D01*
X011712Y024058D01*
X011494Y024058D01*
X011494Y024116D02*
X011712Y024116D01*
X011494Y024255D02*
X011494Y024315D01*
X011712Y024315D01*
X011712Y024255D01*
X011494Y024255D01*
X011494Y024313D02*
X011712Y024313D01*
X011494Y024451D02*
X011494Y024511D01*
X011712Y024511D01*
X011712Y024451D01*
X011494Y024451D01*
X011494Y024509D02*
X011712Y024509D01*
X011494Y024648D02*
X011494Y024708D01*
X011712Y024708D01*
X011712Y024648D01*
X011494Y024648D01*
X011494Y024706D02*
X011712Y024706D01*
X011494Y024845D02*
X011494Y024905D01*
X011712Y024905D01*
X011712Y024845D01*
X011494Y024845D01*
X011494Y024903D02*
X011712Y024903D01*
X011346Y024992D02*
X011346Y025210D01*
X011406Y025210D01*
X011406Y024992D01*
X011346Y024992D01*
X011346Y025050D02*
X011406Y025050D01*
X011406Y025108D02*
X011346Y025108D01*
X011346Y025166D02*
X011406Y025166D01*
X011150Y025210D02*
X011150Y024992D01*
X011150Y025210D02*
X011210Y025210D01*
X011210Y024992D01*
X011150Y024992D01*
X011150Y025050D02*
X011210Y025050D01*
X011210Y025108D02*
X011150Y025108D01*
X011150Y025166D02*
X011210Y025166D01*
X010953Y025210D02*
X010953Y024992D01*
X010953Y025210D02*
X011013Y025210D01*
X011013Y024992D01*
X010953Y024992D01*
X010953Y025050D02*
X011013Y025050D01*
X011013Y025108D02*
X010953Y025108D01*
X010953Y025166D02*
X011013Y025166D01*
X010756Y025210D02*
X010756Y024992D01*
X010756Y025210D02*
X010816Y025210D01*
X010816Y024992D01*
X010756Y024992D01*
X010756Y025050D02*
X010816Y025050D01*
X010816Y025108D02*
X010756Y025108D01*
X010756Y025166D02*
X010816Y025166D01*
X010559Y025210D02*
X010559Y024992D01*
X010559Y025210D02*
X010619Y025210D01*
X010619Y024992D01*
X010559Y024992D01*
X010559Y025050D02*
X010619Y025050D01*
X010619Y025108D02*
X010559Y025108D01*
X010559Y025166D02*
X010619Y025166D01*
X010362Y025210D02*
X010362Y024992D01*
X010362Y025210D02*
X010422Y025210D01*
X010422Y024992D01*
X010362Y024992D01*
X010362Y025050D02*
X010422Y025050D01*
X010422Y025108D02*
X010362Y025108D01*
X010362Y025166D02*
X010422Y025166D01*
X010165Y025210D02*
X010165Y024992D01*
X010165Y025210D02*
X010225Y025210D01*
X010225Y024992D01*
X010165Y024992D01*
X010165Y025050D02*
X010225Y025050D01*
X010225Y025108D02*
X010165Y025108D01*
X010165Y025166D02*
X010225Y025166D01*
X009968Y025210D02*
X009968Y024992D01*
X009968Y025210D02*
X010028Y025210D01*
X010028Y024992D01*
X009968Y024992D01*
X009968Y025050D02*
X010028Y025050D01*
X010028Y025108D02*
X009968Y025108D01*
X009968Y025166D02*
X010028Y025166D01*
X009772Y025210D02*
X009772Y024992D01*
X009772Y025210D02*
X009832Y025210D01*
X009832Y024992D01*
X009772Y024992D01*
X009772Y025050D02*
X009832Y025050D01*
X009832Y025108D02*
X009772Y025108D01*
X009772Y025166D02*
X009832Y025166D01*
X009575Y025210D02*
X009575Y024992D01*
X009575Y025210D02*
X009635Y025210D01*
X009635Y024992D01*
X009575Y024992D01*
X009575Y025050D02*
X009635Y025050D01*
X009635Y025108D02*
X009575Y025108D01*
X009575Y025166D02*
X009635Y025166D01*
X009378Y025210D02*
X009378Y024992D01*
X009378Y025210D02*
X009438Y025210D01*
X009438Y024992D01*
X009378Y024992D01*
X009378Y025050D02*
X009438Y025050D01*
X009438Y025108D02*
X009378Y025108D01*
X009378Y025166D02*
X009438Y025166D01*
X009181Y025210D02*
X009181Y024992D01*
X009181Y025210D02*
X009241Y025210D01*
X009241Y024992D01*
X009181Y024992D01*
X009181Y025050D02*
X009241Y025050D01*
X009241Y025108D02*
X009181Y025108D01*
X009181Y025166D02*
X009241Y025166D01*
X008984Y025210D02*
X008984Y024992D01*
X008984Y025210D02*
X009044Y025210D01*
X009044Y024992D01*
X008984Y024992D01*
X008984Y025050D02*
X009044Y025050D01*
X009044Y025108D02*
X008984Y025108D01*
X008984Y025166D02*
X009044Y025166D01*
X008787Y025210D02*
X008787Y024992D01*
X008787Y025210D02*
X008847Y025210D01*
X008847Y024992D01*
X008787Y024992D01*
X008787Y025050D02*
X008847Y025050D01*
X008847Y025108D02*
X008787Y025108D01*
X008787Y025166D02*
X008847Y025166D01*
X008590Y025210D02*
X008590Y024992D01*
X008590Y025210D02*
X008650Y025210D01*
X008650Y024992D01*
X008590Y024992D01*
X008590Y025050D02*
X008650Y025050D01*
X008650Y025108D02*
X008590Y025108D01*
X008590Y025166D02*
X008650Y025166D01*
X008394Y025210D02*
X008394Y024992D01*
X008394Y025210D02*
X008454Y025210D01*
X008454Y024992D01*
X008394Y024992D01*
X008394Y025050D02*
X008454Y025050D01*
X008454Y025108D02*
X008394Y025108D01*
X008394Y025166D02*
X008454Y025166D01*
X008088Y024905D02*
X008088Y024845D01*
X008088Y024905D02*
X008306Y024905D01*
X008306Y024845D01*
X008088Y024845D01*
X008088Y024903D02*
X008306Y024903D01*
X008088Y024708D02*
X008088Y024648D01*
X008088Y024708D02*
X008306Y024708D01*
X008306Y024648D01*
X008088Y024648D01*
X008088Y024706D02*
X008306Y024706D01*
X008088Y024511D02*
X008088Y024451D01*
X008088Y024511D02*
X008306Y024511D01*
X008306Y024451D01*
X008088Y024451D01*
X008088Y024509D02*
X008306Y024509D01*
X008088Y024315D02*
X008088Y024255D01*
X008088Y024315D02*
X008306Y024315D01*
X008306Y024255D01*
X008088Y024255D01*
X008088Y024313D02*
X008306Y024313D01*
X008088Y024118D02*
X008088Y024058D01*
X008088Y024118D02*
X008306Y024118D01*
X008306Y024058D01*
X008088Y024058D01*
X008088Y024116D02*
X008306Y024116D01*
X008088Y023921D02*
X008088Y023861D01*
X008088Y023921D02*
X008306Y023921D01*
X008306Y023861D01*
X008088Y023861D01*
X008088Y023919D02*
X008306Y023919D01*
X008088Y023724D02*
X008088Y023664D01*
X008088Y023724D02*
X008306Y023724D01*
X008306Y023664D01*
X008088Y023664D01*
X008088Y023722D02*
X008306Y023722D01*
X008088Y023527D02*
X008088Y023467D01*
X008088Y023527D02*
X008306Y023527D01*
X008306Y023467D01*
X008088Y023467D01*
X008088Y023525D02*
X008306Y023525D01*
X008088Y023330D02*
X008088Y023270D01*
X008088Y023330D02*
X008306Y023330D01*
X008306Y023270D01*
X008088Y023270D01*
X008088Y023328D02*
X008306Y023328D01*
X008088Y023133D02*
X008088Y023073D01*
X008088Y023133D02*
X008306Y023133D01*
X008306Y023073D01*
X008088Y023073D01*
X008088Y023131D02*
X008306Y023131D01*
X008088Y022937D02*
X008088Y022877D01*
X008088Y022937D02*
X008306Y022937D01*
X008306Y022877D01*
X008088Y022877D01*
X008088Y022935D02*
X008306Y022935D01*
X008088Y022740D02*
X008088Y022680D01*
X008088Y022740D02*
X008306Y022740D01*
X008306Y022680D01*
X008088Y022680D01*
X008088Y022738D02*
X008306Y022738D01*
X008088Y022543D02*
X008088Y022483D01*
X008088Y022543D02*
X008306Y022543D01*
X008306Y022483D01*
X008088Y022483D01*
X008088Y022541D02*
X008306Y022541D01*
X008088Y022346D02*
X008088Y022286D01*
X008088Y022346D02*
X008306Y022346D01*
X008306Y022286D01*
X008088Y022286D01*
X008088Y022344D02*
X008306Y022344D01*
X008088Y022149D02*
X008088Y022089D01*
X008088Y022149D02*
X008306Y022149D01*
X008306Y022089D01*
X008088Y022089D01*
X008088Y022147D02*
X008306Y022147D01*
X008088Y021952D02*
X008088Y021892D01*
X008088Y021952D02*
X008306Y021952D01*
X008306Y021892D01*
X008088Y021892D01*
X008088Y021950D02*
X008306Y021950D01*
D12*
X009900Y023399D03*
D13*
G36*
X006819Y023376D02*
X007110Y023667D01*
X007409Y023368D01*
X007118Y023077D01*
X006819Y023376D01*
G37*
G36*
X006479Y023866D02*
X006770Y024157D01*
X007069Y023858D01*
X006778Y023567D01*
X006479Y023866D01*
G37*
G36*
X005991Y023379D02*
X006282Y023670D01*
X006581Y023371D01*
X006290Y023080D01*
X005991Y023379D01*
G37*
G36*
X006331Y022889D02*
X006622Y023180D01*
X006921Y022881D01*
X006630Y022590D01*
X006331Y022889D01*
G37*
X010556Y015599D03*
X011244Y015599D03*
X014306Y019899D03*
X014994Y019899D03*
X014294Y022149D03*
X013606Y022149D03*
X013556Y024449D03*
X014244Y024449D03*
X014264Y010189D03*
X013576Y010189D03*
X012514Y007829D03*
X012514Y007249D03*
X011826Y007249D03*
X011826Y007829D03*
D14*
X011574Y018249D03*
X011574Y018749D03*
X011574Y019249D03*
X011574Y019749D03*
X009093Y019749D03*
X009093Y019249D03*
X009093Y018749D03*
X009093Y018249D03*
D15*
X008100Y018054D03*
X008100Y018743D03*
X009850Y014693D03*
X009850Y014004D03*
X013150Y009613D03*
X013150Y008924D03*
X012190Y008644D03*
X012190Y009333D03*
X011230Y008813D03*
X011230Y008124D03*
X012650Y021654D03*
X012650Y022343D03*
X012550Y023754D03*
X012550Y024443D03*
X009100Y026354D03*
X009100Y027043D03*
X006740Y025643D03*
X006740Y024954D03*
X006180Y025193D03*
X006180Y024504D03*
D16*
X008565Y013849D03*
X009235Y013849D03*
X013115Y011189D03*
X013785Y011189D03*
X014115Y009599D03*
X014785Y009599D03*
X015365Y009599D03*
X016035Y009599D03*
D17*
X013200Y007183D03*
X013200Y006514D03*
X008000Y011064D03*
X007350Y011064D03*
X007350Y011733D03*
X008000Y011733D03*
X006700Y011733D03*
X006700Y011064D03*
D18*
X005013Y008799D03*
X005013Y007999D03*
X005013Y007199D03*
X004187Y007199D03*
X004187Y007999D03*
X004187Y008799D03*
D19*
X009728Y025937D03*
X009728Y026192D03*
X009728Y026448D03*
X010180Y026448D03*
X010180Y026192D03*
X010180Y025937D03*
D20*
X006529Y027894D03*
D21*
X007903Y027894D03*
D22*
X009478Y027894D03*
D23*
X009478Y028646D03*
D24*
X006529Y028674D03*
D25*
X009478Y029239D03*
D26*
X007671Y029396D03*
D27*
X009045Y027494D03*
X009911Y027494D03*
D28*
X012943Y029831D03*
D29*
X007907Y029831D03*
D30*
X010376Y027748D03*
D31*
G36*
X010459Y028313D02*
X010331Y028185D01*
X010001Y028515D01*
X010129Y028643D01*
X010459Y028313D01*
G37*
D32*
X010332Y028195D03*
D33*
X010380Y028235D02*
X010458Y028313D01*
X010466Y028305D01*
X010466Y028148D01*
X010380Y028148D01*
X010380Y028235D01*
X010120Y028616D02*
X010135Y028632D01*
X010135Y028636D01*
X010108Y028664D01*
X010096Y028664D01*
X010096Y028620D01*
X010100Y028616D01*
X010120Y028616D01*
D34*
X010120Y028617D02*
X010100Y028617D01*
X010099Y028618D02*
X010121Y028618D01*
X010122Y028619D02*
X010098Y028619D01*
X010097Y028619D02*
X010123Y028619D01*
X010123Y028620D02*
X010096Y028620D01*
X010096Y028621D02*
X010124Y028621D01*
X010125Y028622D02*
X010096Y028622D01*
X010096Y028623D02*
X010126Y028623D01*
X010127Y028623D02*
X010096Y028623D01*
X010096Y028624D02*
X010127Y028624D01*
X010128Y028625D02*
X010096Y028625D01*
X010096Y028626D02*
X010129Y028626D01*
X010130Y028627D02*
X010096Y028627D01*
X010131Y028627D01*
X010131Y028628D02*
X010096Y028628D01*
X010096Y028629D02*
X010132Y028629D01*
X010133Y028630D02*
X010096Y028630D01*
X010096Y028631D02*
X010134Y028631D01*
X010135Y028631D02*
X010096Y028631D01*
X010096Y028632D02*
X010135Y028632D01*
X010135Y028633D02*
X010096Y028633D01*
X010096Y028634D02*
X010135Y028634D01*
X010135Y028635D02*
X010096Y028635D01*
X010135Y028635D01*
X010135Y028636D02*
X010096Y028636D01*
X010096Y028637D02*
X010135Y028637D01*
X010134Y028638D02*
X010096Y028638D01*
X010096Y028639D02*
X010133Y028639D01*
X010132Y028639D02*
X010096Y028639D01*
X010096Y028640D02*
X010131Y028640D01*
X010131Y028641D02*
X010096Y028641D01*
X010096Y028642D02*
X010130Y028642D01*
X010129Y028643D02*
X010096Y028643D01*
X010128Y028643D01*
X010127Y028644D02*
X010096Y028644D01*
X010096Y028645D02*
X010127Y028645D01*
X010126Y028646D02*
X010096Y028646D01*
X010096Y028647D02*
X010125Y028647D01*
X010124Y028647D02*
X010096Y028647D01*
X010096Y028648D02*
X010123Y028648D01*
X010123Y028649D02*
X010096Y028649D01*
X010096Y028650D02*
X010122Y028650D01*
X010121Y028651D02*
X010096Y028651D01*
X010120Y028651D01*
X010119Y028652D02*
X010096Y028652D01*
X010096Y028653D02*
X010119Y028653D01*
X010118Y028654D02*
X010096Y028654D01*
X010096Y028655D02*
X010117Y028655D01*
X010116Y028655D02*
X010096Y028655D01*
X010096Y028656D02*
X010115Y028656D01*
X010114Y028657D02*
X010096Y028657D01*
X010096Y028658D02*
X010114Y028658D01*
X010113Y028659D02*
X010096Y028659D01*
X010112Y028659D01*
X010111Y028660D02*
X010096Y028660D01*
X010096Y028661D02*
X010110Y028661D01*
X010110Y028662D02*
X010096Y028662D01*
X010096Y028663D02*
X010109Y028663D01*
X010108Y028664D02*
X010096Y028664D01*
X010453Y028308D02*
X010464Y028308D01*
X010463Y028308D02*
X010453Y028308D01*
X010454Y028309D02*
X010462Y028309D01*
X010462Y028310D02*
X010455Y028310D01*
X010456Y028311D02*
X010461Y028311D01*
X010460Y028312D02*
X010457Y028312D01*
X010459Y028312D01*
X010458Y028313D02*
X010458Y028313D01*
X010452Y028307D02*
X010465Y028307D01*
X010466Y028306D02*
X010451Y028306D01*
X010450Y028305D02*
X010466Y028305D01*
X010466Y028304D02*
X010449Y028304D01*
X010466Y028304D01*
X010466Y028303D02*
X010448Y028303D01*
X010447Y028302D02*
X010466Y028302D01*
X010466Y028301D02*
X010446Y028301D01*
X010445Y028300D02*
X010466Y028300D01*
X010445Y028300D01*
X010444Y028299D02*
X010466Y028299D01*
X010466Y028298D02*
X010443Y028298D01*
X010442Y028297D02*
X010466Y028297D01*
X010466Y028296D02*
X010441Y028296D01*
X010466Y028296D01*
X010466Y028295D02*
X010440Y028295D01*
X010439Y028294D02*
X010466Y028294D01*
X010466Y028293D02*
X010438Y028293D01*
X010437Y028292D02*
X010466Y028292D01*
X010436Y028292D01*
X010436Y028291D02*
X010466Y028291D01*
X010466Y028290D02*
X010435Y028290D01*
X010434Y028289D02*
X010466Y028289D01*
X010466Y028288D02*
X010433Y028288D01*
X010432Y028288D02*
X010466Y028288D01*
X010466Y028287D02*
X010432Y028287D01*
X010431Y028286D02*
X010466Y028286D01*
X010466Y028285D02*
X010430Y028285D01*
X010429Y028284D02*
X010466Y028284D01*
X010428Y028284D01*
X010428Y028283D02*
X010466Y028283D01*
X010466Y028282D02*
X010427Y028282D01*
X010426Y028281D02*
X010466Y028281D01*
X010466Y028280D02*
X010425Y028280D01*
X010424Y028279D02*
X010466Y028279D01*
X010424Y028279D01*
X010423Y028278D02*
X010466Y028278D01*
X010466Y028277D02*
X010422Y028277D01*
X010421Y028276D02*
X010466Y028276D01*
X010466Y028275D02*
X010420Y028275D01*
X010466Y028275D01*
X010466Y028274D02*
X010419Y028274D01*
X010418Y028273D02*
X010466Y028273D01*
X010466Y028272D02*
X010417Y028272D01*
X010416Y028271D02*
X010466Y028271D01*
X010416Y028271D01*
X010415Y028270D02*
X010466Y028270D01*
X010466Y028269D02*
X010414Y028269D01*
X010413Y028268D02*
X010466Y028268D01*
X010466Y028267D02*
X010412Y028267D01*
X010466Y028267D01*
X010466Y028266D02*
X010411Y028266D01*
X010410Y028265D02*
X010466Y028265D01*
X010466Y028264D02*
X010409Y028264D01*
X010408Y028263D02*
X010466Y028263D01*
X010408Y028263D01*
X010407Y028262D02*
X010466Y028262D01*
X010466Y028261D02*
X010406Y028261D01*
X010405Y028260D02*
X010466Y028260D01*
X010466Y028259D02*
X010404Y028259D01*
X010466Y028259D01*
X010466Y028258D02*
X010403Y028258D01*
X010402Y028257D02*
X010466Y028257D01*
X010466Y028256D02*
X010401Y028256D01*
X010400Y028255D02*
X010466Y028255D01*
X010400Y028255D01*
X010399Y028254D02*
X010466Y028254D01*
X010466Y028253D02*
X010398Y028253D01*
X010397Y028252D02*
X010466Y028252D01*
X010466Y028251D02*
X010396Y028251D01*
X010466Y028251D01*
X010466Y028250D02*
X010395Y028250D01*
X010394Y028249D02*
X010466Y028249D01*
X010466Y028248D02*
X010393Y028248D01*
X010392Y028247D02*
X010466Y028247D01*
X010392Y028247D01*
X010391Y028246D02*
X010466Y028246D01*
X010466Y028245D02*
X010390Y028245D01*
X010389Y028244D02*
X010466Y028244D01*
X010466Y028243D02*
X010388Y028243D01*
X010387Y028243D02*
X010466Y028243D01*
X010466Y028242D02*
X010387Y028242D01*
X010386Y028241D02*
X010466Y028241D01*
X010466Y028240D02*
X010385Y028240D01*
X010384Y028239D02*
X010466Y028239D01*
X010383Y028239D01*
X010383Y028238D02*
X010466Y028238D01*
X010466Y028237D02*
X010382Y028237D01*
X010381Y028236D02*
X010466Y028236D01*
X010466Y028235D02*
X010380Y028235D01*
X010380Y028234D02*
X010466Y028234D01*
X010380Y028234D01*
X010380Y028233D02*
X010466Y028233D01*
X010466Y028232D02*
X010380Y028232D01*
X010380Y028231D02*
X010466Y028231D01*
X010466Y028230D02*
X010380Y028230D01*
X010466Y028230D01*
X010466Y028229D02*
X010380Y028229D01*
X010380Y028228D02*
X010466Y028228D01*
X010466Y028227D02*
X010380Y028227D01*
X010380Y028226D02*
X010466Y028226D01*
X010380Y028226D01*
X010380Y028225D02*
X010466Y028225D01*
X010466Y028224D02*
X010380Y028224D01*
X010380Y028223D02*
X010466Y028223D01*
X010466Y028222D02*
X010380Y028222D01*
X010466Y028222D01*
X010466Y028221D02*
X010380Y028221D01*
X010380Y028220D02*
X010466Y028220D01*
X010466Y028219D02*
X010380Y028219D01*
X010380Y028218D02*
X010466Y028218D01*
X010380Y028218D01*
X010380Y028217D02*
X010466Y028217D01*
X010466Y028216D02*
X010380Y028216D01*
X010380Y028215D02*
X010466Y028215D01*
X010466Y028214D02*
X010380Y028214D01*
X010466Y028214D01*
X010466Y028213D02*
X010380Y028213D01*
X010380Y028212D02*
X010466Y028212D01*
X010466Y028211D02*
X010380Y028211D01*
X010380Y028210D02*
X010466Y028210D01*
X010380Y028210D01*
X010380Y028209D02*
X010466Y028209D01*
X010466Y028208D02*
X010380Y028208D01*
X010380Y028207D02*
X010466Y028207D01*
X010466Y028206D02*
X010380Y028206D01*
X010466Y028206D01*
X010466Y028205D02*
X010380Y028205D01*
X010380Y028204D02*
X010466Y028204D01*
X010466Y028203D02*
X010380Y028203D01*
X010380Y028202D02*
X010466Y028202D01*
X010380Y028202D01*
X010380Y028201D02*
X010466Y028201D01*
X010466Y028200D02*
X010380Y028200D01*
X010380Y028199D02*
X010466Y028199D01*
X010466Y028198D02*
X010380Y028198D01*
X010466Y028198D01*
X010466Y028197D02*
X010380Y028197D01*
X010380Y028196D02*
X010466Y028196D01*
X010466Y028195D02*
X010380Y028195D01*
X010380Y028194D02*
X010466Y028194D01*
X010380Y028194D01*
X010380Y028193D02*
X010466Y028193D01*
X010466Y028192D02*
X010380Y028192D01*
X010380Y028191D02*
X010466Y028191D01*
X010466Y028190D02*
X010380Y028190D01*
X010466Y028190D01*
X010466Y028189D02*
X010380Y028189D01*
X010380Y028188D02*
X010466Y028188D01*
X010466Y028187D02*
X010380Y028187D01*
X010380Y028186D02*
X010466Y028186D01*
X010466Y028185D02*
X010380Y028185D01*
X010466Y028185D01*
X010466Y028184D02*
X010380Y028184D01*
X010380Y028183D02*
X010466Y028183D01*
X010466Y028182D02*
X010380Y028182D01*
X010380Y028181D02*
X010466Y028181D01*
X010380Y028181D01*
X010380Y028180D02*
X010466Y028180D01*
X010466Y028179D02*
X010380Y028179D01*
X010380Y028178D02*
X010466Y028178D01*
X010466Y028177D02*
X010380Y028177D01*
X010466Y028177D01*
X010466Y028176D02*
X010380Y028176D01*
X010380Y028175D02*
X010466Y028175D01*
X010466Y028174D02*
X010380Y028174D01*
X010380Y028173D02*
X010466Y028173D01*
X010380Y028173D01*
X010380Y028172D02*
X010466Y028172D01*
X010466Y028171D02*
X010380Y028171D01*
X010380Y028170D02*
X010466Y028170D01*
X010466Y028169D02*
X010380Y028169D01*
X010466Y028169D01*
X010466Y028168D02*
X010380Y028168D01*
X010380Y028167D02*
X010466Y028167D01*
X010466Y028166D02*
X010380Y028166D01*
X010380Y028165D02*
X010466Y028165D01*
X010380Y028165D01*
X010380Y028164D02*
X010466Y028164D01*
X010466Y028163D02*
X010380Y028163D01*
X010380Y028162D02*
X010466Y028162D01*
X010466Y028161D02*
X010380Y028161D01*
X010466Y028161D01*
X010466Y028160D02*
X010380Y028160D01*
X010380Y028159D02*
X010466Y028159D01*
X010466Y028158D02*
X010380Y028158D01*
X010380Y028157D02*
X010466Y028157D01*
X010380Y028157D01*
X010380Y028156D02*
X010466Y028156D01*
X010466Y028155D02*
X010380Y028155D01*
X010380Y028154D02*
X010466Y028154D01*
X010466Y028153D02*
X010380Y028153D01*
X010466Y028153D01*
X010466Y028152D02*
X010380Y028152D01*
X010380Y028151D02*
X010466Y028151D01*
X010466Y028150D02*
X010380Y028150D01*
X010380Y028149D02*
X010466Y028149D01*
X010380Y028149D01*
D35*
X008130Y009330D02*
X007270Y009330D01*
X007270Y006968D02*
X008130Y006968D01*
X009590Y007719D02*
X009590Y008579D01*
D36*
X009444Y010899D03*
X008656Y010899D03*
X011596Y012559D03*
X012384Y012559D03*
D37*
X014285Y008785D03*
X014285Y007013D03*
X017415Y007013D03*
X017415Y008785D03*
D38*
X017200Y010499D02*
X016600Y010499D01*
X016600Y011499D02*
X017200Y011499D01*
X017200Y012499D02*
X016600Y012499D01*
X016600Y013499D02*
X017200Y013499D01*
X017200Y014499D02*
X016600Y014499D01*
X016600Y015499D02*
X017200Y015499D01*
X017200Y016499D02*
X016600Y016499D01*
X016600Y017499D02*
X017200Y017499D01*
X017200Y018499D02*
X016600Y018499D01*
X016600Y019499D02*
X017200Y019499D01*
X017200Y020499D02*
X016600Y020499D01*
X016600Y021499D02*
X017200Y021499D01*
X017200Y022499D02*
X016600Y022499D01*
X016600Y023499D02*
X017200Y023499D01*
X017200Y024499D02*
X016600Y024499D01*
X016600Y025499D02*
X017200Y025499D01*
X005200Y025499D02*
X004600Y025499D01*
X004600Y024499D02*
X005200Y024499D01*
X005200Y023499D02*
X004600Y023499D01*
X004600Y022499D02*
X005200Y022499D01*
X005200Y021499D02*
X004600Y021499D01*
X004600Y020499D02*
X005200Y020499D01*
X005200Y019499D02*
X004600Y019499D01*
X004600Y018499D02*
X005200Y018499D01*
X005200Y017499D02*
X004600Y017499D01*
X004600Y016499D02*
X005200Y016499D01*
X005200Y015499D02*
X004600Y015499D01*
X004600Y014499D02*
X005200Y014499D01*
X005200Y013499D02*
X004600Y013499D01*
X004600Y012499D02*
X005200Y012499D01*
X005200Y011499D02*
X004600Y011499D01*
X004600Y010499D02*
X005200Y010499D01*
D39*
X007921Y014765D03*
X008787Y014391D03*
X008787Y015139D03*
D40*
X012334Y015053D03*
X013126Y015065D03*
X013150Y011809D03*
D41*
X014250Y005429D02*
X014250Y004869D01*
X015250Y004869D02*
X015250Y005429D01*
D42*
X012230Y006140D03*
X011915Y006140D03*
X011600Y006140D03*
X011285Y006140D03*
X010970Y006140D03*
D43*
X010025Y005313D03*
X013175Y005313D03*
D44*
X012190Y009889D03*
X012000Y009889D03*
X011800Y009889D03*
X011600Y009889D03*
X011400Y009889D03*
X011210Y009889D03*
X011210Y011448D03*
X011400Y011448D03*
X011600Y011448D03*
X011800Y011448D03*
X012000Y011448D03*
X012190Y011448D03*
D45*
X012479Y011159D03*
X012479Y010969D03*
X012479Y010769D03*
X012479Y010569D03*
X012479Y010369D03*
X012479Y010179D03*
X010921Y010179D03*
X010921Y010369D03*
X010921Y010569D03*
X010921Y010769D03*
X010921Y010969D03*
X010921Y011159D03*
D46*
X011700Y010669D03*
D47*
X010560Y009242D03*
X010560Y008455D03*
D48*
X007440Y024667D03*
X007440Y025651D03*
D49*
X013635Y023732D03*
X014265Y023732D03*
X014265Y022866D03*
X013635Y022866D03*
D50*
X003900Y006821D02*
X003900Y006619D01*
X005930Y006619D01*
X005930Y007318D01*
X005720Y007108D01*
X005591Y006979D01*
X005420Y006979D01*
X005420Y006892D01*
X005320Y006793D01*
X004707Y006793D01*
X004607Y006892D01*
X004607Y007505D01*
X004701Y007599D01*
X004607Y007692D01*
X004607Y008305D01*
X004701Y008399D01*
X004607Y008492D01*
X004607Y009105D01*
X004707Y009205D01*
X004993Y009205D01*
X004993Y009653D01*
X005122Y009782D01*
X005422Y010082D01*
X005293Y010029D01*
X004507Y010029D01*
X004334Y010100D01*
X004202Y010233D01*
X004130Y010405D01*
X004130Y010592D01*
X004202Y010765D01*
X004334Y010897D01*
X004507Y010969D01*
X005293Y010969D01*
X005360Y010941D01*
X005730Y011311D01*
X005730Y012279D01*
X005618Y012279D01*
X005598Y012233D01*
X005466Y012100D01*
X005293Y012029D01*
X004507Y012029D01*
X004334Y012100D01*
X004202Y012233D01*
X004130Y012405D01*
X004130Y012592D01*
X004135Y012603D01*
X003900Y012838D01*
X003900Y009177D01*
X003931Y009185D01*
X004137Y009185D01*
X004137Y008849D01*
X004237Y008849D01*
X004573Y008849D01*
X004573Y009055D01*
X004563Y009093D01*
X004543Y009127D01*
X004515Y009155D01*
X004481Y009175D01*
X004443Y009185D01*
X004237Y009185D01*
X004237Y008849D01*
X004237Y008749D01*
X004573Y008749D01*
X004573Y008543D01*
X004563Y008505D01*
X004543Y008470D01*
X004515Y008442D01*
X004481Y008423D01*
X004443Y008413D01*
X004237Y008413D01*
X004237Y008749D01*
X004137Y008749D01*
X004137Y008413D01*
X003931Y008413D01*
X003900Y008421D01*
X003900Y008377D01*
X003931Y008385D01*
X004137Y008385D01*
X004137Y008049D01*
X004237Y008049D01*
X004573Y008049D01*
X004573Y008255D01*
X004563Y008293D01*
X004543Y008327D01*
X004515Y008355D01*
X004481Y008375D01*
X004443Y008385D01*
X004237Y008385D01*
X004237Y008049D01*
X004237Y007949D01*
X004573Y007949D01*
X004573Y007743D01*
X004563Y007705D01*
X004543Y007670D01*
X004515Y007642D01*
X004481Y007623D01*
X004443Y007613D01*
X004237Y007613D01*
X004237Y007949D01*
X004137Y007949D01*
X004137Y007613D01*
X003931Y007613D01*
X003900Y007621D01*
X003900Y007577D01*
X003931Y007585D01*
X004137Y007585D01*
X004137Y007249D01*
X004237Y007249D01*
X004573Y007249D01*
X004573Y007455D01*
X004563Y007493D01*
X004543Y007527D01*
X004515Y007555D01*
X004481Y007575D01*
X004443Y007585D01*
X004237Y007585D01*
X004237Y007249D01*
X004237Y007149D01*
X004573Y007149D01*
X004573Y006943D01*
X004563Y006905D01*
X004543Y006870D01*
X004515Y006842D01*
X004481Y006823D01*
X004443Y006813D01*
X004237Y006813D01*
X004237Y007149D01*
X004137Y007149D01*
X004137Y006813D01*
X003931Y006813D01*
X003900Y006821D01*
X003900Y006811D02*
X004688Y006811D01*
X004607Y006910D02*
X004564Y006910D01*
X004573Y007008D02*
X004607Y007008D01*
X004607Y007107D02*
X004573Y007107D01*
X004607Y007205D02*
X004237Y007205D01*
X004237Y007107D02*
X004137Y007107D01*
X004137Y007008D02*
X004237Y007008D01*
X004237Y006910D02*
X004137Y006910D01*
X003900Y006713D02*
X005930Y006713D01*
X005930Y006811D02*
X005339Y006811D01*
X005420Y006910D02*
X005930Y006910D01*
X005930Y007008D02*
X005621Y007008D01*
X005719Y007107D02*
X005930Y007107D01*
X005930Y007205D02*
X005818Y007205D01*
X005916Y007304D02*
X005930Y007304D01*
X005850Y007549D02*
X005500Y007199D01*
X005013Y007199D01*
X004607Y007304D02*
X004573Y007304D01*
X004573Y007402D02*
X004607Y007402D01*
X004607Y007501D02*
X004558Y007501D01*
X004700Y007599D02*
X003900Y007599D01*
X004137Y007501D02*
X004237Y007501D01*
X004237Y007402D02*
X004137Y007402D01*
X004137Y007304D02*
X004237Y007304D01*
X004237Y007698D02*
X004137Y007698D01*
X004137Y007796D02*
X004237Y007796D01*
X004237Y007895D02*
X004137Y007895D01*
X004237Y007993D02*
X004607Y007993D01*
X004607Y007895D02*
X004573Y007895D01*
X004573Y007796D02*
X004607Y007796D01*
X004607Y007698D02*
X004559Y007698D01*
X004573Y008092D02*
X004607Y008092D01*
X004607Y008190D02*
X004573Y008190D01*
X004564Y008289D02*
X004607Y008289D01*
X004689Y008387D02*
X003900Y008387D01*
X004137Y008289D02*
X004237Y008289D01*
X004237Y008190D02*
X004137Y008190D01*
X004137Y008092D02*
X004237Y008092D01*
X004237Y008486D02*
X004137Y008486D01*
X004137Y008584D02*
X004237Y008584D01*
X004237Y008683D02*
X004137Y008683D01*
X004237Y008781D02*
X004607Y008781D01*
X004607Y008683D02*
X004573Y008683D01*
X004573Y008584D02*
X004607Y008584D01*
X004614Y008486D02*
X004552Y008486D01*
X005013Y008799D02*
X005213Y008799D01*
X005213Y009562D01*
X006700Y011049D01*
X006700Y011064D01*
X006600Y011049D01*
X006585Y011049D02*
X006700Y011064D01*
X006700Y010699D02*
X006985Y010699D01*
X007350Y011064D01*
X007250Y011049D01*
X007435Y010499D02*
X006800Y010499D01*
X005850Y009549D01*
X005850Y007549D01*
X005400Y007999D02*
X005013Y007999D01*
X005400Y007999D02*
X005650Y008249D01*
X005650Y009649D01*
X006700Y010699D01*
X007435Y010499D02*
X008000Y011064D01*
X007865Y011064D01*
X007900Y011833D02*
X007900Y012249D01*
X007900Y011833D02*
X007902Y011816D01*
X007906Y011799D01*
X007913Y011783D01*
X007923Y011769D01*
X007936Y011756D01*
X007950Y011746D01*
X007966Y011739D01*
X007983Y011735D01*
X008000Y011733D01*
X007350Y011733D02*
X007333Y011735D01*
X007316Y011739D01*
X007300Y011746D01*
X007286Y011756D01*
X007273Y011769D01*
X007263Y011783D01*
X007256Y011799D01*
X007252Y011816D01*
X007250Y011833D01*
X007250Y012249D01*
X006700Y012099D02*
X006700Y011733D01*
X006700Y012099D02*
X006550Y012249D01*
X006170Y012851D02*
X006170Y013258D01*
X006741Y013829D01*
X007283Y013829D01*
X007283Y013686D01*
X007378Y013591D01*
X007324Y013591D01*
X007324Y013214D01*
X007228Y013214D01*
X007228Y013591D01*
X007059Y013591D01*
X007021Y013581D01*
X006987Y013561D01*
X006959Y013533D01*
X006939Y013499D01*
X006929Y013461D01*
X006929Y013214D01*
X007228Y013214D01*
X007228Y013117D01*
X006929Y013117D01*
X006929Y012919D01*
X006296Y012919D01*
X006197Y012878D01*
X006170Y012851D01*
X006170Y012918D02*
X006295Y012918D01*
X006170Y013017D02*
X006929Y013017D01*
X006929Y013115D02*
X006170Y013115D01*
X006170Y013214D02*
X007228Y013214D01*
X007324Y013214D02*
X007324Y013117D01*
X007623Y013117D01*
X007623Y013053D01*
X007657Y013088D01*
X007657Y013512D01*
X007732Y013586D01*
X007511Y013586D01*
X007531Y013581D01*
X007565Y013561D01*
X007593Y013533D01*
X007613Y013499D01*
X007623Y013461D01*
X007623Y013214D01*
X007324Y013214D01*
X007657Y013214D01*
X007657Y013312D02*
X007623Y013312D01*
X007623Y013411D02*
X007657Y013411D01*
X007657Y013509D02*
X007607Y013509D01*
X007361Y013608D02*
X006520Y013608D01*
X006619Y013706D02*
X007283Y013706D01*
X007283Y013805D02*
X006717Y013805D01*
X006650Y014049D02*
X005950Y013349D01*
X005950Y012749D01*
X005700Y012499D01*
X004900Y012499D01*
X004600Y012499D01*
X004600Y012449D01*
X004100Y012949D01*
X004100Y025849D01*
X004250Y025999D01*
X004850Y025999D01*
X005450Y026599D01*
X008150Y026599D01*
X009211Y025538D01*
X009211Y025101D01*
X009408Y025101D02*
X009410Y025101D01*
X009410Y025349D01*
X009600Y025349D01*
X009605Y025294D01*
X009605Y025101D01*
X009605Y024494D01*
X009605Y024285D01*
X009000Y024285D01*
X009000Y023497D01*
X008197Y023497D01*
X008197Y023694D02*
X007795Y023694D01*
X007750Y023649D01*
X008000Y023891D02*
X008000Y024049D01*
X008039Y024088D01*
X008197Y024088D01*
X008197Y024285D02*
X009000Y024285D01*
X009605Y024494D02*
X009650Y024449D01*
X010200Y024449D01*
X010200Y024441D01*
X010900Y024441D01*
X010900Y023694D01*
X011603Y023694D01*
X011597Y023689D01*
X011603Y023497D02*
X012202Y023497D01*
X012300Y023399D01*
X012952Y023399D01*
X013285Y023732D01*
X013635Y023732D01*
X013556Y023811D01*
X013556Y024449D01*
X013428Y024427D01*
X013179Y024443D02*
X012600Y024443D01*
X012600Y024393D02*
X012600Y024493D01*
X012913Y024493D01*
X012913Y024579D01*
X013179Y024579D01*
X013179Y024166D01*
X013253Y024092D01*
X013239Y024078D01*
X013239Y023952D01*
X013194Y023952D01*
X013065Y023823D01*
X012933Y023690D01*
X012933Y024031D01*
X012850Y024114D01*
X012855Y024117D01*
X012883Y024144D01*
X012902Y024179D01*
X012913Y024217D01*
X012913Y024393D01*
X012600Y024393D01*
X012913Y024344D02*
X013179Y024344D01*
X013179Y024246D02*
X012913Y024246D01*
X012884Y024147D02*
X013197Y024147D01*
X013239Y024049D02*
X012915Y024049D01*
X012933Y023950D02*
X013192Y023950D01*
X013094Y023852D02*
X012933Y023852D01*
X012933Y023753D02*
X012995Y023753D01*
X012550Y023754D02*
X012400Y023904D01*
X012400Y023949D01*
X012150Y024199D01*
X011950Y024199D01*
X011839Y024088D01*
X011603Y024088D01*
X011603Y024285D02*
X010900Y024285D01*
X010900Y024441D01*
X010900Y024299D01*
X010914Y024285D01*
X011603Y024481D02*
X012124Y024481D01*
X011830Y024678D02*
X011950Y024799D01*
X014850Y024799D01*
X015150Y024499D01*
X015150Y019899D01*
X014994Y019899D01*
X015150Y019899D02*
X015150Y019349D01*
X016000Y018499D01*
X016900Y018499D01*
X017200Y018499D01*
X017750Y017949D01*
X017750Y008849D01*
X017700Y008799D01*
X017429Y008799D01*
X017415Y008785D01*
X016180Y008785D01*
X015365Y009599D01*
X014785Y009599D01*
X014855Y009205D02*
X013715Y009205D01*
X013615Y009105D01*
X013615Y008464D01*
X013715Y008365D01*
X014855Y008365D01*
X014955Y008464D01*
X014955Y009105D01*
X014855Y009205D01*
X014885Y009175D02*
X015478Y009175D01*
X015441Y009212D02*
X015960Y008693D01*
X016088Y008565D01*
X016745Y008565D01*
X016745Y008464D01*
X016845Y008365D01*
X017900Y008365D01*
X017900Y007413D01*
X017465Y007413D01*
X017465Y007063D01*
X017365Y007063D01*
X017365Y007413D01*
X016895Y007413D01*
X016857Y007403D01*
X016823Y007383D01*
X016795Y007355D01*
X016775Y007321D01*
X016765Y007283D01*
X016765Y007063D01*
X017365Y007063D01*
X017365Y006963D01*
X016765Y006963D01*
X016765Y006743D01*
X016775Y006705D01*
X016795Y006671D01*
X016823Y006643D01*
X016857Y006623D01*
X016873Y006619D01*
X015980Y006619D01*
X015880Y006519D01*
X015880Y004599D01*
X015616Y004599D01*
X015631Y004614D01*
X015700Y004779D01*
X015700Y005518D01*
X015631Y005684D01*
X015505Y005810D01*
X015340Y005879D01*
X015160Y005879D01*
X014995Y005810D01*
X014869Y005684D01*
X014800Y005518D01*
X014800Y004779D01*
X014869Y004614D01*
X014884Y004599D01*
X014585Y004599D01*
X014618Y004643D01*
X014648Y004704D01*
X014669Y004768D01*
X014680Y004835D01*
X014680Y005109D01*
X014290Y005109D01*
X014290Y005189D01*
X014210Y005189D01*
X014210Y005858D01*
X014149Y005848D01*
X014085Y005827D01*
X014025Y005797D01*
X013970Y005757D01*
X013922Y005709D01*
X013882Y005654D01*
X013852Y005594D01*
X013831Y005529D01*
X013820Y005463D01*
X013820Y005189D01*
X014210Y005189D01*
X014210Y005109D01*
X013820Y005109D01*
X013820Y004835D01*
X013831Y004768D01*
X013852Y004704D01*
X013882Y004643D01*
X013915Y004599D01*
X013739Y004599D01*
X013739Y006132D01*
X013639Y006231D01*
X013571Y006231D01*
X013587Y006247D01*
X013587Y006781D01*
X013504Y006864D01*
X013509Y006867D01*
X013537Y006894D01*
X013556Y006929D01*
X013567Y006967D01*
X013567Y007135D01*
X013248Y007135D01*
X013248Y007232D01*
X013152Y007232D01*
X013152Y007530D01*
X012964Y007530D01*
X012926Y007520D01*
X012891Y007500D01*
X012871Y007480D01*
X012871Y007481D01*
X012861Y007519D01*
X012850Y007539D01*
X012861Y007558D01*
X012871Y007596D01*
X012871Y007779D01*
X012564Y007779D01*
X012564Y007299D01*
X012464Y007299D01*
X012464Y007611D01*
X012464Y007779D01*
X012564Y007779D01*
X012564Y007879D01*
X012464Y007879D01*
X012464Y008191D01*
X012374Y008191D01*
X012278Y008288D01*
X012422Y008288D01*
X012460Y008298D01*
X012495Y008318D01*
X012523Y008345D01*
X012542Y008380D01*
X012553Y008418D01*
X012553Y008594D01*
X012240Y008594D01*
X012240Y008694D01*
X012553Y008694D01*
X012553Y008871D01*
X012542Y008909D01*
X012523Y008943D01*
X012495Y008971D01*
X012490Y008974D01*
X012573Y009056D01*
X012573Y009238D01*
X012607Y009224D01*
X012733Y009224D01*
X012837Y009267D01*
X012850Y009254D01*
X012845Y009251D01*
X012817Y009223D01*
X012798Y009189D01*
X012787Y009151D01*
X012787Y008974D01*
X013100Y008974D01*
X013100Y008874D01*
X013200Y008874D01*
X013200Y008568D01*
X013382Y008568D01*
X013420Y008578D01*
X013455Y008598D01*
X013483Y008625D01*
X013502Y008660D01*
X013513Y008698D01*
X013513Y008874D01*
X013200Y008874D01*
X013200Y008974D01*
X013513Y008974D01*
X013513Y009151D01*
X013502Y009189D01*
X013483Y009223D01*
X013455Y009251D01*
X013450Y009254D01*
X013533Y009336D01*
X013533Y009806D01*
X013769Y009806D01*
X013769Y009647D01*
X014067Y009647D01*
X014067Y009550D01*
X014164Y009550D01*
X014164Y009232D01*
X014332Y009232D01*
X014370Y009242D01*
X014404Y009262D01*
X014432Y009290D01*
X014435Y009295D01*
X014517Y009212D01*
X015052Y009212D01*
X015075Y009235D01*
X015098Y009212D01*
X015441Y009212D01*
X015576Y009077D02*
X014955Y009077D01*
X014955Y008978D02*
X015675Y008978D01*
X015773Y008880D02*
X014955Y008880D01*
X014955Y008781D02*
X015872Y008781D01*
X015970Y008683D02*
X014955Y008683D01*
X014955Y008584D02*
X016069Y008584D01*
X016271Y009005D02*
X016063Y009212D01*
X016302Y009212D01*
X016401Y009312D01*
X016401Y009886D01*
X016302Y009985D01*
X016255Y009985D01*
X016255Y010179D01*
X016334Y010100D01*
X016507Y010029D01*
X017293Y010029D01*
X017466Y010100D01*
X017530Y010164D01*
X017530Y009205D01*
X016845Y009205D01*
X016745Y009105D01*
X016745Y009005D01*
X016271Y009005D01*
X016198Y009077D02*
X016745Y009077D01*
X016815Y009175D02*
X016100Y009175D01*
X016363Y009274D02*
X017530Y009274D01*
X017530Y009372D02*
X016401Y009372D01*
X016401Y009471D02*
X017530Y009471D01*
X017530Y009569D02*
X016401Y009569D01*
X016401Y009668D02*
X017530Y009668D01*
X017530Y009766D02*
X016401Y009766D01*
X016401Y009865D02*
X017530Y009865D01*
X017530Y009963D02*
X016324Y009963D01*
X016255Y010062D02*
X016427Y010062D01*
X016274Y010160D02*
X016255Y010160D01*
X016035Y010383D02*
X016150Y010499D01*
X016900Y010499D01*
X017293Y010969D02*
X016507Y010969D01*
X016334Y010897D01*
X016202Y010765D01*
X016182Y010719D01*
X016059Y010719D01*
X015930Y010590D01*
X015815Y010475D01*
X015815Y009985D01*
X015767Y009985D01*
X015700Y009918D01*
X015633Y009985D01*
X015098Y009985D01*
X015075Y009962D01*
X015052Y009985D01*
X014621Y009985D01*
X014621Y010139D01*
X014314Y010139D01*
X014314Y010239D01*
X014214Y010239D01*
X014214Y010551D01*
X014038Y010551D01*
X014000Y010541D01*
X013966Y010521D01*
X013938Y010493D01*
X013935Y010489D01*
X013853Y010571D01*
X013946Y010664D01*
X013990Y010771D01*
X013990Y010802D01*
X014052Y010802D01*
X014151Y010902D01*
X014151Y011476D01*
X014052Y011575D01*
X013517Y011575D01*
X013450Y011508D01*
X013447Y011511D01*
X013506Y011571D01*
X013570Y011725D01*
X013570Y011892D01*
X013506Y012047D01*
X013388Y012165D01*
X013234Y012229D01*
X013066Y012229D01*
X012912Y012165D01*
X012794Y012047D01*
X012730Y011892D01*
X012730Y011725D01*
X012794Y011571D01*
X012819Y011546D01*
X012749Y011476D01*
X012749Y011350D01*
X012710Y011389D01*
X012420Y011389D01*
X012420Y011679D01*
X012320Y011778D01*
X011820Y011778D01*
X011820Y012074D01*
X011923Y012074D01*
X012005Y012156D01*
X012008Y012152D01*
X012036Y012124D01*
X012070Y012104D01*
X012108Y012094D01*
X012334Y012094D01*
X012334Y012509D01*
X012434Y012509D01*
X012434Y012609D01*
X012790Y012609D01*
X012790Y012893D01*
X012779Y012932D01*
X012760Y012966D01*
X012732Y012994D01*
X012698Y013013D01*
X012659Y013024D01*
X012434Y013024D01*
X012434Y012609D01*
X012334Y012609D01*
X012334Y013024D01*
X012108Y013024D01*
X012070Y013013D01*
X012036Y012994D01*
X012008Y012966D01*
X012005Y012961D01*
X011923Y013044D01*
X011436Y013044D01*
X013039Y014647D01*
X013042Y014645D01*
X013209Y014645D01*
X013364Y014709D01*
X013482Y014828D01*
X013546Y014982D01*
X013546Y015149D01*
X013482Y015303D01*
X013364Y015421D01*
X013346Y015429D01*
X013346Y015694D01*
X013217Y015823D01*
X012920Y016120D01*
X012920Y016568D01*
X012959Y016529D01*
X015209Y014279D01*
X016182Y014279D01*
X016202Y014233D01*
X016334Y014100D01*
X012493Y014100D01*
X012591Y014199D02*
X016235Y014199D01*
X016334Y014100D02*
X016507Y014029D01*
X017293Y014029D01*
X017466Y014100D01*
X017530Y014100D01*
X017466Y014100D02*
X017530Y014164D01*
X017530Y013833D01*
X017466Y013897D01*
X017293Y013969D01*
X016507Y013969D01*
X016334Y013897D01*
X016202Y013765D01*
X016130Y013592D01*
X016130Y013405D01*
X016202Y013233D01*
X016334Y013100D01*
X016507Y013029D01*
X017293Y013029D01*
X017466Y013100D01*
X017530Y013164D01*
X017530Y012833D01*
X017466Y012897D01*
X017293Y012969D01*
X016507Y012969D01*
X016334Y012897D01*
X016202Y012765D01*
X016130Y012592D01*
X016130Y012405D01*
X016202Y012233D01*
X016334Y012100D01*
X016507Y012029D01*
X017293Y012029D01*
X017466Y012100D01*
X017530Y012164D01*
X017530Y011805D01*
X017493Y011842D01*
X017436Y011884D01*
X017373Y011916D01*
X017305Y011938D01*
X017235Y011949D01*
X016950Y011949D01*
X016950Y011549D01*
X016850Y011549D01*
X016850Y011949D01*
X016565Y011949D01*
X016495Y011938D01*
X016427Y011916D01*
X016364Y011884D01*
X016307Y011842D01*
X016257Y011792D01*
X016215Y011735D01*
X016183Y011671D01*
X016161Y011604D01*
X016152Y011549D01*
X016850Y011549D01*
X016850Y011449D01*
X016152Y011449D01*
X016161Y011393D01*
X016183Y011326D01*
X016215Y011263D01*
X016257Y011206D01*
X016307Y011155D01*
X016364Y011114D01*
X016427Y011082D01*
X016495Y011060D01*
X016565Y011049D01*
X016850Y011049D01*
X016850Y011449D01*
X016950Y011449D01*
X016950Y011049D01*
X017235Y011049D01*
X017305Y011060D01*
X017373Y011082D01*
X017436Y011114D01*
X017493Y011155D01*
X017530Y011192D01*
X017530Y010833D01*
X017466Y010897D01*
X017293Y010969D01*
X017343Y010948D02*
X017530Y010948D01*
X017530Y010850D02*
X017514Y010850D01*
X017530Y011047D02*
X014151Y011047D01*
X014151Y011145D02*
X016321Y011145D01*
X016229Y011244D02*
X014151Y011244D01*
X014151Y011342D02*
X016178Y011342D01*
X016154Y011441D02*
X014151Y011441D01*
X014088Y011539D02*
X016850Y011539D01*
X016850Y011441D02*
X016950Y011441D01*
X016950Y011342D02*
X016850Y011342D01*
X016850Y011244D02*
X016950Y011244D01*
X016950Y011145D02*
X016850Y011145D01*
X016457Y010948D02*
X014151Y010948D01*
X014099Y010850D02*
X016286Y010850D01*
X016196Y010751D02*
X013982Y010751D01*
X013934Y010653D02*
X015993Y010653D01*
X015894Y010554D02*
X013870Y010554D01*
X014214Y010456D02*
X014314Y010456D01*
X014314Y010551D02*
X014314Y010239D01*
X014621Y010239D01*
X014621Y010421D01*
X014611Y010459D01*
X014591Y010493D01*
X014563Y010521D01*
X014529Y010541D01*
X014491Y010551D01*
X014314Y010551D01*
X014314Y010357D02*
X014214Y010357D01*
X014214Y010259D02*
X014314Y010259D01*
X014314Y010160D02*
X015815Y010160D01*
X015815Y010062D02*
X014621Y010062D01*
X014621Y010259D02*
X015815Y010259D01*
X015815Y010357D02*
X014621Y010357D01*
X014612Y010456D02*
X015815Y010456D01*
X016035Y010383D02*
X016035Y009599D01*
X015745Y009963D02*
X015655Y009963D01*
X015076Y009963D02*
X015074Y009963D01*
X014456Y009274D02*
X014416Y009274D01*
X014164Y009274D02*
X014067Y009274D01*
X014067Y009232D02*
X014067Y009550D01*
X013769Y009550D01*
X013769Y009362D01*
X013779Y009324D01*
X013798Y009290D01*
X013826Y009262D01*
X013861Y009242D01*
X013899Y009232D01*
X014067Y009232D01*
X014067Y009372D02*
X014164Y009372D01*
X014164Y009471D02*
X014067Y009471D01*
X014067Y009569D02*
X013533Y009569D01*
X013533Y009471D02*
X013769Y009471D01*
X013769Y009372D02*
X013533Y009372D01*
X013470Y009274D02*
X013815Y009274D01*
X013685Y009175D02*
X013506Y009175D01*
X013513Y009077D02*
X013615Y009077D01*
X013615Y008978D02*
X013513Y008978D01*
X013615Y008880D02*
X013200Y008880D01*
X013200Y008781D02*
X013100Y008781D01*
X013100Y008874D02*
X013100Y008568D01*
X012918Y008568D01*
X012880Y008578D01*
X012845Y008598D01*
X012817Y008625D01*
X012798Y008660D01*
X012787Y008698D01*
X012787Y008874D01*
X013100Y008874D01*
X013100Y008880D02*
X012550Y008880D01*
X012553Y008781D02*
X012787Y008781D01*
X012791Y008683D02*
X012240Y008683D01*
X012553Y008584D02*
X012868Y008584D01*
X013100Y008584D02*
X013200Y008584D01*
X013200Y008683D02*
X013100Y008683D01*
X013432Y008584D02*
X013615Y008584D01*
X013615Y008486D02*
X012553Y008486D01*
X012544Y008387D02*
X013692Y008387D01*
X013615Y008683D02*
X013509Y008683D01*
X013513Y008781D02*
X013615Y008781D01*
X013533Y009668D02*
X013769Y009668D01*
X013769Y009766D02*
X013533Y009766D01*
X013150Y009613D02*
X012874Y009889D01*
X012190Y009889D01*
X012000Y009889D02*
X012000Y009523D01*
X012190Y009333D01*
X012495Y008978D02*
X012787Y008978D01*
X012787Y009077D02*
X012573Y009077D01*
X012573Y009175D02*
X012794Y009175D01*
X012427Y008289D02*
X017900Y008289D01*
X017900Y008190D02*
X012745Y008190D01*
X012741Y008191D02*
X012564Y008191D01*
X012564Y007879D01*
X012871Y007879D01*
X012871Y008061D01*
X012861Y008099D01*
X012841Y008133D01*
X012813Y008161D01*
X012779Y008181D01*
X012741Y008191D01*
X012863Y008092D02*
X017900Y008092D01*
X017900Y007993D02*
X012871Y007993D01*
X012871Y007895D02*
X017900Y007895D01*
X017900Y007796D02*
X012564Y007796D01*
X012564Y007698D02*
X012464Y007698D01*
X012464Y007599D02*
X012564Y007599D01*
X012564Y007501D02*
X012464Y007501D01*
X012464Y007402D02*
X012564Y007402D01*
X012564Y007304D02*
X012464Y007304D01*
X012564Y007299D02*
X012833Y007299D01*
X012833Y007232D01*
X013152Y007232D01*
X013152Y007135D01*
X012871Y007135D01*
X012871Y007199D01*
X012564Y007199D01*
X012564Y006886D01*
X012741Y006886D01*
X012779Y006896D01*
X012813Y006916D01*
X012840Y006943D01*
X012844Y006929D01*
X012863Y006894D01*
X012891Y006867D01*
X012896Y006864D01*
X012813Y006781D01*
X012813Y006247D01*
X012829Y006231D01*
X012711Y006231D01*
X012611Y006132D01*
X012611Y006019D01*
X012478Y006019D01*
X012478Y006140D01*
X012230Y006140D01*
X012230Y006140D01*
X012478Y006140D01*
X012478Y006435D01*
X012468Y006474D01*
X012448Y006508D01*
X012420Y006536D01*
X012386Y006555D01*
X012348Y006566D01*
X012230Y006566D01*
X012230Y006140D01*
X012230Y006140D01*
X012230Y006566D01*
X012112Y006566D01*
X012105Y006564D01*
X012084Y006586D01*
X011898Y006586D01*
X011915Y006626D01*
X011915Y006751D01*
X011867Y006866D01*
X012103Y006866D01*
X012185Y006949D01*
X012188Y006944D01*
X012216Y006916D01*
X012250Y006896D01*
X012288Y006886D01*
X012464Y006886D01*
X012464Y007199D01*
X012564Y007199D01*
X012564Y007299D01*
X012564Y007205D02*
X013152Y007205D01*
X013248Y007205D02*
X013615Y007205D01*
X013567Y007232D02*
X013567Y007400D01*
X013556Y007438D01*
X013537Y007472D01*
X013509Y007500D01*
X013474Y007520D01*
X013436Y007530D01*
X013248Y007530D01*
X013248Y007232D01*
X013567Y007232D01*
X013567Y007304D02*
X013615Y007304D01*
X013615Y007333D02*
X013715Y007433D01*
X014855Y007433D01*
X014955Y007333D01*
X014955Y006692D01*
X014855Y006593D01*
X013715Y006593D01*
X013615Y006692D01*
X013615Y007333D01*
X013566Y007402D02*
X013684Y007402D01*
X013508Y007501D02*
X017900Y007501D01*
X017900Y007599D02*
X012871Y007599D01*
X012866Y007501D02*
X012892Y007501D01*
X012871Y007698D02*
X017900Y007698D01*
X017465Y007402D02*
X017365Y007402D01*
X017365Y007304D02*
X017465Y007304D01*
X017465Y007205D02*
X017365Y007205D01*
X017365Y007107D02*
X017465Y007107D01*
X017365Y007008D02*
X014955Y007008D01*
X014955Y006910D02*
X016765Y006910D01*
X016765Y006811D02*
X014955Y006811D01*
X014955Y006713D02*
X016773Y006713D01*
X016765Y007107D02*
X014955Y007107D01*
X014955Y007205D02*
X016765Y007205D01*
X016771Y007304D02*
X014955Y007304D01*
X014886Y007402D02*
X016856Y007402D01*
X016822Y008387D02*
X014878Y008387D01*
X014955Y008486D02*
X016745Y008486D01*
X017373Y010062D02*
X017530Y010062D01*
X017526Y010160D02*
X017530Y010160D01*
X017530Y011145D02*
X017479Y011145D01*
X017500Y011835D02*
X017530Y011835D01*
X017530Y011933D02*
X017319Y011933D01*
X017301Y012032D02*
X017530Y012032D01*
X017530Y012130D02*
X017496Y012130D01*
X016950Y011933D02*
X016850Y011933D01*
X016850Y011835D02*
X016950Y011835D01*
X016950Y011736D02*
X016850Y011736D01*
X016850Y011638D02*
X016950Y011638D01*
X016481Y011933D02*
X013553Y011933D01*
X013570Y011835D02*
X016300Y011835D01*
X016216Y011736D02*
X013570Y011736D01*
X013534Y011638D02*
X016172Y011638D01*
X016304Y012130D02*
X013422Y012130D01*
X013512Y012032D02*
X016499Y012032D01*
X016205Y012229D02*
X012790Y012229D01*
X012790Y012224D02*
X012790Y012509D01*
X012434Y012509D01*
X012434Y012094D01*
X012659Y012094D01*
X012698Y012104D01*
X012732Y012124D01*
X012760Y012152D01*
X012779Y012186D01*
X012790Y012224D01*
X012790Y012327D02*
X016162Y012327D01*
X016130Y012426D02*
X012790Y012426D01*
X012790Y012623D02*
X016143Y012623D01*
X016130Y012524D02*
X012434Y012524D01*
X012434Y012426D02*
X012334Y012426D01*
X012334Y012327D02*
X012434Y012327D01*
X012434Y012229D02*
X012334Y012229D01*
X012334Y012130D02*
X012434Y012130D01*
X012738Y012130D02*
X012878Y012130D01*
X012788Y012032D02*
X011820Y012032D01*
X011820Y011933D02*
X012747Y011933D01*
X012730Y011835D02*
X011820Y011835D01*
X011979Y012130D02*
X012029Y012130D01*
X011600Y012335D02*
X011596Y012559D01*
X011600Y012335D02*
X011600Y011448D01*
X011650Y011118D02*
X011650Y010719D01*
X011750Y010719D01*
X011750Y011118D01*
X011650Y011118D01*
X011650Y011047D02*
X011750Y011047D01*
X011750Y010948D02*
X011650Y010948D01*
X011650Y010850D02*
X011750Y010850D01*
X011750Y010751D02*
X011650Y010751D01*
X011650Y010719D02*
X011650Y010619D01*
X011251Y010619D01*
X011251Y010699D01*
X011251Y010719D01*
X011650Y010719D01*
X011650Y010653D02*
X011251Y010653D01*
X010921Y010769D02*
X010630Y010769D01*
X010430Y010969D01*
X010430Y012649D01*
X012334Y014553D01*
X012334Y015053D01*
X012334Y015863D01*
X012500Y016029D01*
X012500Y019949D01*
X012200Y020249D01*
X011765Y020249D01*
X010983Y021031D01*
X010983Y021696D01*
X011180Y021696D02*
X011180Y021119D01*
X011850Y020449D01*
X012300Y020449D01*
X012700Y020049D01*
X012700Y016029D01*
X013126Y015603D01*
X013126Y015065D01*
X013126Y015044D01*
X010610Y012529D01*
X010610Y011059D01*
X010700Y010969D01*
X010921Y010969D01*
X011650Y010619D02*
X011650Y010219D01*
X011750Y010219D01*
X011750Y010619D01*
X011750Y010719D01*
X012149Y010719D01*
X012149Y010619D01*
X011750Y010619D01*
X011650Y010619D01*
X011650Y010554D02*
X011750Y010554D01*
X011750Y010456D02*
X011650Y010456D01*
X011650Y010357D02*
X011750Y010357D01*
X011750Y010259D02*
X011650Y010259D01*
X011800Y009889D02*
X011810Y009879D01*
X011400Y009889D02*
X011400Y009379D01*
X011250Y009379D01*
X011390Y009372D02*
X011045Y009372D01*
X011045Y009274D02*
X011390Y009274D01*
X011390Y009175D02*
X011045Y009175D01*
X011045Y009170D02*
X011045Y009569D01*
X010945Y009668D01*
X010640Y009668D01*
X010640Y009776D01*
X010665Y009836D01*
X010665Y009961D01*
X010656Y009983D01*
X010690Y009949D01*
X010980Y009949D01*
X010980Y009659D01*
X011080Y009559D01*
X011340Y009559D01*
X011360Y009579D01*
X011390Y009579D01*
X011390Y009170D01*
X011280Y009170D01*
X011280Y008863D01*
X011180Y008863D01*
X011180Y009170D01*
X011045Y009170D01*
X011180Y009077D02*
X011280Y009077D01*
X011280Y008978D02*
X011180Y008978D01*
X011180Y008880D02*
X011280Y008880D01*
X011390Y009471D02*
X011045Y009471D01*
X011044Y009569D02*
X011070Y009569D01*
X010980Y009668D02*
X010946Y009668D01*
X010980Y009766D02*
X010640Y009766D01*
X010665Y009865D02*
X010980Y009865D01*
X010676Y009963D02*
X010664Y009963D01*
X010060Y009776D02*
X010060Y009395D01*
X010075Y009358D01*
X010075Y008942D01*
X009930Y009087D01*
X009709Y009179D01*
X009470Y009179D01*
X009250Y009087D01*
X009081Y008919D01*
X008990Y008698D01*
X008990Y007599D01*
X006770Y007599D01*
X006770Y007501D02*
X007039Y007501D01*
X007047Y007505D02*
X006966Y007464D01*
X006892Y007410D01*
X006828Y007345D01*
X006774Y007272D01*
X006770Y007264D01*
X006770Y008306D01*
X007194Y008730D01*
X008249Y008730D01*
X008470Y008821D01*
X008639Y008990D01*
X008730Y009210D01*
X008730Y009449D01*
X008639Y009670D01*
X008470Y009838D01*
X008392Y009871D01*
X008444Y009893D01*
X008894Y010343D01*
X008965Y010414D01*
X008983Y010414D01*
X009065Y010496D01*
X009068Y010492D01*
X009096Y010464D01*
X009130Y010444D01*
X009168Y010434D01*
X009394Y010434D01*
X009394Y010849D01*
X009494Y010849D01*
X009494Y010434D01*
X009719Y010434D01*
X009758Y010444D01*
X009760Y010445D01*
X009760Y010141D01*
X009804Y010034D01*
X009886Y009953D01*
X010058Y009781D01*
X010060Y009776D01*
X010060Y009766D02*
X008542Y009766D01*
X008639Y009668D02*
X010060Y009668D01*
X010060Y009569D02*
X008680Y009569D01*
X008721Y009471D02*
X010060Y009471D01*
X010069Y009372D02*
X008730Y009372D01*
X008730Y009274D02*
X010075Y009274D01*
X010075Y009175D02*
X009718Y009175D01*
X009940Y009077D02*
X010075Y009077D01*
X010075Y008978D02*
X010039Y008978D01*
X009462Y009175D02*
X008715Y009175D01*
X008675Y009077D02*
X009239Y009077D01*
X009141Y008978D02*
X008627Y008978D01*
X008528Y008880D02*
X009065Y008880D01*
X009024Y008781D02*
X008373Y008781D01*
X008990Y008683D02*
X007147Y008683D01*
X007048Y008584D02*
X008990Y008584D01*
X008990Y008486D02*
X006950Y008486D01*
X006851Y008387D02*
X008990Y008387D01*
X008990Y008289D02*
X006770Y008289D01*
X006770Y008190D02*
X008990Y008190D01*
X008990Y008092D02*
X006770Y008092D01*
X006770Y007993D02*
X008990Y007993D01*
X008990Y007895D02*
X006770Y007895D01*
X006770Y007796D02*
X008990Y007796D01*
X008990Y007698D02*
X006770Y007698D01*
X006770Y007402D02*
X006884Y007402D01*
X006797Y007304D02*
X006770Y007304D01*
X007047Y007505D02*
X007134Y007533D01*
X007224Y007548D01*
X007650Y007548D01*
X007650Y007018D01*
X007750Y007018D01*
X007750Y007548D01*
X008176Y007548D01*
X008266Y007533D01*
X008353Y007505D01*
X008434Y007464D01*
X008508Y007410D01*
X008572Y007345D01*
X008626Y007272D01*
X008668Y007190D01*
X008696Y007103D01*
X008709Y007018D01*
X007750Y007018D01*
X007750Y006918D01*
X008709Y006918D01*
X008696Y006832D01*
X008668Y006745D01*
X008626Y006664D01*
X008572Y006590D01*
X008508Y006525D01*
X008434Y006472D01*
X008353Y006430D01*
X008266Y006402D01*
X008176Y006388D01*
X007750Y006388D01*
X007750Y006918D01*
X007650Y006918D01*
X007650Y006388D01*
X007224Y006388D01*
X007134Y006402D01*
X007047Y006430D01*
X006966Y006472D01*
X006892Y006525D01*
X006828Y006590D01*
X006774Y006664D01*
X006770Y006671D01*
X006770Y004915D01*
X006706Y004761D01*
X006588Y004643D01*
X006482Y004599D01*
X009461Y004599D01*
X009461Y006132D01*
X009561Y006231D01*
X010469Y006231D01*
X010394Y006306D01*
X010350Y006412D01*
X010350Y008029D01*
X010190Y008029D01*
X010190Y007599D01*
X010350Y007599D01*
X010350Y007501D02*
X010149Y007501D01*
X010190Y007599D02*
X010098Y007379D01*
X009930Y007210D01*
X009709Y007119D01*
X009470Y007119D01*
X009250Y007210D01*
X009081Y007379D01*
X008990Y007599D01*
X009031Y007501D02*
X008361Y007501D01*
X008516Y007402D02*
X009071Y007402D01*
X009156Y007304D02*
X008603Y007304D01*
X008660Y007205D02*
X009262Y007205D01*
X008695Y007107D02*
X010350Y007107D01*
X010350Y007205D02*
X009918Y007205D01*
X010023Y007304D02*
X010350Y007304D01*
X010350Y007402D02*
X010108Y007402D01*
X010190Y007698D02*
X010350Y007698D01*
X010350Y007796D02*
X010190Y007796D01*
X010190Y007895D02*
X010350Y007895D01*
X010350Y007993D02*
X010190Y007993D01*
X010350Y007008D02*
X007750Y007008D01*
X007750Y006910D02*
X007650Y006910D01*
X007650Y006811D02*
X007750Y006811D01*
X007750Y006713D02*
X007650Y006713D01*
X007650Y006614D02*
X007750Y006614D01*
X007750Y006516D02*
X007650Y006516D01*
X007650Y006417D02*
X007750Y006417D01*
X007087Y006417D02*
X006770Y006417D01*
X006770Y006319D02*
X010389Y006319D01*
X010350Y006417D02*
X008313Y006417D01*
X008495Y006516D02*
X010350Y006516D01*
X010350Y006614D02*
X008590Y006614D01*
X008651Y006713D02*
X010350Y006713D01*
X010350Y006811D02*
X008689Y006811D01*
X008708Y006910D02*
X010350Y006910D01*
X009550Y006220D02*
X006770Y006220D01*
X006770Y006122D02*
X009461Y006122D01*
X009461Y006023D02*
X006770Y006023D01*
X006770Y005925D02*
X009461Y005925D01*
X009461Y005826D02*
X006770Y005826D01*
X006770Y005728D02*
X009461Y005728D01*
X009461Y005629D02*
X006770Y005629D01*
X006770Y005531D02*
X009461Y005531D01*
X009461Y005432D02*
X006770Y005432D01*
X006770Y005334D02*
X009461Y005334D01*
X009461Y005235D02*
X006770Y005235D01*
X006770Y005137D02*
X009461Y005137D01*
X009461Y005038D02*
X006770Y005038D01*
X006770Y004940D02*
X009461Y004940D01*
X009461Y004841D02*
X006739Y004841D01*
X006688Y004743D02*
X009461Y004743D01*
X009461Y004644D02*
X006589Y004644D01*
X006770Y006516D02*
X006905Y006516D01*
X006810Y006614D02*
X006770Y006614D01*
X007650Y007107D02*
X007750Y007107D01*
X007750Y007205D02*
X007650Y007205D01*
X007650Y007304D02*
X007750Y007304D01*
X007750Y007402D02*
X007650Y007402D01*
X007650Y007501D02*
X007750Y007501D01*
X006750Y008849D02*
X007250Y009349D01*
X007650Y009349D01*
X007700Y009349D01*
X008406Y009865D02*
X009974Y009865D01*
X009875Y009963D02*
X008515Y009963D01*
X008613Y010062D02*
X009793Y010062D01*
X009760Y010160D02*
X008712Y010160D01*
X008810Y010259D02*
X009760Y010259D01*
X009760Y010357D02*
X008909Y010357D01*
X009025Y010456D02*
X009110Y010456D01*
X009394Y010456D02*
X009494Y010456D01*
X009494Y010554D02*
X009394Y010554D01*
X009394Y010653D02*
X009494Y010653D01*
X009494Y010751D02*
X009394Y010751D01*
X009450Y011699D02*
X009450Y011716D01*
X007657Y013115D02*
X007623Y013115D01*
X007324Y013312D02*
X007228Y013312D01*
X007228Y013411D02*
X007324Y013411D01*
X007324Y013509D02*
X007228Y013509D01*
X006945Y013509D02*
X006422Y013509D01*
X006323Y013411D02*
X006929Y013411D01*
X006929Y013312D02*
X006225Y013312D01*
X005730Y013279D02*
X005730Y012840D01*
X005615Y012725D01*
X005598Y012765D01*
X005466Y012897D01*
X005293Y012969D01*
X004507Y012969D01*
X004425Y012935D01*
X004320Y013040D01*
X004320Y013114D01*
X004334Y013100D01*
X004507Y013029D01*
X005293Y013029D01*
X005466Y013100D01*
X005598Y013233D01*
X005618Y013279D01*
X005730Y013279D01*
X005730Y013214D02*
X005580Y013214D01*
X005481Y013115D02*
X005730Y013115D01*
X005730Y013017D02*
X004343Y013017D01*
X004115Y012623D02*
X003900Y012623D01*
X003900Y012721D02*
X004016Y012721D01*
X003918Y012820D02*
X003900Y012820D01*
X003900Y012524D02*
X004130Y012524D01*
X004130Y012426D02*
X003900Y012426D01*
X003900Y012327D02*
X004162Y012327D01*
X004205Y012229D02*
X003900Y012229D01*
X003900Y012130D02*
X004304Y012130D01*
X004499Y012032D02*
X003900Y012032D01*
X003900Y011933D02*
X004481Y011933D01*
X004495Y011938D02*
X004427Y011916D01*
X004364Y011884D01*
X004307Y011842D01*
X004257Y011792D01*
X004215Y011735D01*
X004183Y011671D01*
X004161Y011604D01*
X004152Y011549D01*
X004850Y011549D01*
X004850Y011949D01*
X004565Y011949D01*
X004495Y011938D01*
X004300Y011835D02*
X003900Y011835D01*
X003900Y011736D02*
X004216Y011736D01*
X004172Y011638D02*
X003900Y011638D01*
X003900Y011539D02*
X004850Y011539D01*
X004850Y011549D02*
X004850Y011449D01*
X004152Y011449D01*
X004161Y011393D01*
X004183Y011326D01*
X004215Y011263D01*
X004257Y011206D01*
X004307Y011155D01*
X004364Y011114D01*
X004427Y011082D01*
X004495Y011060D01*
X004565Y011049D01*
X004850Y011049D01*
X004850Y011449D01*
X004950Y011449D01*
X004950Y011549D01*
X004850Y011549D01*
X004850Y011638D02*
X004950Y011638D01*
X004950Y011549D02*
X004950Y011949D01*
X005235Y011949D01*
X005305Y011938D01*
X005373Y011916D01*
X005436Y011884D01*
X005493Y011842D01*
X005543Y011792D01*
X005585Y011735D01*
X005617Y011671D01*
X005639Y011604D01*
X005648Y011549D01*
X004950Y011549D01*
X004950Y011539D02*
X005730Y011539D01*
X005730Y011441D02*
X005646Y011441D01*
X005648Y011449D02*
X004950Y011449D01*
X004950Y011049D01*
X005235Y011049D01*
X005305Y011060D01*
X005373Y011082D01*
X005436Y011114D01*
X005493Y011155D01*
X005543Y011206D01*
X005585Y011263D01*
X005617Y011326D01*
X005639Y011393D01*
X005648Y011449D01*
X005622Y011342D02*
X005730Y011342D01*
X005663Y011244D02*
X005571Y011244D01*
X005565Y011145D02*
X005479Y011145D01*
X005466Y011047D02*
X003900Y011047D01*
X003900Y011145D02*
X004321Y011145D01*
X004229Y011244D02*
X003900Y011244D01*
X003900Y011342D02*
X004178Y011342D01*
X004154Y011441D02*
X003900Y011441D01*
X003900Y010948D02*
X004457Y010948D01*
X004286Y010850D02*
X003900Y010850D01*
X003900Y010751D02*
X004196Y010751D01*
X004155Y010653D02*
X003900Y010653D01*
X003900Y010554D02*
X004130Y010554D01*
X004130Y010456D02*
X003900Y010456D01*
X003900Y010357D02*
X004150Y010357D01*
X004191Y010259D02*
X003900Y010259D01*
X003900Y010160D02*
X004274Y010160D01*
X004427Y010062D02*
X003900Y010062D01*
X003900Y009963D02*
X005303Y009963D01*
X005373Y010062D02*
X005402Y010062D01*
X005205Y009865D02*
X003900Y009865D01*
X003900Y009766D02*
X005106Y009766D01*
X005008Y009668D02*
X003900Y009668D01*
X003900Y009569D02*
X004993Y009569D01*
X004993Y009471D02*
X003900Y009471D01*
X003900Y009372D02*
X004993Y009372D01*
X004993Y009274D02*
X003900Y009274D01*
X004137Y009175D02*
X004237Y009175D01*
X004237Y009077D02*
X004137Y009077D01*
X004137Y008978D02*
X004237Y008978D01*
X004237Y008880D02*
X004137Y008880D01*
X004479Y009175D02*
X004677Y009175D01*
X004607Y009077D02*
X004567Y009077D01*
X004573Y008978D02*
X004607Y008978D01*
X004607Y008880D02*
X004573Y008880D01*
X005343Y010948D02*
X005368Y010948D01*
X004950Y011145D02*
X004850Y011145D01*
X004850Y011244D02*
X004950Y011244D01*
X004950Y011342D02*
X004850Y011342D01*
X004850Y011441D02*
X004950Y011441D01*
X004950Y011736D02*
X004850Y011736D01*
X004850Y011835D02*
X004950Y011835D01*
X004950Y011933D02*
X004850Y011933D01*
X005301Y012032D02*
X005730Y012032D01*
X005730Y012130D02*
X005496Y012130D01*
X005595Y012229D02*
X005730Y012229D01*
X005730Y011933D02*
X005319Y011933D01*
X005500Y011835D02*
X005730Y011835D01*
X005730Y011736D02*
X005584Y011736D01*
X005628Y011638D02*
X005730Y011638D01*
X005710Y012820D02*
X005544Y012820D01*
X005415Y012918D02*
X005730Y012918D01*
X005650Y013499D02*
X004900Y013499D01*
X005293Y013969D02*
X004507Y013969D01*
X004334Y013897D01*
X004320Y013883D01*
X004320Y014114D01*
X004334Y014100D01*
X004320Y014100D01*
X004334Y014100D02*
X004507Y014029D01*
X005293Y014029D01*
X005466Y014100D01*
X005930Y014100D01*
X005930Y014090D02*
X005600Y013760D01*
X005598Y013765D01*
X005466Y013897D01*
X005293Y013969D01*
X005452Y013903D02*
X005743Y013903D01*
X005645Y013805D02*
X005559Y013805D01*
X005466Y014100D02*
X005598Y014233D01*
X005618Y014279D01*
X005930Y014279D01*
X005930Y014090D01*
X005930Y014199D02*
X005565Y014199D01*
X005842Y014002D02*
X004320Y014002D01*
X004320Y013903D02*
X004348Y013903D01*
X004900Y014499D02*
X006050Y014499D01*
X006500Y014949D01*
X007050Y014949D01*
X010000Y017899D01*
X010000Y019449D01*
X009700Y019749D01*
X009100Y019749D01*
X009093Y019749D01*
X009100Y019749D02*
X009100Y019799D01*
X009050Y019849D01*
X009050Y020099D01*
X009408Y020457D01*
X009408Y021696D01*
X009605Y021696D02*
X009605Y020144D01*
X011000Y018749D01*
X010600Y018349D01*
X010600Y018149D01*
X007150Y014699D01*
X006600Y014699D01*
X006150Y014249D01*
X006150Y013999D01*
X005650Y013499D01*
X006370Y014080D02*
X006370Y014158D01*
X006691Y014479D01*
X007241Y014479D01*
X007370Y014608D01*
X007576Y014814D01*
X007873Y014814D01*
X007873Y015111D01*
X010820Y018058D01*
X010820Y018258D01*
X010971Y018408D01*
X010971Y018060D01*
X011070Y017961D01*
X012077Y017961D01*
X012177Y018060D01*
X012177Y018264D01*
X012280Y018368D01*
X012280Y016120D01*
X012243Y016083D01*
X012114Y015954D01*
X012114Y015417D01*
X012096Y015410D01*
X011978Y015291D01*
X011914Y015137D01*
X011914Y014970D01*
X011978Y014816D01*
X012096Y014697D01*
X012114Y014690D01*
X012114Y014644D01*
X011267Y013797D01*
X011267Y013962D01*
X011277Y014011D01*
X011267Y014067D01*
X011267Y014362D01*
X011172Y014456D01*
X011226Y014456D01*
X011226Y014833D01*
X011322Y014833D01*
X011322Y014456D01*
X011491Y014456D01*
X011529Y014466D01*
X011563Y014486D01*
X011591Y014514D01*
X011611Y014548D01*
X011621Y014586D01*
X011621Y014833D01*
X011322Y014833D01*
X011322Y014930D01*
X011226Y014930D01*
X011226Y015307D01*
X011194Y015307D01*
X011194Y015549D01*
X011294Y015549D01*
X011294Y015236D01*
X011322Y015236D01*
X011322Y014930D01*
X011621Y014930D01*
X011621Y015177D01*
X011611Y015215D01*
X011591Y015250D01*
X011563Y015277D01*
X011558Y015280D01*
X011571Y015294D01*
X011591Y015328D01*
X011601Y015366D01*
X011601Y015549D01*
X011294Y015549D01*
X011294Y015649D01*
X011194Y015649D01*
X011194Y015961D01*
X011018Y015961D01*
X010980Y015951D01*
X010946Y015931D01*
X010918Y015903D01*
X010915Y015899D01*
X010833Y015981D01*
X010746Y015981D01*
X010715Y016012D01*
X010703Y016018D01*
X010692Y016026D01*
X010635Y016046D01*
X010579Y016069D01*
X010566Y016069D01*
X010553Y016073D01*
X010492Y016069D01*
X009376Y016069D01*
X009240Y016012D01*
X009136Y015908D01*
X009086Y015858D01*
X008737Y015509D01*
X008714Y015509D01*
X008706Y015506D01*
X008441Y015506D01*
X008342Y015407D01*
X008342Y015001D01*
X008337Y015020D01*
X008317Y015054D01*
X008289Y015082D01*
X008255Y015102D01*
X008217Y015112D01*
X007970Y015112D01*
X007970Y014814D01*
X008347Y014814D01*
X008347Y014867D01*
X008441Y014773D01*
X008706Y014773D01*
X008714Y014769D01*
X008849Y014769D01*
X008861Y014758D01*
X008441Y014758D01*
X008347Y014664D01*
X008347Y014717D01*
X007970Y014717D01*
X007970Y014814D01*
X007873Y014814D01*
X007873Y014717D01*
X007496Y014717D01*
X007496Y014549D01*
X007506Y014511D01*
X007525Y014477D01*
X007383Y014477D01*
X007283Y014378D01*
X007283Y014269D01*
X006559Y014269D01*
X006370Y014080D01*
X006370Y014100D02*
X006390Y014100D01*
X006411Y014199D02*
X006489Y014199D01*
X006510Y014297D02*
X007283Y014297D01*
X007301Y014396D02*
X006608Y014396D01*
X006650Y014049D02*
X007683Y014049D01*
X007650Y014032D01*
X007515Y014494D02*
X007257Y014494D01*
X007355Y014593D02*
X007496Y014593D01*
X007496Y014691D02*
X007454Y014691D01*
X007552Y014790D02*
X007873Y014790D01*
X007970Y014790D02*
X008424Y014790D01*
X008374Y014691D02*
X008347Y014691D01*
X008342Y015085D02*
X008284Y015085D01*
X008342Y015184D02*
X007946Y015184D01*
X007970Y015085D02*
X007873Y015085D01*
X007873Y014987D02*
X007970Y014987D01*
X007970Y014888D02*
X007873Y014888D01*
X008045Y015282D02*
X008342Y015282D01*
X008342Y015381D02*
X008143Y015381D01*
X008242Y015479D02*
X008414Y015479D01*
X008340Y015578D02*
X008806Y015578D01*
X008904Y015676D02*
X008439Y015676D01*
X008537Y015775D02*
X009003Y015775D01*
X009086Y015858D02*
X009086Y015858D01*
X009101Y015873D02*
X008636Y015873D01*
X008734Y015972D02*
X009200Y015972D01*
X008931Y016169D02*
X012280Y016169D01*
X012280Y016267D02*
X009030Y016267D01*
X009128Y016366D02*
X012280Y016366D01*
X012280Y016464D02*
X009227Y016464D01*
X009325Y016563D02*
X012280Y016563D01*
X012280Y016661D02*
X009424Y016661D01*
X009522Y016760D02*
X012280Y016760D01*
X012280Y016858D02*
X009621Y016858D01*
X009719Y016957D02*
X012280Y016957D01*
X012280Y017055D02*
X009818Y017055D01*
X009916Y017154D02*
X012280Y017154D01*
X012280Y017252D02*
X010015Y017252D01*
X010113Y017351D02*
X012280Y017351D01*
X012280Y017449D02*
X010212Y017449D01*
X010310Y017548D02*
X012280Y017548D01*
X012280Y017646D02*
X010409Y017646D01*
X010507Y017745D02*
X012280Y017745D01*
X012280Y017843D02*
X010606Y017843D01*
X010704Y017942D02*
X012280Y017942D01*
X012280Y018040D02*
X012157Y018040D01*
X012177Y018139D02*
X012280Y018139D01*
X012280Y018237D02*
X012177Y018237D01*
X012248Y018336D02*
X012280Y018336D01*
X012250Y018649D02*
X011850Y018249D01*
X011574Y018249D01*
X011574Y018749D02*
X011000Y018749D01*
X010971Y018336D02*
X010898Y018336D01*
X010971Y018237D02*
X010820Y018237D01*
X010820Y018139D02*
X010971Y018139D01*
X010990Y018040D02*
X010803Y018040D01*
X010950Y019249D02*
X011574Y019249D01*
X011565Y019740D02*
X010991Y019740D01*
X010991Y019611D01*
X011001Y019573D01*
X011021Y019539D01*
X011046Y019513D01*
X011022Y019488D01*
X010022Y020488D01*
X010022Y020666D01*
X010580Y020108D01*
X010709Y019979D01*
X011040Y019979D01*
X011021Y019959D01*
X011001Y019925D01*
X010991Y019887D01*
X010991Y019758D01*
X011565Y019758D01*
X011565Y019740D01*
X011450Y020049D02*
X012100Y020049D01*
X012250Y019899D01*
X012250Y018649D01*
X011450Y020049D02*
X011300Y020199D01*
X010800Y020199D01*
X010000Y020999D01*
X010000Y021694D01*
X009998Y021696D01*
X010190Y021689D02*
X010190Y021459D01*
X010400Y021509D02*
X010400Y021689D01*
X010390Y021689D01*
X010589Y021696D02*
X010589Y021428D01*
X010310Y021149D01*
X010625Y021153D02*
X010680Y021208D01*
X010763Y021290D01*
X010763Y020940D01*
X011284Y020419D01*
X011209Y020419D01*
X010891Y020419D01*
X010446Y020864D01*
X010488Y020882D01*
X010577Y020970D01*
X010625Y021086D01*
X010625Y021153D01*
X010650Y021149D02*
X010650Y020849D01*
X010512Y020798D02*
X010905Y020798D01*
X011003Y020700D02*
X010610Y020700D01*
X010709Y020601D02*
X011102Y020601D01*
X011200Y020503D02*
X010807Y020503D01*
X010806Y020897D02*
X010504Y020897D01*
X010587Y020995D02*
X010763Y020995D01*
X010763Y021094D02*
X010625Y021094D01*
X010650Y021149D02*
X010786Y021285D01*
X010786Y021696D01*
X010680Y021208D02*
X010680Y021208D01*
X010665Y021192D02*
X010763Y021192D01*
X010086Y020601D02*
X010022Y020601D01*
X010022Y020503D02*
X010185Y020503D01*
X010106Y020404D02*
X010283Y020404D01*
X010204Y020306D02*
X010382Y020306D01*
X010303Y020207D02*
X010480Y020207D01*
X010401Y020109D02*
X010579Y020109D01*
X010500Y020010D02*
X010677Y020010D01*
X010598Y019912D02*
X010997Y019912D01*
X010991Y019813D02*
X010697Y019813D01*
X010795Y019715D02*
X010991Y019715D01*
X010991Y019616D02*
X010894Y019616D01*
X010992Y019518D02*
X011041Y019518D01*
X010950Y019249D02*
X009802Y020397D01*
X009802Y021696D01*
X009800Y021694D01*
X009211Y021696D02*
X009211Y020560D01*
X008850Y020199D01*
X008500Y020199D01*
X008350Y020049D01*
X008350Y019399D01*
X008500Y019249D01*
X009093Y019249D01*
X009650Y019249D01*
X009750Y019149D01*
X009750Y017999D01*
X007750Y015999D01*
X006850Y015999D01*
X006350Y015499D01*
X004900Y015499D01*
X005293Y015969D02*
X004507Y015969D01*
X004334Y015897D01*
X004320Y015883D01*
X004320Y016114D01*
X004334Y016100D01*
X004507Y016029D01*
X005293Y016029D01*
X005466Y016100D01*
X005598Y016233D01*
X005618Y016279D01*
X006441Y016279D01*
X007041Y016879D01*
X007170Y017008D01*
X007170Y019758D01*
X007389Y019977D01*
X007433Y019870D01*
X007450Y019853D01*
X007450Y018738D01*
X007488Y018646D01*
X007558Y018576D01*
X007603Y018531D01*
X007695Y018493D01*
X007717Y018493D01*
X007717Y018466D01*
X007800Y018384D01*
X007795Y018381D01*
X007767Y018353D01*
X007748Y018319D01*
X007737Y018281D01*
X007737Y018104D01*
X008050Y018104D01*
X008050Y018004D01*
X008150Y018004D01*
X008150Y017698D01*
X008332Y017698D01*
X008370Y017708D01*
X008380Y017713D01*
X008380Y017511D01*
X008130Y017261D01*
X008022Y017216D01*
X007933Y017127D01*
X007885Y017011D01*
X007885Y016886D01*
X007933Y016770D01*
X008022Y016682D01*
X008092Y016652D01*
X007659Y016219D01*
X006759Y016219D01*
X006630Y016090D01*
X006259Y015719D01*
X005618Y015719D01*
X005598Y015765D01*
X005466Y015897D01*
X005293Y015969D01*
X005394Y016070D02*
X006610Y016070D01*
X006512Y015972D02*
X004320Y015972D01*
X004320Y016070D02*
X004406Y016070D01*
X004900Y016499D02*
X006350Y016499D01*
X006950Y017099D01*
X006950Y019849D01*
X007500Y020399D01*
X008750Y020399D01*
X009014Y020663D01*
X009014Y021696D01*
X008817Y021696D02*
X008817Y020926D01*
X008630Y020739D01*
X008561Y020798D02*
X008794Y020798D01*
X008794Y020754D02*
X008794Y021032D01*
X008620Y020858D01*
X008491Y020729D01*
X008391Y020729D01*
X008367Y020670D01*
X008315Y020619D01*
X008659Y020619D01*
X008794Y020754D01*
X008740Y020700D02*
X008379Y020700D01*
X008400Y020949D02*
X008200Y020949D01*
X008100Y020849D01*
X008104Y021164D02*
X008037Y021164D01*
X007922Y021116D01*
X007833Y021027D01*
X007785Y020911D01*
X007785Y020786D01*
X007833Y020670D01*
X007885Y020619D01*
X007409Y020619D01*
X007280Y020490D01*
X007280Y020490D01*
X006970Y020180D01*
X006970Y020458D01*
X008191Y021679D01*
X008215Y021679D01*
X008215Y021564D01*
X008227Y021518D01*
X008250Y021477D01*
X008284Y021444D01*
X008325Y021420D01*
X008370Y021408D01*
X008400Y021408D01*
X008400Y021260D01*
X008309Y021169D01*
X008109Y021169D01*
X008104Y021164D01*
X008100Y021349D02*
X008150Y021349D01*
X008350Y021549D01*
X008200Y021549D01*
X008215Y021586D02*
X008099Y021586D01*
X008000Y021488D02*
X008244Y021488D01*
X008350Y021549D02*
X008350Y021399D01*
X008400Y021389D02*
X007902Y021389D01*
X007803Y021291D02*
X008400Y021291D01*
X008332Y021192D02*
X007705Y021192D01*
X007606Y021094D02*
X007900Y021094D01*
X007820Y020995D02*
X007508Y020995D01*
X007409Y020897D02*
X007785Y020897D01*
X007785Y020798D02*
X007311Y020798D01*
X007212Y020700D02*
X007821Y020700D01*
X007391Y020601D02*
X007114Y020601D01*
X007015Y020503D02*
X007293Y020503D01*
X007194Y020404D02*
X006970Y020404D01*
X006970Y020306D02*
X007096Y020306D01*
X006997Y020207D02*
X006970Y020207D01*
X006750Y020549D02*
X008100Y021899D01*
X008174Y021899D01*
X008174Y021922D01*
X008197Y021922D01*
X008200Y021920D01*
X008197Y022119D02*
X008020Y022119D01*
X006550Y020649D01*
X006550Y018249D01*
X006150Y017849D01*
X005777Y018237D02*
X005600Y018237D01*
X005598Y018233D02*
X005670Y018405D01*
X005670Y018592D01*
X005665Y018603D01*
X006130Y019068D01*
X006130Y018590D01*
X005530Y017990D01*
X005530Y017805D01*
X005493Y017842D01*
X005436Y017884D01*
X005373Y017916D01*
X005305Y017938D01*
X005235Y017949D01*
X004950Y017949D01*
X004950Y017549D01*
X004850Y017549D01*
X004850Y017949D01*
X004565Y017949D01*
X004495Y017938D01*
X004427Y017916D01*
X004364Y017884D01*
X004320Y017852D01*
X004320Y018114D01*
X004334Y018100D01*
X004507Y018029D01*
X005293Y018029D01*
X005466Y018100D01*
X005598Y018233D01*
X005641Y018336D02*
X005876Y018336D01*
X005974Y018434D02*
X005670Y018434D01*
X005670Y018533D02*
X006073Y018533D01*
X006130Y018631D02*
X005694Y018631D01*
X005792Y018730D02*
X006130Y018730D01*
X006130Y018828D02*
X005891Y018828D01*
X005989Y018927D02*
X006130Y018927D01*
X006130Y019025D02*
X006088Y019025D01*
X006000Y019249D02*
X005250Y018499D01*
X004900Y018499D01*
X004850Y017942D02*
X004950Y017942D01*
X004950Y017843D02*
X004850Y017843D01*
X004850Y017745D02*
X004950Y017745D01*
X004950Y017646D02*
X004850Y017646D01*
X004850Y017449D02*
X004950Y017449D01*
X004950Y017049D01*
X005235Y017049D01*
X005305Y017060D01*
X005373Y017082D01*
X005436Y017114D01*
X005466Y017136D01*
X005435Y017061D01*
X005435Y016936D01*
X005448Y016905D01*
X005293Y016969D01*
X004507Y016969D01*
X004334Y016897D01*
X004320Y016883D01*
X004320Y017146D01*
X004364Y017114D01*
X004427Y017082D01*
X004495Y017060D01*
X004565Y017049D01*
X004850Y017049D01*
X004850Y017449D01*
X004850Y017351D02*
X004950Y017351D01*
X004950Y017252D02*
X004850Y017252D01*
X004850Y017154D02*
X004950Y017154D01*
X004950Y017055D02*
X004850Y017055D01*
X004523Y017055D02*
X004320Y017055D01*
X004320Y016957D02*
X004478Y016957D01*
X004521Y017942D02*
X004320Y017942D01*
X004320Y018040D02*
X004479Y018040D01*
X005279Y017942D02*
X005530Y017942D01*
X005530Y017843D02*
X005491Y017843D01*
X005580Y018040D02*
X005321Y018040D01*
X005505Y018139D02*
X005679Y018139D01*
X005750Y017899D02*
X006350Y018499D01*
X006350Y020749D01*
X007917Y022316D01*
X008197Y022316D01*
X008200Y022509D02*
X007930Y022509D01*
X007861Y022710D02*
X006000Y020849D01*
X006000Y019249D01*
X005150Y019499D02*
X005800Y020149D01*
X005800Y020949D01*
X007758Y022907D01*
X008197Y022907D01*
X008197Y023103D02*
X007655Y023103D01*
X005600Y021049D01*
X005600Y020799D01*
X005300Y020499D01*
X004900Y020499D01*
X004900Y019499D02*
X005150Y019499D01*
X005750Y017899D02*
X005750Y016999D01*
X005435Y016957D02*
X005322Y016957D01*
X005277Y017055D02*
X005435Y017055D01*
X005613Y016267D02*
X007707Y016267D01*
X007806Y016366D02*
X006528Y016366D01*
X006627Y016464D02*
X007904Y016464D01*
X008003Y016563D02*
X006725Y016563D01*
X006824Y016661D02*
X008071Y016661D01*
X007943Y016760D02*
X006922Y016760D01*
X007021Y016858D02*
X007897Y016858D01*
X007885Y016957D02*
X007119Y016957D01*
X007170Y017055D02*
X007903Y017055D01*
X007960Y017154D02*
X007170Y017154D01*
X007170Y017252D02*
X008110Y017252D01*
X008220Y017351D02*
X007170Y017351D01*
X007170Y017449D02*
X008319Y017449D01*
X008380Y017548D02*
X007170Y017548D01*
X007170Y017646D02*
X008380Y017646D01*
X008150Y017745D02*
X008050Y017745D01*
X008050Y017698D02*
X008050Y018004D01*
X007737Y018004D01*
X007737Y017828D01*
X007748Y017790D01*
X007767Y017755D01*
X007795Y017728D01*
X007830Y017708D01*
X007868Y017698D01*
X008050Y017698D01*
X008050Y017843D02*
X008150Y017843D01*
X008150Y017942D02*
X008050Y017942D01*
X008050Y018040D02*
X007170Y018040D01*
X007170Y017942D02*
X007737Y017942D01*
X007737Y017843D02*
X007170Y017843D01*
X007170Y017745D02*
X007778Y017745D01*
X007737Y018139D02*
X007170Y018139D01*
X007170Y018237D02*
X007737Y018237D01*
X007757Y018336D02*
X007170Y018336D01*
X007170Y018434D02*
X007749Y018434D01*
X007601Y018533D02*
X007170Y018533D01*
X007170Y018631D02*
X007503Y018631D01*
X007453Y018730D02*
X007170Y018730D01*
X007170Y018828D02*
X007450Y018828D01*
X007450Y018927D02*
X007170Y018927D01*
X007170Y019025D02*
X007450Y019025D01*
X007450Y019124D02*
X007170Y019124D01*
X007170Y019222D02*
X007450Y019222D01*
X007450Y019321D02*
X007170Y019321D01*
X007170Y019419D02*
X007450Y019419D01*
X007450Y019518D02*
X007170Y019518D01*
X007170Y019616D02*
X007450Y019616D01*
X007450Y019715D02*
X007170Y019715D01*
X007226Y019813D02*
X007450Y019813D01*
X007416Y019912D02*
X007324Y019912D01*
X006750Y020549D02*
X006750Y017399D01*
X006550Y017199D01*
X006709Y016169D02*
X005535Y016169D01*
X005490Y015873D02*
X006413Y015873D01*
X006315Y015775D02*
X005589Y015775D01*
X005618Y015279D02*
X006441Y015279D01*
X006941Y015779D01*
X007569Y015779D01*
X006959Y015169D01*
X006409Y015169D01*
X006280Y015040D01*
X006280Y015040D01*
X005959Y014719D01*
X005618Y014719D01*
X005598Y014765D01*
X005466Y014897D01*
X005293Y014969D01*
X004507Y014969D01*
X004334Y014897D01*
X004320Y014883D01*
X004320Y015114D01*
X004334Y015100D01*
X004507Y015029D01*
X005293Y015029D01*
X005466Y015100D01*
X005598Y015233D01*
X005618Y015279D01*
X005550Y015184D02*
X006974Y015184D01*
X007072Y015282D02*
X006445Y015282D01*
X006543Y015381D02*
X007171Y015381D01*
X007269Y015479D02*
X006642Y015479D01*
X006740Y015578D02*
X007368Y015578D01*
X007466Y015676D02*
X006839Y015676D01*
X006937Y015775D02*
X007565Y015775D01*
X008833Y016070D02*
X010514Y016070D01*
X010561Y016070D02*
X012230Y016070D01*
X012132Y015972D02*
X010842Y015972D01*
X011194Y015873D02*
X011294Y015873D01*
X011294Y015961D02*
X011294Y015649D01*
X011601Y015649D01*
X011601Y015831D01*
X011591Y015869D01*
X011571Y015903D01*
X011543Y015931D01*
X011509Y015951D01*
X011471Y015961D01*
X011294Y015961D01*
X011294Y015775D02*
X011194Y015775D01*
X011194Y015676D02*
X011294Y015676D01*
X011294Y015578D02*
X012114Y015578D01*
X012114Y015676D02*
X011601Y015676D01*
X011601Y015775D02*
X012114Y015775D01*
X012114Y015873D02*
X011589Y015873D01*
X011601Y015479D02*
X012114Y015479D01*
X012068Y015381D02*
X011601Y015381D01*
X011559Y015282D02*
X011975Y015282D01*
X011934Y015184D02*
X011619Y015184D01*
X011621Y015085D02*
X011914Y015085D01*
X011914Y014987D02*
X011621Y014987D01*
X011621Y014790D02*
X012004Y014790D01*
X011948Y014888D02*
X011322Y014888D01*
X011226Y014888D02*
X010896Y014888D01*
X010927Y014930D02*
X011226Y014930D01*
X011226Y014833D01*
X010927Y014833D01*
X010927Y014586D01*
X010937Y014548D01*
X010957Y014514D01*
X010985Y014486D01*
X011019Y014466D01*
X011039Y014461D01*
X010818Y014461D01*
X010893Y014536D01*
X010893Y014801D01*
X010896Y014808D01*
X010896Y015280D01*
X010915Y015299D01*
X010918Y015294D01*
X010946Y015266D01*
X010963Y015256D01*
X010957Y015250D01*
X010937Y015215D01*
X010927Y015177D01*
X010927Y014930D01*
X010927Y014987D02*
X010896Y014987D01*
X010896Y015085D02*
X010927Y015085D01*
X010929Y015184D02*
X010896Y015184D01*
X010899Y015282D02*
X010930Y015282D01*
X011194Y015381D02*
X011294Y015381D01*
X011294Y015479D02*
X011194Y015479D01*
X011226Y015282D02*
X011294Y015282D01*
X011322Y015184D02*
X011226Y015184D01*
X011226Y015085D02*
X011322Y015085D01*
X011322Y014987D02*
X011226Y014987D01*
X011226Y014790D02*
X011322Y014790D01*
X011322Y014691D02*
X011226Y014691D01*
X011226Y014593D02*
X011322Y014593D01*
X011322Y014494D02*
X011226Y014494D01*
X011233Y014396D02*
X011866Y014396D01*
X011964Y014494D02*
X011571Y014494D01*
X011621Y014593D02*
X012063Y014593D01*
X012111Y014691D02*
X011621Y014691D01*
X011767Y014297D02*
X011267Y014297D01*
X011267Y014199D02*
X011669Y014199D01*
X011570Y014100D02*
X011267Y014100D01*
X011275Y014002D02*
X011472Y014002D01*
X011373Y013903D02*
X011267Y013903D01*
X011267Y013805D02*
X011275Y013805D01*
X011705Y013312D02*
X016169Y013312D01*
X016130Y013411D02*
X011803Y013411D01*
X011902Y013509D02*
X016130Y013509D01*
X016136Y013608D02*
X012000Y013608D01*
X012099Y013706D02*
X016177Y013706D01*
X016241Y013805D02*
X012197Y013805D01*
X012296Y013903D02*
X016348Y013903D01*
X016220Y013214D02*
X011606Y013214D01*
X011508Y013115D02*
X016319Y013115D01*
X016385Y012918D02*
X012783Y012918D01*
X012790Y012820D02*
X016256Y012820D01*
X016183Y012721D02*
X012790Y012721D01*
X012685Y013017D02*
X017530Y013017D01*
X017530Y013115D02*
X017481Y013115D01*
X017530Y012918D02*
X017415Y012918D01*
X017452Y013903D02*
X017530Y013903D01*
X017530Y014002D02*
X012394Y014002D01*
X012690Y014297D02*
X015190Y014297D01*
X015092Y014396D02*
X012788Y014396D01*
X012887Y014494D02*
X014993Y014494D01*
X014895Y014593D02*
X012985Y014593D01*
X013320Y014691D02*
X014796Y014691D01*
X014698Y014790D02*
X013444Y014790D01*
X013507Y014888D02*
X014599Y014888D01*
X014501Y014987D02*
X013546Y014987D01*
X013546Y015085D02*
X014402Y015085D01*
X014304Y015184D02*
X013531Y015184D01*
X013490Y015282D02*
X014205Y015282D01*
X014107Y015381D02*
X013404Y015381D01*
X013346Y015479D02*
X014008Y015479D01*
X013910Y015578D02*
X013346Y015578D01*
X013346Y015676D02*
X013811Y015676D01*
X013713Y015775D02*
X013265Y015775D01*
X013167Y015873D02*
X013614Y015873D01*
X013516Y015972D02*
X013068Y015972D01*
X012970Y016070D02*
X013417Y016070D01*
X013319Y016169D02*
X012920Y016169D01*
X012920Y016267D02*
X013220Y016267D01*
X013122Y016366D02*
X012920Y016366D01*
X012920Y016464D02*
X013023Y016464D01*
X012925Y016563D02*
X012920Y016563D01*
X013050Y016749D02*
X013050Y020249D01*
X012500Y020799D01*
X012100Y020799D01*
X011800Y021099D01*
X011800Y021725D01*
X011603Y021922D01*
X011603Y022119D02*
X011830Y022119D01*
X012000Y021949D01*
X012000Y021249D01*
X012200Y021049D01*
X012600Y021049D01*
X013350Y020299D01*
X013350Y017449D01*
X015300Y015499D01*
X016900Y015499D01*
X017293Y015029D02*
X017466Y015100D01*
X017530Y015164D01*
X017530Y014833D01*
X017466Y014897D01*
X017293Y014969D01*
X016507Y014969D01*
X016334Y014897D01*
X016202Y014765D01*
X016182Y014719D01*
X015391Y014719D01*
X013270Y016840D01*
X013270Y017218D01*
X015080Y015408D01*
X015209Y015279D01*
X016182Y015279D01*
X016202Y015233D01*
X016334Y015100D01*
X016507Y015029D01*
X017293Y015029D01*
X017430Y015085D02*
X017530Y015085D01*
X017530Y014987D02*
X015123Y014987D01*
X015025Y015085D02*
X016370Y015085D01*
X016250Y015184D02*
X014926Y015184D01*
X014828Y015282D02*
X015205Y015282D01*
X015107Y015381D02*
X014729Y015381D01*
X014631Y015479D02*
X015008Y015479D01*
X014910Y015578D02*
X014532Y015578D01*
X014434Y015676D02*
X014811Y015676D01*
X014713Y015775D02*
X014335Y015775D01*
X014237Y015873D02*
X014614Y015873D01*
X014516Y015972D02*
X014138Y015972D01*
X014040Y016070D02*
X014417Y016070D01*
X014319Y016169D02*
X013941Y016169D01*
X013843Y016267D02*
X014220Y016267D01*
X014122Y016366D02*
X013744Y016366D01*
X013646Y016464D02*
X014023Y016464D01*
X013925Y016563D02*
X013547Y016563D01*
X013449Y016661D02*
X013826Y016661D01*
X013728Y016760D02*
X013350Y016760D01*
X013270Y016858D02*
X013629Y016858D01*
X013531Y016957D02*
X013270Y016957D01*
X013270Y017055D02*
X013432Y017055D01*
X013334Y017154D02*
X013270Y017154D01*
X013050Y016749D02*
X015300Y014499D01*
X016900Y014499D01*
X017475Y014888D02*
X017530Y014888D01*
X017530Y015833D02*
X017466Y015897D01*
X017293Y015969D01*
X016507Y015969D01*
X016334Y015897D01*
X016202Y015765D01*
X016182Y015719D01*
X015391Y015719D01*
X013570Y017540D01*
X013570Y017918D01*
X015080Y016408D01*
X015209Y016279D01*
X016182Y016279D01*
X016202Y016233D01*
X016334Y016100D01*
X016507Y016029D01*
X017293Y016029D01*
X017466Y016100D01*
X017530Y016164D01*
X017530Y015833D01*
X017530Y015873D02*
X017490Y015873D01*
X017530Y015972D02*
X015138Y015972D01*
X015040Y016070D02*
X016406Y016070D01*
X016265Y016169D02*
X014941Y016169D01*
X014843Y016267D02*
X016187Y016267D01*
X016182Y016719D02*
X015391Y016719D01*
X013770Y018340D01*
X013770Y020540D01*
X013641Y020669D01*
X012969Y021341D01*
X012983Y021355D01*
X013002Y021390D01*
X013013Y021428D01*
X013013Y021604D01*
X012700Y021604D01*
X012700Y021704D01*
X013013Y021704D01*
X013013Y021881D01*
X013002Y021919D01*
X012983Y021953D01*
X012955Y021981D01*
X012950Y021984D01*
X013033Y022066D01*
X013033Y022620D01*
X012933Y022720D01*
X012398Y022720D01*
X012387Y022747D01*
X012298Y022836D01*
X012257Y022853D01*
X012181Y022929D01*
X013239Y022929D01*
X013239Y022520D01*
X013292Y022466D01*
X013279Y022453D01*
X013259Y022419D01*
X013249Y022381D01*
X013249Y022199D01*
X013556Y022199D01*
X013556Y022099D01*
X013656Y022099D01*
X013656Y021786D01*
X013832Y021786D01*
X013870Y021796D01*
X013904Y021816D01*
X013932Y021844D01*
X013935Y021849D01*
X014017Y021766D01*
X014572Y021766D01*
X014671Y021866D01*
X014671Y022432D01*
X014622Y022481D01*
X014661Y022520D01*
X014661Y023212D01*
X014574Y023299D01*
X014661Y023386D01*
X014661Y024078D01*
X014580Y024159D01*
X014591Y024178D01*
X014601Y024216D01*
X014601Y024399D01*
X014294Y024399D01*
X014294Y024499D01*
X014601Y024499D01*
X014601Y024579D01*
X014759Y024579D01*
X014930Y024408D01*
X014930Y020281D01*
X014717Y020281D01*
X014635Y020199D01*
X014632Y020203D01*
X014604Y020231D01*
X014570Y020251D01*
X014532Y020261D01*
X014356Y020261D01*
X014356Y019949D01*
X014256Y019949D01*
X014256Y020261D01*
X014079Y020261D01*
X014041Y020251D01*
X014007Y020231D01*
X013979Y020203D01*
X013959Y020169D01*
X013949Y020131D01*
X013949Y019949D01*
X014256Y019949D01*
X014256Y019849D01*
X014356Y019849D01*
X014356Y019536D01*
X014532Y019536D01*
X014570Y019546D01*
X014604Y019566D01*
X014632Y019594D01*
X014635Y019599D01*
X014717Y019516D01*
X014930Y019516D01*
X014930Y019258D01*
X015780Y018408D01*
X015909Y018279D01*
X016182Y018279D01*
X016202Y018233D01*
X016334Y018100D01*
X016507Y018029D01*
X017293Y018029D01*
X017340Y018048D01*
X017530Y017858D01*
X017530Y017805D01*
X017493Y017842D01*
X017436Y017884D01*
X017373Y017916D01*
X017305Y017938D01*
X017235Y017949D01*
X016950Y017949D01*
X016950Y017549D01*
X016850Y017549D01*
X016850Y017949D01*
X016565Y017949D01*
X016495Y017938D01*
X016427Y017916D01*
X016364Y017884D01*
X016307Y017842D01*
X016257Y017792D01*
X016215Y017735D01*
X016183Y017671D01*
X016161Y017604D01*
X016152Y017549D01*
X016850Y017549D01*
X016850Y017449D01*
X016152Y017449D01*
X016161Y017393D01*
X016183Y017326D01*
X016215Y017263D01*
X016257Y017206D01*
X016307Y017155D01*
X016364Y017114D01*
X016427Y017082D01*
X016495Y017060D01*
X016565Y017049D01*
X016850Y017049D01*
X016850Y017449D01*
X016950Y017449D01*
X016950Y017049D01*
X017235Y017049D01*
X017305Y017060D01*
X017373Y017082D01*
X017436Y017114D01*
X017493Y017155D01*
X017530Y017192D01*
X017530Y016833D01*
X017466Y016897D01*
X017293Y016969D01*
X016507Y016969D01*
X016334Y016897D01*
X016202Y016765D01*
X016182Y016719D01*
X016199Y016760D02*
X015350Y016760D01*
X015252Y016858D02*
X016295Y016858D01*
X016478Y016957D02*
X015153Y016957D01*
X015055Y017055D02*
X016523Y017055D01*
X016309Y017154D02*
X014956Y017154D01*
X014858Y017252D02*
X016223Y017252D01*
X016175Y017351D02*
X014759Y017351D01*
X014661Y017449D02*
X016850Y017449D01*
X016850Y017351D02*
X016950Y017351D01*
X016950Y017252D02*
X016850Y017252D01*
X016850Y017154D02*
X016950Y017154D01*
X016950Y017055D02*
X016850Y017055D01*
X017277Y017055D02*
X017530Y017055D01*
X017530Y016957D02*
X017322Y016957D01*
X017505Y016858D02*
X017530Y016858D01*
X017530Y017154D02*
X017491Y017154D01*
X017491Y017843D02*
X017530Y017843D01*
X017446Y017942D02*
X017279Y017942D01*
X017321Y018040D02*
X017347Y018040D01*
X017651Y018359D02*
X017670Y018405D01*
X017670Y018592D01*
X017598Y018765D01*
X017466Y018897D01*
X017293Y018969D01*
X016507Y018969D01*
X016334Y018897D01*
X016202Y018765D01*
X016182Y018719D01*
X016091Y018719D01*
X015370Y019440D01*
X015370Y019615D01*
X015371Y019616D01*
X015371Y019766D01*
X015730Y019408D01*
X015859Y019279D01*
X016182Y019279D01*
X016202Y019233D01*
X016334Y019100D01*
X016507Y019029D01*
X017293Y019029D01*
X017466Y019100D01*
X017598Y019233D01*
X017670Y019405D01*
X017670Y019592D01*
X017598Y019765D01*
X017466Y019897D01*
X017293Y019969D01*
X016507Y019969D01*
X016334Y019897D01*
X016202Y019765D01*
X016182Y019719D01*
X016041Y019719D01*
X015570Y020190D01*
X015570Y020618D01*
X015780Y020408D01*
X015780Y020408D01*
X015909Y020279D01*
X016182Y020279D01*
X016202Y020233D01*
X016334Y020100D01*
X016507Y020029D01*
X017293Y020029D01*
X017466Y020100D01*
X017598Y020233D01*
X017670Y020405D01*
X017670Y020592D01*
X017598Y020765D01*
X017466Y020897D01*
X017293Y020969D01*
X016507Y020969D01*
X016334Y020897D01*
X016202Y020765D01*
X016182Y020719D01*
X016091Y020719D01*
X015770Y021040D01*
X015770Y021418D01*
X015780Y021408D01*
X015909Y021279D01*
X016182Y021279D01*
X016202Y021233D01*
X016334Y021100D01*
X016507Y021029D01*
X017293Y021029D01*
X017466Y021100D01*
X017598Y021233D01*
X017670Y021405D01*
X017670Y021592D01*
X017598Y021765D01*
X017466Y021897D01*
X017293Y021969D01*
X016507Y021969D01*
X016334Y021897D01*
X016202Y021765D01*
X016182Y021719D01*
X016091Y021719D01*
X015970Y021840D01*
X015970Y022318D01*
X016009Y022279D01*
X016182Y022279D01*
X016202Y022233D01*
X016334Y022100D01*
X016507Y022029D01*
X017293Y022029D01*
X017466Y022100D01*
X017598Y022233D01*
X017670Y022405D01*
X017670Y022592D01*
X017598Y022765D01*
X017466Y022897D01*
X017293Y022969D01*
X016507Y022969D01*
X016334Y022897D01*
X016202Y022765D01*
X016185Y022725D01*
X016170Y022740D01*
X016170Y023309D01*
X016202Y023233D01*
X016334Y023100D01*
X016507Y023029D01*
X017293Y023029D01*
X017466Y023100D01*
X017598Y023233D01*
X017670Y023405D01*
X017670Y023592D01*
X017598Y023765D01*
X017466Y023897D01*
X017293Y023969D01*
X016507Y023969D01*
X016425Y023935D01*
X016370Y023990D01*
X016370Y024085D01*
X016507Y024029D01*
X017293Y024029D01*
X017466Y024100D01*
X017598Y024233D01*
X017670Y024405D01*
X017670Y024592D01*
X017598Y024765D01*
X017466Y024897D01*
X017293Y024969D01*
X016570Y024969D01*
X016570Y025029D01*
X017293Y025029D01*
X017466Y025100D01*
X017598Y025233D01*
X017670Y025405D01*
X017670Y025592D01*
X017598Y025765D01*
X017466Y025897D01*
X017293Y025969D01*
X016507Y025969D01*
X016425Y025935D01*
X016311Y026049D01*
X017900Y026049D01*
X017900Y018110D01*
X017841Y018169D01*
X017651Y018359D01*
X017674Y018336D02*
X017900Y018336D01*
X017900Y018434D02*
X017670Y018434D01*
X017670Y018533D02*
X017900Y018533D01*
X017900Y018631D02*
X017654Y018631D01*
X017613Y018730D02*
X017900Y018730D01*
X017900Y018828D02*
X017535Y018828D01*
X017395Y018927D02*
X017900Y018927D01*
X017900Y019025D02*
X015785Y019025D01*
X015883Y018927D02*
X016405Y018927D01*
X016265Y018828D02*
X015982Y018828D01*
X016080Y018730D02*
X016187Y018730D01*
X016310Y019124D02*
X015686Y019124D01*
X015588Y019222D02*
X016212Y019222D01*
X015950Y019499D02*
X016900Y019499D01*
X016369Y019912D02*
X015848Y019912D01*
X015750Y020010D02*
X017900Y020010D01*
X017900Y019912D02*
X017431Y019912D01*
X017550Y019813D02*
X017900Y019813D01*
X017900Y019715D02*
X017619Y019715D01*
X017660Y019616D02*
X017900Y019616D01*
X017900Y019518D02*
X017670Y019518D01*
X017670Y019419D02*
X017900Y019419D01*
X017900Y019321D02*
X017635Y019321D01*
X017588Y019222D02*
X017900Y019222D01*
X017900Y019124D02*
X017490Y019124D01*
X017773Y018237D02*
X017900Y018237D01*
X017900Y018139D02*
X017871Y018139D01*
X016950Y017942D02*
X016850Y017942D01*
X016850Y017843D02*
X016950Y017843D01*
X016950Y017745D02*
X016850Y017745D01*
X016850Y017646D02*
X016950Y017646D01*
X016850Y017548D02*
X014562Y017548D01*
X014464Y017646D02*
X016175Y017646D01*
X016223Y017745D02*
X014365Y017745D01*
X014267Y017843D02*
X016309Y017843D01*
X016521Y017942D02*
X014168Y017942D01*
X014070Y018040D02*
X016479Y018040D01*
X016295Y018139D02*
X013971Y018139D01*
X013873Y018237D02*
X016200Y018237D01*
X015852Y018336D02*
X013774Y018336D01*
X013770Y018434D02*
X015753Y018434D01*
X015655Y018533D02*
X013770Y018533D01*
X013770Y018631D02*
X015556Y018631D01*
X015458Y018730D02*
X013770Y018730D01*
X013770Y018828D02*
X015359Y018828D01*
X015261Y018927D02*
X013770Y018927D01*
X013770Y019025D02*
X015162Y019025D01*
X015064Y019124D02*
X013770Y019124D01*
X013770Y019222D02*
X014965Y019222D01*
X014930Y019321D02*
X013770Y019321D01*
X013770Y019419D02*
X014930Y019419D01*
X014716Y019518D02*
X013770Y019518D01*
X013770Y019616D02*
X013966Y019616D01*
X013959Y019628D02*
X013979Y019594D01*
X014007Y019566D01*
X014041Y019546D01*
X014079Y019536D01*
X014256Y019536D01*
X014256Y019849D01*
X013949Y019849D01*
X013949Y019666D01*
X013959Y019628D01*
X013949Y019715D02*
X013770Y019715D01*
X013770Y019813D02*
X013949Y019813D01*
X013949Y020010D02*
X013770Y020010D01*
X013770Y019912D02*
X014256Y019912D01*
X014256Y020010D02*
X014356Y020010D01*
X014356Y020109D02*
X014256Y020109D01*
X014256Y020207D02*
X014356Y020207D01*
X014628Y020207D02*
X014643Y020207D01*
X014930Y020306D02*
X013770Y020306D01*
X013770Y020404D02*
X014930Y020404D01*
X014930Y020503D02*
X013770Y020503D01*
X013709Y020601D02*
X014930Y020601D01*
X014930Y020700D02*
X013610Y020700D01*
X013512Y020798D02*
X014930Y020798D01*
X014930Y020897D02*
X013413Y020897D01*
X013315Y020995D02*
X014930Y020995D01*
X014930Y021094D02*
X013216Y021094D01*
X013118Y021192D02*
X014930Y021192D01*
X014930Y021291D02*
X013019Y021291D01*
X013002Y021389D02*
X014930Y021389D01*
X014930Y021488D02*
X013013Y021488D01*
X013013Y021586D02*
X014930Y021586D01*
X014930Y021685D02*
X012700Y021685D01*
X013013Y021783D02*
X014000Y021783D01*
X013656Y021882D02*
X013556Y021882D01*
X013556Y021786D02*
X013556Y022099D01*
X013249Y022099D01*
X013249Y021916D01*
X013259Y021878D01*
X013279Y021844D01*
X013307Y021816D01*
X013341Y021796D01*
X013379Y021786D01*
X013556Y021786D01*
X013556Y021980D02*
X013656Y021980D01*
X013656Y022079D02*
X013556Y022079D01*
X013556Y022177D02*
X013033Y022177D01*
X013033Y022079D02*
X013249Y022079D01*
X013249Y021980D02*
X012955Y021980D01*
X013012Y021882D02*
X013258Y021882D01*
X013249Y022276D02*
X013033Y022276D01*
X013033Y022374D02*
X013249Y022374D01*
X013286Y022473D02*
X013033Y022473D01*
X013033Y022571D02*
X013239Y022571D01*
X013239Y022670D02*
X012983Y022670D01*
X013239Y022768D02*
X012366Y022768D01*
X012440Y022829D02*
X012550Y022829D01*
X012530Y022849D01*
X012440Y022829D02*
X012340Y022929D01*
X012170Y022929D01*
X011995Y023103D01*
X011603Y023103D01*
X011603Y022907D02*
X011892Y022907D01*
X012050Y022749D01*
X012050Y022599D01*
X012120Y022569D01*
X012346Y022343D01*
X012650Y022343D01*
X012200Y022049D02*
X012200Y021349D01*
X012300Y021249D01*
X012750Y021249D01*
X013550Y020449D01*
X013550Y018249D01*
X015300Y016499D01*
X016900Y016499D01*
X017394Y016070D02*
X017530Y016070D01*
X016325Y014888D02*
X015222Y014888D01*
X015320Y014790D02*
X016226Y014790D01*
X016211Y015775D02*
X015335Y015775D01*
X015237Y015873D02*
X016310Y015873D01*
X015122Y016366D02*
X014744Y016366D01*
X014646Y016464D02*
X015023Y016464D01*
X014925Y016563D02*
X014547Y016563D01*
X014449Y016661D02*
X014826Y016661D01*
X014728Y016760D02*
X014350Y016760D01*
X014252Y016858D02*
X014629Y016858D01*
X014531Y016957D02*
X014153Y016957D01*
X014055Y017055D02*
X014432Y017055D01*
X014334Y017154D02*
X013956Y017154D01*
X013858Y017252D02*
X014235Y017252D01*
X014137Y017351D02*
X013759Y017351D01*
X013661Y017449D02*
X014038Y017449D01*
X013940Y017548D02*
X013570Y017548D01*
X013570Y017646D02*
X013841Y017646D01*
X013743Y017745D02*
X013570Y017745D01*
X013570Y017843D02*
X013644Y017843D01*
X014256Y019616D02*
X014356Y019616D01*
X014356Y019715D02*
X014256Y019715D01*
X014256Y019813D02*
X014356Y019813D01*
X013949Y020109D02*
X013770Y020109D01*
X013770Y020207D02*
X013983Y020207D01*
X014589Y021783D02*
X014930Y021783D01*
X014930Y021882D02*
X014671Y021882D01*
X014671Y021980D02*
X014930Y021980D01*
X014930Y022079D02*
X014671Y022079D01*
X014671Y022177D02*
X014930Y022177D01*
X014930Y022276D02*
X014671Y022276D01*
X014671Y022374D02*
X014930Y022374D01*
X014930Y022473D02*
X014630Y022473D01*
X014661Y022571D02*
X014930Y022571D01*
X014930Y022670D02*
X014661Y022670D01*
X014661Y022768D02*
X014930Y022768D01*
X014930Y022867D02*
X014661Y022867D01*
X014661Y022965D02*
X014930Y022965D01*
X014930Y023064D02*
X014661Y023064D01*
X014661Y023162D02*
X014930Y023162D01*
X014930Y023261D02*
X014612Y023261D01*
X014635Y023359D02*
X014930Y023359D01*
X014930Y023458D02*
X014661Y023458D01*
X014661Y023556D02*
X014930Y023556D01*
X014930Y023655D02*
X014661Y023655D01*
X014661Y023753D02*
X014930Y023753D01*
X014930Y023852D02*
X014661Y023852D01*
X014661Y023950D02*
X014930Y023950D01*
X014930Y024049D02*
X014661Y024049D01*
X014592Y024147D02*
X014930Y024147D01*
X014930Y024246D02*
X014601Y024246D01*
X014601Y024344D02*
X014930Y024344D01*
X014895Y024443D02*
X014294Y024443D01*
X014601Y024541D02*
X014796Y024541D01*
X014950Y024999D02*
X015350Y024599D01*
X015350Y020099D01*
X015950Y019499D01*
X015817Y019321D02*
X015489Y019321D01*
X015391Y019419D02*
X015718Y019419D01*
X015620Y019518D02*
X015370Y019518D01*
X015371Y019616D02*
X015521Y019616D01*
X015423Y019715D02*
X015371Y019715D01*
X015651Y020109D02*
X016325Y020109D01*
X016227Y020207D02*
X015570Y020207D01*
X015570Y020306D02*
X015882Y020306D01*
X015783Y020404D02*
X015570Y020404D01*
X015570Y020503D02*
X015685Y020503D01*
X015586Y020601D02*
X015570Y020601D01*
X015550Y020949D02*
X015550Y024699D01*
X015050Y025199D01*
X011400Y025199D01*
X011376Y025175D01*
X011376Y025101D01*
X011180Y025101D02*
X011180Y025328D01*
X011250Y025399D01*
X015150Y025399D01*
X015750Y024799D01*
X015750Y021749D01*
X016000Y021499D01*
X016900Y021499D01*
X017451Y021094D02*
X017900Y021094D01*
X017900Y021192D02*
X017558Y021192D01*
X017623Y021291D02*
X017900Y021291D01*
X017900Y021389D02*
X017663Y021389D01*
X017670Y021488D02*
X017900Y021488D01*
X017900Y021586D02*
X017670Y021586D01*
X017632Y021685D02*
X017900Y021685D01*
X017900Y021783D02*
X017580Y021783D01*
X017482Y021882D02*
X017900Y021882D01*
X017900Y021980D02*
X015970Y021980D01*
X015970Y021882D02*
X016318Y021882D01*
X016220Y021783D02*
X016027Y021783D01*
X015970Y022079D02*
X016386Y022079D01*
X016257Y022177D02*
X015970Y022177D01*
X015970Y022276D02*
X016184Y022276D01*
X016100Y022499D02*
X016900Y022499D01*
X016498Y022965D02*
X016170Y022965D01*
X016170Y022867D02*
X016303Y022867D01*
X016205Y022768D02*
X016170Y022768D01*
X015950Y022649D02*
X016100Y022499D01*
X015950Y022649D02*
X015950Y024899D01*
X015250Y025599D01*
X011150Y025599D01*
X010983Y025431D01*
X010983Y025101D01*
X010786Y025101D02*
X010786Y025535D01*
X011050Y025799D01*
X015350Y025799D01*
X016150Y024999D01*
X016150Y023899D01*
X016550Y023499D01*
X016900Y023499D01*
X017302Y022965D02*
X017900Y022965D01*
X017900Y022867D02*
X017497Y022867D01*
X017595Y022768D02*
X017900Y022768D01*
X017900Y022670D02*
X017638Y022670D01*
X017670Y022571D02*
X017900Y022571D01*
X017900Y022473D02*
X017670Y022473D01*
X017657Y022374D02*
X017900Y022374D01*
X017900Y022276D02*
X017616Y022276D01*
X017543Y022177D02*
X017900Y022177D01*
X017900Y022079D02*
X017414Y022079D01*
X017378Y023064D02*
X017900Y023064D01*
X017900Y023162D02*
X017528Y023162D01*
X017610Y023261D02*
X017900Y023261D01*
X017900Y023359D02*
X017651Y023359D01*
X017670Y023458D02*
X017900Y023458D01*
X017900Y023556D02*
X017670Y023556D01*
X017644Y023655D02*
X017900Y023655D01*
X017900Y023753D02*
X017603Y023753D01*
X017512Y023852D02*
X017900Y023852D01*
X017900Y023950D02*
X017338Y023950D01*
X017342Y024049D02*
X017900Y024049D01*
X017900Y024147D02*
X017513Y024147D01*
X017604Y024246D02*
X017900Y024246D01*
X017900Y024344D02*
X017645Y024344D01*
X017670Y024443D02*
X017900Y024443D01*
X017900Y024541D02*
X017670Y024541D01*
X017650Y024640D02*
X017900Y024640D01*
X017900Y024738D02*
X017609Y024738D01*
X017527Y024837D02*
X017900Y024837D01*
X017900Y024935D02*
X017374Y024935D01*
X017306Y025034D02*
X017900Y025034D01*
X017900Y025132D02*
X017498Y025132D01*
X017597Y025231D02*
X017900Y025231D01*
X017900Y025329D02*
X017639Y025329D01*
X017670Y025428D02*
X017900Y025428D01*
X017900Y025526D02*
X017670Y025526D01*
X017657Y025625D02*
X017900Y025625D01*
X017900Y025723D02*
X017616Y025723D01*
X017542Y025822D02*
X017900Y025822D01*
X017900Y025920D02*
X017410Y025920D01*
X017900Y026019D02*
X016341Y026019D01*
X015850Y026199D02*
X016550Y025499D01*
X016900Y025499D01*
X016350Y025099D02*
X016350Y024699D01*
X016550Y024499D01*
X016900Y024499D01*
X016458Y024049D02*
X016370Y024049D01*
X016410Y023950D02*
X016462Y023950D01*
X016190Y023261D02*
X016170Y023261D01*
X016170Y023162D02*
X016272Y023162D01*
X016170Y023064D02*
X016422Y023064D01*
X015798Y021389D02*
X015770Y021389D01*
X015770Y021291D02*
X015897Y021291D01*
X015770Y021192D02*
X016242Y021192D01*
X016349Y021094D02*
X015770Y021094D01*
X015815Y020995D02*
X017900Y020995D01*
X017900Y020897D02*
X017467Y020897D01*
X017565Y020798D02*
X017900Y020798D01*
X017900Y020700D02*
X017625Y020700D01*
X017666Y020601D02*
X017900Y020601D01*
X017900Y020503D02*
X017670Y020503D01*
X017670Y020404D02*
X017900Y020404D01*
X017900Y020306D02*
X017629Y020306D01*
X017573Y020207D02*
X017900Y020207D01*
X017900Y020109D02*
X017475Y020109D01*
X016900Y020499D02*
X016000Y020499D01*
X015550Y020949D01*
X015913Y020897D02*
X016333Y020897D01*
X016235Y020798D02*
X016012Y020798D01*
X015947Y019813D02*
X016250Y019813D01*
X014294Y022149D02*
X014294Y022836D01*
X014265Y022866D01*
X014265Y022984D01*
X013950Y023299D01*
X013350Y023299D01*
X013200Y023149D01*
X012250Y023149D01*
X012098Y023300D01*
X011603Y023300D01*
X011603Y023891D02*
X012008Y023891D01*
X012050Y023849D01*
X011830Y024678D02*
X011603Y024678D01*
X011603Y024875D02*
X011726Y024875D01*
X011850Y024999D01*
X014950Y024999D01*
X015450Y025999D02*
X016350Y025099D01*
X015850Y026199D02*
X010850Y026199D01*
X010392Y025741D01*
X010392Y025101D01*
X010195Y025101D02*
X010195Y024553D01*
X010200Y024549D01*
X010200Y024449D01*
X009998Y025101D02*
X009998Y025755D01*
X010180Y025937D01*
X010180Y026192D02*
X010180Y026192D01*
X010448Y026192D01*
X010448Y026099D01*
X010450Y026099D01*
X010800Y026449D01*
X015600Y026449D01*
X015600Y027249D01*
X010700Y027249D01*
X010700Y027099D01*
X010243Y026677D01*
X010318Y026677D01*
X010356Y026667D01*
X010391Y026647D01*
X010418Y026619D01*
X010438Y026585D01*
X010448Y026547D01*
X010448Y026448D01*
X010180Y026448D01*
X010180Y026448D01*
X010180Y026192D01*
X010180Y026192D01*
X010448Y026192D01*
X010448Y026291D01*
X010441Y026320D01*
X010448Y026350D01*
X010448Y026448D01*
X010180Y026448D01*
X010180Y026220D01*
X010180Y026192D01*
X010180Y026216D02*
X010180Y026216D01*
X010180Y026314D02*
X010180Y026314D01*
X010180Y026413D02*
X010180Y026413D01*
X010180Y026448D02*
X010180Y026448D01*
X010448Y026413D02*
X010764Y026413D01*
X010666Y026314D02*
X010442Y026314D01*
X010448Y026216D02*
X010567Y026216D01*
X010469Y026117D02*
X010448Y026117D01*
X010448Y026511D02*
X015600Y026511D01*
X015600Y026610D02*
X010424Y026610D01*
X010277Y026708D02*
X015600Y026708D01*
X015600Y026807D02*
X010384Y026807D01*
X010490Y026905D02*
X015600Y026905D01*
X015600Y027004D02*
X010597Y027004D01*
X010700Y027102D02*
X015600Y027102D01*
X015600Y027201D02*
X010700Y027201D01*
X010050Y027399D02*
X009950Y027299D01*
X008650Y027299D01*
X008718Y027299D02*
X008718Y027295D01*
X008794Y027219D01*
X009296Y027219D01*
X009372Y027295D01*
X009372Y027299D01*
X009584Y027299D01*
X009584Y027295D01*
X009660Y027219D01*
X009877Y027219D01*
X009450Y026749D01*
X008255Y026749D01*
X008225Y026779D01*
X007970Y026779D01*
X007800Y026949D01*
X006150Y026949D01*
X006150Y027299D01*
X008718Y027299D01*
X007942Y026807D02*
X009503Y026807D01*
X009592Y026905D02*
X007843Y026905D01*
X008050Y026399D02*
X005950Y026399D01*
X005150Y025599D01*
X005000Y025599D01*
X004900Y025499D01*
X006040Y025550D02*
X006040Y025582D01*
X006247Y025789D01*
X006357Y025789D01*
X006357Y025550D01*
X006230Y025550D01*
X006230Y025243D01*
X006130Y025243D01*
X006130Y025550D01*
X006040Y025550D01*
X006083Y025625D02*
X006357Y025625D01*
X006357Y025723D02*
X006182Y025723D01*
X006230Y025526D02*
X006130Y025526D01*
X006130Y025428D02*
X006230Y025428D01*
X006230Y025329D02*
X006130Y025329D01*
X006690Y025267D02*
X006690Y025004D01*
X006790Y025004D01*
X006790Y025267D01*
X006690Y025267D01*
X006690Y025231D02*
X006790Y025231D01*
X006790Y025132D02*
X006690Y025132D01*
X006690Y025034D02*
X006790Y025034D01*
X007217Y024504D02*
X006180Y024504D01*
X006307Y023889D02*
X005937Y023889D01*
X005860Y023812D01*
X005860Y023454D01*
X005870Y023471D01*
X005995Y023596D01*
X006216Y023375D01*
X006286Y023304D01*
X006070Y023088D01*
X006197Y022960D01*
X006190Y022947D01*
X006180Y022909D01*
X006180Y022870D01*
X006190Y022831D01*
X006210Y022797D01*
X006339Y022668D01*
X006556Y022885D01*
X006626Y022814D01*
X006410Y022598D01*
X006481Y022526D01*
X005663Y021709D01*
X005622Y021709D01*
X005598Y021765D01*
X005466Y021897D01*
X005293Y021969D01*
X004507Y021969D01*
X004334Y021897D01*
X004320Y021883D01*
X004320Y022114D01*
X004334Y022100D01*
X004507Y022029D01*
X005293Y022029D01*
X005466Y022100D01*
X005598Y022233D01*
X005622Y022289D01*
X005637Y022289D01*
X005760Y022412D01*
X005860Y022512D01*
X005860Y023304D01*
X005870Y023287D01*
X005999Y023158D01*
X006216Y023375D01*
X006286Y023446D01*
X006065Y023667D01*
X006190Y023792D01*
X006224Y023811D01*
X006262Y023822D01*
X006302Y023822D01*
X006307Y023820D01*
X006307Y023889D01*
X006307Y023852D02*
X005900Y023852D01*
X005860Y023753D02*
X006152Y023753D01*
X006077Y023655D02*
X005860Y023655D01*
X005874Y023658D02*
X005991Y023774D01*
X005991Y023766D01*
X005998Y023759D01*
X006000Y023759D01*
X005874Y023658D02*
X005874Y023299D01*
X005860Y023261D02*
X005896Y023261D01*
X005860Y023162D02*
X005995Y023162D01*
X006003Y023162D02*
X006144Y023162D01*
X006101Y023261D02*
X006243Y023261D01*
X006232Y023359D02*
X006200Y023359D01*
X006133Y023458D02*
X006274Y023458D01*
X006176Y023556D02*
X006035Y023556D01*
X005955Y023556D02*
X005860Y023556D01*
X005860Y023458D02*
X005862Y023458D01*
X005860Y023064D02*
X006093Y023064D01*
X006192Y022965D02*
X005860Y022965D01*
X005860Y022867D02*
X006181Y022867D01*
X006239Y022768D02*
X005860Y022768D01*
X005860Y022670D02*
X006337Y022670D01*
X006340Y022670D02*
X006482Y022670D01*
X006439Y022768D02*
X006580Y022768D01*
X006574Y022867D02*
X006537Y022867D01*
X006436Y022571D02*
X005860Y022571D01*
X005821Y022473D02*
X006427Y022473D01*
X006329Y022374D02*
X005723Y022374D01*
X005616Y022276D02*
X006230Y022276D01*
X006132Y022177D02*
X005543Y022177D01*
X005414Y022079D02*
X006033Y022079D01*
X005935Y021980D02*
X004320Y021980D01*
X004320Y022079D02*
X004386Y022079D01*
X005482Y021882D02*
X005836Y021882D01*
X005738Y021783D02*
X005580Y021783D01*
X004901Y023499D02*
X004900Y023499D01*
X006672Y025651D02*
X006740Y025643D01*
X006672Y025651D02*
X007440Y025651D01*
X007378Y025649D01*
X007650Y025649D01*
X007700Y025599D01*
X007700Y025149D01*
X007974Y024875D01*
X008197Y024875D01*
X008200Y024679D02*
X007392Y024679D01*
X007440Y024667D01*
X007217Y024504D01*
X008000Y023891D02*
X008197Y023891D01*
X008197Y024678D02*
X008200Y024678D01*
X008200Y024679D01*
X008424Y025101D02*
X008400Y025125D01*
X008817Y025101D02*
X008817Y025431D01*
X008500Y025749D01*
X008500Y025949D01*
X008050Y026399D01*
X009010Y025439D02*
X009010Y025089D01*
X009802Y025847D02*
X009700Y025949D01*
X009728Y025949D01*
X009728Y025937D01*
X009802Y025847D02*
X009802Y025101D01*
X010589Y025101D02*
X010589Y025638D01*
X010950Y025999D01*
X015450Y025999D01*
X013179Y024541D02*
X012913Y024541D01*
X013239Y022867D02*
X012243Y022867D01*
X011820Y022709D02*
X011600Y022709D01*
X011610Y022509D02*
X011810Y022509D01*
X011933Y022316D02*
X012200Y022049D01*
X011933Y022316D02*
X011603Y022316D01*
X011376Y021696D02*
X011376Y021522D01*
X011474Y021422D01*
X011500Y021299D01*
X011580Y021291D02*
X011400Y021291D01*
X011400Y021210D02*
X011580Y021030D01*
X011580Y021544D01*
X011573Y021518D01*
X011550Y021477D01*
X011516Y021444D01*
X011475Y021420D01*
X011430Y021408D01*
X011400Y021408D01*
X011400Y021210D01*
X011418Y021192D02*
X011580Y021192D01*
X011580Y021094D02*
X011516Y021094D01*
X011580Y021389D02*
X011400Y021389D01*
X011556Y021488D02*
X011580Y021488D01*
X008794Y020995D02*
X008758Y020995D01*
X008794Y020897D02*
X008659Y020897D01*
X008400Y020949D02*
X008620Y021169D01*
X008620Y021696D01*
X008424Y021696D02*
X008424Y021622D01*
X008350Y021549D01*
X008197Y022710D02*
X007861Y022710D01*
X006150Y027004D02*
X009682Y027004D01*
X009771Y027102D02*
X006150Y027102D01*
X006150Y027201D02*
X009861Y027201D01*
X009850Y027199D02*
X009950Y027299D01*
X010156Y015329D02*
X009603Y015329D01*
X009329Y015054D01*
X009487Y014895D01*
X009487Y014920D01*
X009498Y014958D01*
X009517Y014992D01*
X009545Y015020D01*
X009580Y015040D01*
X009618Y015050D01*
X009800Y015050D01*
X009800Y014743D01*
X009900Y014743D01*
X009900Y015050D01*
X010082Y015050D01*
X010120Y015040D01*
X010155Y015020D01*
X010156Y015019D01*
X010156Y015329D01*
X010156Y015282D02*
X009557Y015282D01*
X009458Y015184D02*
X010156Y015184D01*
X010156Y015085D02*
X009360Y015085D01*
X009396Y014987D02*
X009514Y014987D01*
X009800Y014987D02*
X009900Y014987D01*
X009900Y014888D02*
X009800Y014888D01*
X009800Y014790D02*
X009900Y014790D01*
X010893Y014790D02*
X010927Y014790D01*
X010927Y014691D02*
X010893Y014691D01*
X010893Y014593D02*
X010927Y014593D01*
X010977Y014494D02*
X010851Y014494D01*
X011950Y013017D02*
X012082Y013017D01*
X012334Y013017D02*
X012434Y013017D01*
X012434Y012918D02*
X012334Y012918D01*
X012334Y012820D02*
X012434Y012820D01*
X012434Y012721D02*
X012334Y012721D01*
X012334Y012623D02*
X012434Y012623D01*
X012362Y011736D02*
X012730Y011736D01*
X012766Y011638D02*
X012420Y011638D01*
X012420Y011539D02*
X012812Y011539D01*
X012749Y011441D02*
X012420Y011441D01*
X013115Y011189D02*
X013115Y010814D01*
X012870Y010569D01*
X012479Y010569D01*
X012479Y010369D02*
X012930Y010369D01*
X013100Y010199D01*
X013100Y010179D01*
X012479Y010179D01*
X012149Y010653D02*
X011750Y010653D01*
X011390Y009569D02*
X011350Y009569D01*
X012464Y008190D02*
X012564Y008190D01*
X012564Y008092D02*
X012464Y008092D01*
X012464Y007993D02*
X012564Y007993D01*
X012564Y007895D02*
X012464Y007895D01*
X012464Y007107D02*
X012564Y007107D01*
X012564Y007008D02*
X012464Y007008D01*
X012464Y006910D02*
X012564Y006910D01*
X012802Y006910D02*
X012855Y006910D01*
X012843Y006811D02*
X011890Y006811D01*
X011915Y006713D02*
X012813Y006713D01*
X012813Y006614D02*
X011910Y006614D01*
X012230Y006516D02*
X012230Y006516D01*
X012230Y006417D02*
X012230Y006417D01*
X012230Y006319D02*
X012230Y006319D01*
X012230Y006220D02*
X012230Y006220D01*
X012478Y006220D02*
X012700Y006220D01*
X012611Y006122D02*
X012478Y006122D01*
X012478Y006023D02*
X012611Y006023D01*
X012478Y006319D02*
X012813Y006319D01*
X012813Y006417D02*
X012478Y006417D01*
X012440Y006516D02*
X012813Y006516D01*
X013557Y006811D02*
X013615Y006811D01*
X013615Y006713D02*
X013587Y006713D01*
X013587Y006614D02*
X013693Y006614D01*
X013587Y006516D02*
X015880Y006516D01*
X015880Y006417D02*
X013587Y006417D01*
X013587Y006319D02*
X015880Y006319D01*
X015880Y006220D02*
X013650Y006220D01*
X013739Y006122D02*
X015880Y006122D01*
X015880Y006023D02*
X013739Y006023D01*
X013739Y005925D02*
X015880Y005925D01*
X015880Y005826D02*
X015466Y005826D01*
X015587Y005728D02*
X015880Y005728D01*
X015880Y005629D02*
X015654Y005629D01*
X015695Y005531D02*
X015880Y005531D01*
X015880Y005432D02*
X015700Y005432D01*
X015700Y005334D02*
X015880Y005334D01*
X015880Y005235D02*
X015700Y005235D01*
X015700Y005137D02*
X015880Y005137D01*
X015880Y005038D02*
X015700Y005038D01*
X015700Y004940D02*
X015880Y004940D01*
X015880Y004841D02*
X015700Y004841D01*
X015685Y004743D02*
X015880Y004743D01*
X015880Y004644D02*
X015644Y004644D01*
X014856Y004644D02*
X014618Y004644D01*
X014661Y004743D02*
X014815Y004743D01*
X014800Y004841D02*
X014680Y004841D01*
X014680Y004940D02*
X014800Y004940D01*
X014800Y005038D02*
X014680Y005038D01*
X014680Y005189D02*
X014680Y005463D01*
X014669Y005529D01*
X014648Y005594D01*
X014618Y005654D01*
X014578Y005709D01*
X014530Y005757D01*
X014475Y005797D01*
X014415Y005827D01*
X014351Y005848D01*
X014290Y005858D01*
X014290Y005189D01*
X014680Y005189D01*
X014680Y005235D02*
X014800Y005235D01*
X014800Y005137D02*
X014290Y005137D01*
X014210Y005137D02*
X013739Y005137D01*
X013739Y005235D02*
X013820Y005235D01*
X013820Y005334D02*
X013739Y005334D01*
X013739Y005432D02*
X013820Y005432D01*
X013831Y005531D02*
X013739Y005531D01*
X013739Y005629D02*
X013870Y005629D01*
X013941Y005728D02*
X013739Y005728D01*
X013739Y005826D02*
X014083Y005826D01*
X014210Y005826D02*
X014290Y005826D01*
X014290Y005728D02*
X014210Y005728D01*
X014210Y005629D02*
X014290Y005629D01*
X014290Y005531D02*
X014210Y005531D01*
X014210Y005432D02*
X014290Y005432D01*
X014290Y005334D02*
X014210Y005334D01*
X014210Y005235D02*
X014290Y005235D01*
X013820Y005038D02*
X013739Y005038D01*
X013739Y004940D02*
X013820Y004940D01*
X013820Y004841D02*
X013739Y004841D01*
X013739Y004743D02*
X013839Y004743D01*
X013882Y004644D02*
X013739Y004644D01*
X014559Y005728D02*
X014913Y005728D01*
X014846Y005629D02*
X014630Y005629D01*
X014669Y005531D02*
X014805Y005531D01*
X014800Y005432D02*
X014680Y005432D01*
X014680Y005334D02*
X014800Y005334D01*
X015034Y005826D02*
X014417Y005826D01*
X014877Y006614D02*
X015975Y006614D01*
X013615Y006910D02*
X013545Y006910D01*
X013567Y007008D02*
X013615Y007008D01*
X013615Y007107D02*
X013567Y007107D01*
X013248Y007304D02*
X013152Y007304D01*
X013152Y007402D02*
X013248Y007402D01*
X013248Y007501D02*
X013152Y007501D01*
X012227Y006910D02*
X012146Y006910D01*
X011910Y007269D02*
X011826Y007249D01*
X011826Y007284D01*
X013115Y011189D02*
X013150Y011223D01*
X013150Y011809D01*
X013474Y011539D02*
X013481Y011539D01*
X006325Y015085D02*
X005430Y015085D01*
X005475Y014888D02*
X006128Y014888D01*
X006030Y014790D02*
X005574Y014790D01*
X006227Y014987D02*
X004320Y014987D01*
X004320Y015085D02*
X004370Y015085D01*
X004325Y014888D02*
X004320Y014888D01*
D51*
X007600Y018049D02*
X008144Y018049D01*
X008100Y018054D01*
X008650Y018249D02*
X009093Y018249D01*
X009093Y018749D02*
X008700Y018749D01*
X008156Y018749D01*
X008100Y018743D01*
X007744Y018743D01*
X007700Y018788D01*
X007700Y020049D01*
X007114Y023372D02*
X007390Y023649D01*
X007750Y023649D01*
X008000Y024049D02*
X007120Y024049D01*
X006934Y023862D01*
X006774Y023862D01*
X006740Y024954D02*
X006700Y025049D01*
X006344Y025049D01*
X006180Y025193D01*
X009100Y026354D02*
X009282Y026192D01*
X009728Y026192D01*
X012650Y021654D02*
X012600Y021604D01*
X012600Y021599D01*
X012700Y021499D01*
X012980Y021499D01*
X013001Y021500D01*
X013022Y021497D01*
X013043Y021491D01*
X013062Y021482D01*
X013080Y021470D01*
X013096Y021456D01*
X013109Y021439D01*
X013119Y021420D01*
X013126Y021400D01*
X013130Y021379D01*
X013150Y009613D02*
X013016Y009539D01*
X012670Y009539D01*
D52*
X012670Y009539D03*
X013100Y010199D03*
X013550Y010679D03*
X014270Y010709D03*
X013650Y009589D03*
X012650Y008329D03*
X013150Y007849D03*
X013900Y006479D03*
X012680Y006349D03*
X011600Y006689D03*
X011020Y006789D03*
X009800Y006729D03*
X008600Y005279D03*
X007200Y005329D03*
X006350Y004999D03*
X005600Y006729D03*
X006750Y008849D03*
X007300Y008379D03*
X008650Y008379D03*
X009600Y009429D03*
X009100Y010079D03*
X010350Y009899D03*
X011250Y009379D03*
X011700Y010679D03*
X012570Y011829D03*
X013080Y012479D03*
X012160Y013279D03*
X011430Y014219D03*
X011870Y015489D03*
X011210Y016089D03*
X010690Y017089D03*
X011000Y017799D03*
X011950Y017799D03*
X012060Y016959D03*
X013050Y016249D03*
X013500Y016799D03*
X013750Y017549D03*
X013950Y018479D03*
X013950Y019329D03*
X014750Y019379D03*
X014950Y018729D03*
X014650Y017729D03*
X015450Y017279D03*
X014650Y016649D03*
X014350Y015949D03*
X014050Y015249D03*
X013080Y014339D03*
X014320Y013049D03*
X016050Y012999D03*
X016200Y013949D03*
X016250Y014999D03*
X016250Y015949D03*
X016150Y018999D03*
X016200Y019949D03*
X016200Y020999D03*
X016200Y021999D03*
X016300Y022999D03*
X017700Y022949D03*
X017700Y023949D03*
X017700Y024949D03*
X017700Y025899D03*
X015400Y027059D03*
X014900Y027059D03*
X014400Y027059D03*
X013900Y027059D03*
X013400Y027059D03*
X012900Y027059D03*
X012400Y027059D03*
X011900Y027059D03*
X011400Y027059D03*
X010900Y027059D03*
X010600Y026459D03*
X010900Y024441D03*
X012050Y023849D03*
X012550Y022829D03*
X012120Y022569D03*
X011490Y021289D03*
X010650Y020849D03*
X010310Y021149D03*
X010900Y022356D03*
X008907Y022356D03*
X008100Y021349D03*
X008100Y020849D03*
X008630Y020739D03*
X007700Y020049D03*
X007150Y020499D03*
X007300Y019449D03*
X007600Y018049D03*
X008200Y016949D03*
X008650Y015629D03*
X009400Y015649D03*
X009850Y015229D03*
X009750Y016829D03*
X010850Y019799D03*
X013130Y021379D03*
X013600Y021629D03*
X013950Y020729D03*
X014750Y020379D03*
X014800Y022879D03*
X014750Y024429D03*
X013050Y024479D03*
X008829Y024441D03*
X007750Y023649D03*
X006250Y022539D03*
X005600Y021949D03*
X006000Y023759D03*
X006230Y025669D03*
X006300Y027109D03*
X006800Y027109D03*
X007300Y027109D03*
X007800Y027109D03*
X008450Y027109D03*
X006150Y017849D03*
X006550Y017199D03*
X006700Y016299D03*
X007200Y015649D03*
X006967Y014371D03*
X006750Y013399D03*
X006550Y012249D03*
X007250Y012249D03*
X007900Y012249D03*
X005550Y012999D03*
X005550Y013949D03*
X005600Y014949D03*
X005550Y015999D03*
X005750Y016999D03*
X004150Y009879D03*
X014400Y007979D03*
X015190Y008589D03*
X015700Y007379D03*
X015150Y006629D03*
X017000Y007979D03*
X016750Y009729D03*
X015400Y010879D03*
X017700Y018949D03*
X017700Y019949D03*
X017700Y020949D03*
X017700Y021949D03*
D53*
X010550Y015654D02*
X010556Y015599D01*
X009339Y014661D02*
X008861Y015139D01*
X008787Y015139D01*
X008787Y014391D02*
X008565Y014169D01*
X008565Y013849D01*
X008144Y013849D01*
X008048Y013945D01*
X007787Y013945D01*
X007683Y014049D01*
X008107Y013249D02*
X008024Y013166D01*
X008024Y013073D01*
X007600Y012649D01*
X006350Y012649D01*
X006000Y012299D01*
X006000Y011199D01*
X005300Y010499D01*
X004900Y010499D01*
X008107Y013249D02*
X008800Y013249D01*
X009200Y013649D01*
X009200Y013814D01*
X009235Y013849D01*
X009339Y013953D01*
X009339Y014661D01*
X009235Y013849D02*
X009183Y013750D01*
X008200Y016949D02*
X008650Y017399D01*
X008650Y018249D01*
X008700Y018299D01*
X008700Y018749D01*
D54*
X009450Y015699D02*
X010506Y015699D01*
X010556Y015599D01*
X010526Y015569D01*
X010526Y014882D01*
X010839Y014004D02*
X009850Y014004D01*
X009850Y013499D01*
X009076Y012725D01*
X009076Y012582D01*
X008656Y012162D01*
X008656Y010899D01*
X010839Y014004D02*
X010900Y014016D01*
X009400Y015649D02*
X008891Y015139D01*
X008787Y015139D01*
X009400Y015649D02*
X009450Y015699D01*
X013200Y006514D02*
X013200Y005339D01*
X013175Y005313D01*
D55*
X010970Y006140D02*
X010640Y006470D01*
X010640Y008279D01*
X010794Y008124D01*
X011230Y008124D01*
X010640Y008279D02*
X010640Y008375D01*
X010560Y008455D01*
X010560Y009242D02*
X010350Y009452D01*
X010350Y009899D01*
X010050Y010199D01*
X010050Y011499D01*
X009833Y011716D01*
X009450Y011716D01*
X009483Y011749D01*
X009524Y011773D02*
X009450Y011699D01*
X012190Y009333D02*
X012396Y009539D01*
X012670Y009539D01*
X013100Y010179D02*
X013566Y010179D01*
X013576Y010189D01*
X013550Y010679D02*
X013700Y010829D01*
X013700Y011189D01*
X013785Y011189D01*
X010556Y015599D02*
X010550Y015604D01*
D56*
X008656Y010899D02*
X008656Y010699D01*
X008206Y010249D01*
X007950Y010249D01*
X007700Y009999D01*
X007700Y009349D01*
X007700Y009330D01*
X007200Y009330D01*
X006350Y008480D01*
X006350Y004999D01*
D57*
X011020Y006789D02*
X011050Y006809D01*
X011050Y007249D01*
X011450Y007649D01*
X011676Y007649D01*
X011826Y007829D01*
X011600Y008024D01*
X011600Y009889D01*
X011810Y009879D02*
X011810Y008279D01*
X011890Y008199D01*
X012070Y008199D01*
X012170Y008099D01*
X012170Y007519D01*
X012080Y007429D01*
X011970Y007429D01*
X011826Y007284D01*
X011826Y007249D02*
X011420Y007249D01*
X011285Y007114D01*
X011285Y006140D01*
X011600Y006140D02*
X011600Y006689D01*
X005750Y021499D02*
X004900Y021499D01*
X005750Y021499D02*
X007552Y023300D01*
X008197Y023300D01*
X007800Y024299D02*
X007983Y024481D01*
X008197Y024481D01*
X007800Y024299D02*
X006700Y024299D01*
X006500Y024099D01*
X005850Y024099D01*
X005650Y023899D01*
X005650Y022599D01*
X005550Y022499D01*
X004900Y022499D01*
X004901Y023499D02*
X005158Y023499D01*
X005450Y023792D01*
X005450Y023999D01*
X005650Y024199D01*
X005650Y024999D01*
X005830Y025179D01*
X005830Y025669D01*
X006160Y025999D01*
X007850Y025999D01*
X008100Y025749D01*
X008100Y025499D01*
X008400Y025199D01*
X008400Y025125D01*
X008620Y025101D02*
X008620Y025328D01*
X008300Y025649D01*
X008300Y025849D01*
X007950Y026199D01*
X006050Y026199D01*
X005650Y025799D01*
X005650Y025299D01*
X005250Y024899D01*
X005250Y024649D01*
X005100Y024499D01*
X004900Y024499D01*
D58*
X009730Y026459D02*
X009730Y026669D01*
X010380Y027319D01*
X010380Y027419D01*
M02*
